SplineFontDB: 3.2
FontName: Kilroy6-Regular
FullName: Kilroy6 Regular
FamilyName: Kilroy6
Weight: Regular
Copyright: Copyright 2020 The Roboto Serif Project Authors (https://github.com/googlefonts/RobotoSerif) OFL
Version: 1.008
ItalicAngle: 0
UnderlinePosition: -200
UnderlineWidth: 100
Ascent: 800
Descent: 200
InvalidEm: 0
sfntRevision: 0x0001020c
LayerCount: 2
Layer: 0 1 "Back" 1
Layer: 1 1 "Fore" 0
XUID: [1021 1018 -1064020043 32539]
StyleMap: 0x0040
FSType: 0
OS2Version: 4
OS2_WeightWidthSlopeOnly: 0
OS2_UseTypoMetrics: 1
CreationTime: 1586430965
ModificationTime: 1752120532
PfmFamily: 81
TTFWeight: 400
TTFWidth: 4
LineGap: 0
VLineGap: 0
Panose: 0 0 0 0 0 0 0 0 0 0
OS2TypoAscent: 927
OS2TypoAOffset: 0
OS2TypoDescent: -244
OS2TypoDOffset: 0
OS2TypoLinegap: 0
OS2WinAscent: 1048
OS2WinAOffset: 0
OS2WinDescent: 251
OS2WinDOffset: 0
HheadAscent: 927
HheadAOffset: 0
HheadDescent: -244
HheadDOffset: 0
OS2SubXSize: 650
OS2SubYSize: 600
OS2SubXOff: 0
OS2SubYOff: 75
OS2SupXSize: 650
OS2SupYSize: 600
OS2SupXOff: 0
OS2SupYOff: 350
OS2StrikeYSize: 100
OS2StrikeYPos: 311
OS2CapHeight: 710
OS2XHeight: 518
OS2Vendor: 'COMM'
OS2CodePages: 20000193.00000000
OS2UnicodeRanges: a10000ef.4000267a.00000000.00000000
Lookup: 5 0 0 "'locl' Localized Forms in Latin lookup 0" { "'locl' Localized Forms in Latin lookup 0 subtable"  } ['locl' ('latn' <'AZE ' 'CRT ' 'TRK ' > ) ]
Lookup: 1 0 0 "Single Substitution lookup 1" { "Single Substitution lookup 1 subtable"  } []
Lookup: 5 0 0 "'locl' Localized Forms in Latin lookup 2" { "'locl' Localized Forms in Latin lookup 2 subtable"  } ['locl' ('latn' <'PLK ' > ) ]
Lookup: 1 0 0 "Single Substitution lookup 3" { "Single Substitution lookup 3 subtable"  } []
Lookup: 6 0 0 "'locl' Localized Forms in Latin lookup 4" { "'locl' Localized Forms in Latin lookup 4 subtable"  } ['locl' ('latn' <'CAT ' > ) ]
Lookup: 4 0 0 "Ligature Substitution lookup 5" { "Ligature Substitution lookup 5 subtable"  } []

StartChar: .notdef
Encoding: 256 -1 0
Width: 400
GlyphClass: 1
Flags: W
LayerCount: 2
Fore
SplineSet
0 0 m 1,0,-1
 0 700 l 1,1,-1
 400 700 l 1,2,-1
 400 0 l 1,3,-1
 0 0 l 1,0,-1
50 650 m 1,4,-1
 50 50 l 1,5,-1
 350 50 l 1,6,-1
 350 650 l 1,7,-1
 50 650 l 1,4,-1
EndSplineSet
EndChar

StartChar: A
Encoding: 65 65 4
Width: 707
GlyphClass: 2
Flags: W
AnchorPoint: "Anchor-2" 559 0 basechar 0
AnchorPoint: "Anchor-1" 353 0 basechar 0
AnchorPoint: "Anchor-0" 353 721 basechar 0
LayerCount: 2
Fore
SplineSet
211 301 m 1,0,-1
 472 301 l 1,1,-1
 491 226 l 1,2,-1
 192 226 l 1,3,-1
 211 301 l 1,0,-1
328 683 m 1,4,-1
 357 675 l 1,5,-1
 172 99 l 2,6,7
 172 93 172 93 182 87.5 c 128,-1,8
 192 82 192 82 210 79 c 128,-1,9
 228 76 228 76 251 76 c 2,10,-1
 260 76 l 1,11,-1
 260 0 l 1,12,-1
 19 0 l 1,13,-1
 19 76 l 1,14,-1
 25 76 l 2,15,16
 48 76 48 76 67.5 88 c 128,-1,17
 87 100 87 100 99 140 c 2,18,-1
 289 722 l 1,19,-1
 412 722 l 1,20,-1
 604 140 l 2,21,22
 617 100 617 100 636.5 88 c 128,-1,23
 656 76 656 76 683 76 c 2,24,-1
 688 76 l 1,25,-1
 688 0 l 1,26,-1
 428 0 l 1,27,-1
 428 76 l 1,28,-1
 438 76 l 2,29,30
 463 76 463 76 481.5 77.5 c 128,-1,31
 500 79 500 79 510 81.5 c 128,-1,32
 520 84 520 84 520 87 c 2,33,-1
 328 683 l 1,4,-1
EndSplineSet
EndChar

StartChar: B
Encoding: 66 66 11
Width: 698
GlyphClass: 2
Flags: W
AnchorPoint: "Anchor-0" 319 741 basechar 0
LayerCount: 2
Fore
SplineSet
385 710 m 2,0,1
 438 710 438 710 478.5 699 c 128,-1,2
 519 688 519 688 546.5 665.5 c 128,-1,3
 574 643 574 643 588 609.5 c 128,-1,4
 602 576 602 576 602 531 c 0,5,6
 602 487 602 487 582 451.5 c 128,-1,7
 562 416 562 416 521 395.5 c 128,-1,8
 480 375 480 375 418 375 c 1,9,-1
 427 391 l 1,10,-1
 427 352 l 1,11,-1
 418 371 l 1,12,13
 488 368 488 368 535.5 346.5 c 128,-1,14
 583 325 583 325 607.5 287.5 c 128,-1,15
 632 250 632 250 632 198 c 0,16,17
 632 148 632 148 616.5 111 c 128,-1,18
 601 74 601 74 570.5 49.5 c 128,-1,19
 540 25 540 25 496 12.5 c 128,-1,20
 452 0 452 0 395 0 c 2,21,-1
 58 0 l 1,22,-1
 58 76 l 1,23,-1
 69 76 l 2,24,25
 98 76 98 76 120 83 c 128,-1,26
 142 90 142 90 142 112 c 2,27,-1
 142 598 l 2,28,29
 142 620 142 620 120 627 c 128,-1,30
 98 634 98 634 69 634 c 2,31,-1
 58 634 l 1,32,-1
 58 710 l 1,33,-1
 385 710 l 2,0,1
201 408 m 1,34,-1
 380 408 l 2,35,36
 423 408 423 408 449 421 c 128,-1,37
 475 434 475 434 487 460.5 c 128,-1,38
 499 487 499 487 499 527 c 0,39,40
 499 561 499 561 487.5 585 c 128,-1,41
 476 609 476 609 450.5 622 c 128,-1,42
 425 635 425 635 381 635 c 2,43,-1
 242 635 l 1,44,-1
 242 75 l 1,45,-1
 391 75 l 2,46,47
 440 75 440 75 469.5 90 c 128,-1,48
 499 105 499 105 513 133.5 c 128,-1,49
 527 162 527 162 527 203 c 0,50,51
 527 245 527 245 512 274.5 c 128,-1,52
 497 304 497 304 464.5 320 c 128,-1,53
 432 336 432 336 380 336 c 2,54,-1
 201 336 l 1,55,-1
 201 408 l 1,34,-1
EndSplineSet
EndChar

StartChar: C
Encoding: 67 67 12
Width: 762
GlyphClass: 2
Flags: W
AnchorPoint: "Anchor-1" 403 0 basechar 0
AnchorPoint: "Anchor-0" 403 741 basechar 0
LayerCount: 2
Fore
SplineSet
387 658 m 0,0,1
 331 658 331 658 289.5 640 c 128,-1,2
 248 622 248 622 221 585.5 c 128,-1,3
 194 549 194 549 180 492 c 128,-1,4
 166 435 166 435 166 355 c 0,5,6
 166 277 166 277 180 219.5 c 128,-1,7
 194 162 194 162 222.5 124.5 c 128,-1,8
 251 87 251 87 294.5 69 c 128,-1,9
 338 51 338 51 398 51 c 0,10,11
 468 51 468 51 514 78 c 128,-1,12
 560 105 560 105 588 148.5 c 128,-1,13
 616 192 616 192 633 241 c 1,14,-1
 705 213 l 1,15,16
 682 139 682 139 640 86 c 128,-1,17
 598 33 598 33 536.5 4 c 128,-1,18
 475 -25 475 -25 393 -25 c 0,19,20
 318 -25 318 -25 256.5 -1 c 128,-1,21
 195 23 195 23 151 71 c 128,-1,22
 107 119 107 119 83.5 190 c 128,-1,23
 60 261 60 261 60 355 c 0,24,25
 60 450 60 450 83.5 521 c 128,-1,26
 107 592 107 592 150.5 639.5 c 128,-1,27
 194 687 194 687 254 711 c 128,-1,28
 314 735 314 735 386 735 c 0,29,30
 452 735 452 735 502 708.5 c 128,-1,31
 552 682 552 682 582.5 630 c 128,-1,32
 613 578 613 578 621 499 c 1,33,-1
 601 545 l 1,34,-1
 615 720 l 1,35,-1
 691 720 l 1,36,-1
 691 461 l 1,37,-1
 608 461 l 1,38,39
 591 520 591 520 562 564 c 128,-1,40
 533 608 533 608 489.5 633 c 128,-1,41
 446 658 446 658 387 658 c 0,0,1
EndSplineSet
EndChar

StartChar: D
Encoding: 68 68 15
Width: 784
GlyphClass: 2
Flags: W
AnchorPoint: "Anchor-1" 394 0 basechar 0
AnchorPoint: "Anchor-0" 394 741 basechar 0
LayerCount: 2
Fore
SplineSet
58 634 m 1,0,-1
 58 710 l 1,1,-1
 355 710 l 2,2,3
 442 710 442 710 511 688.5 c 128,-1,4
 580 667 580 667 627.5 623.5 c 128,-1,5
 675 580 675 580 699.5 514 c 128,-1,6
 724 448 724 448 724 359 c 0,7,8
 724 271 724 271 699.5 203.5 c 128,-1,9
 675 136 675 136 627.5 91 c 128,-1,10
 580 46 580 46 511 23 c 128,-1,11
 442 0 442 0 355 0 c 2,12,-1
 58 0 l 1,13,-1
 58 76 l 1,14,-1
 69 76 l 2,15,16
 98 76 98 76 120 83 c 128,-1,17
 142 90 142 90 142 112 c 2,18,-1
 142 598 l 2,19,20
 142 620 142 620 120 627 c 128,-1,21
 98 634 98 634 69 634 c 2,22,-1
 58 634 l 1,0,-1
354 635 m 2,23,-1
 242 635 l 1,24,-1
 242 75 l 1,25,-1
 354 75 l 2,26,27
 421 75 421 75 470.5 92.5 c 128,-1,28
 520 110 520 110 553 145 c 128,-1,29
 586 180 586 180 601.5 233.5 c 128,-1,30
 617 287 617 287 617 359 c 256,31,32
 617 431 617 431 601.5 483 c 128,-1,33
 586 535 586 535 553 568.5 c 128,-1,34
 520 602 520 602 470.5 618.5 c 128,-1,35
 421 635 421 635 354 635 c 2,23,-1
EndSplineSet
EndChar

StartChar: E
Encoding: 69 69 16
Width: 694
GlyphClass: 2
Flags: W
AnchorPoint: "Anchor-2" 480 0 basechar 0
AnchorPoint: "Anchor-1" 410 0 basechar 0
AnchorPoint: "Anchor-0" 410 741 basechar 0
LayerCount: 2
Fore
SplineSet
622 226 m 1,0,-1
 622 0 l 1,1,-1
 58 0 l 1,2,-1
 58 76 l 1,3,-1
 69 76 l 2,4,5
 98 76 98 76 120 83 c 128,-1,6
 142 90 142 90 142 112 c 2,7,-1
 142 598 l 2,8,9
 142 620 142 620 120 627 c 128,-1,10
 98 634 98 634 69 634 c 2,11,-1
 58 634 l 1,12,-1
 58 710 l 1,13,-1
 603 710 l 1,14,-1
 603 509 l 1,15,-1
 529 509 l 1,16,-1
 517 590 l 2,17,18
 514 608 514 608 501.5 617.5 c 128,-1,19
 489 627 489 627 463 631 c 128,-1,20
 437 635 437 635 397 635 c 2,21,-1
 242 635 l 1,22,-1
 242 75 l 1,23,-1
 412 75 l 2,24,25
 442 75 442 75 464.5 77 c 128,-1,26
 487 79 487 79 501 84.5 c 128,-1,27
 515 90 515 90 522.5 98.5 c 128,-1,28
 530 107 530 107 532 120 c 2,29,-1
 546 226 l 1,30,-1
 622 226 l 1,0,-1
226 400 m 1,31,32
 273 403 273 403 319.5 405.5 c 128,-1,33
 366 408 366 408 413 411 c 128,-1,34
 460 414 460 414 507 415 c 1,35,-1
 507 315 l 1,36,37
 460 318 460 318 413.5 320.5 c 128,-1,38
 367 323 367 323 320 325 c 128,-1,39
 273 327 273 327 226 329 c 1,40,-1
 226 400 l 1,31,32
EndSplineSet
Substitution2: "'ss01' Style Set 1 lookup 61 subtable" E.alt
EndChar

StartChar: F
Encoding: 70 70 21
Width: 666
GlyphClass: 2
Flags: W
AnchorPoint: "Anchor-0" 312 741 basechar 0
LayerCount: 2
Fore
SplineSet
242 635 m 1,0,-1
 242 86 l 2,1,2
 242 83 242 83 250 81.5 c 128,-1,3
 258 80 258 80 270.5 78.5 c 128,-1,4
 283 77 283 77 299.5 76.5 c 128,-1,5
 316 76 316 76 334 76 c 2,6,-1
 352 76 l 1,7,-1
 352 0 l 1,8,-1
 58 0 l 1,9,-1
 58 76 l 1,10,-1
 69 76 l 2,11,12
 98 76 98 76 120 83 c 128,-1,13
 142 90 142 90 142 112 c 2,14,-1
 142 598 l 2,15,16
 142 620 142 620 120 627 c 128,-1,17
 98 634 98 634 69 634 c 2,18,-1
 58 634 l 1,19,-1
 58 710 l 1,20,-1
 603 710 l 1,21,-1
 603 505 l 1,22,-1
 529 505 l 1,23,-1
 517 590 l 2,24,25
 514 608 514 608 501.5 617.5 c 128,-1,26
 489 627 489 627 463 631 c 128,-1,27
 437 635 437 635 397 635 c 2,28,-1
 242 635 l 1,0,-1
226 391 m 1,29,30
 273 394 273 394 319.5 396.5 c 128,-1,31
 366 399 366 399 413 401.5 c 128,-1,32
 460 404 460 404 507 406 c 1,33,-1
 507 306 l 1,34,35
 460 309 460 309 413.5 311 c 128,-1,36
 367 313 367 313 320 315.5 c 128,-1,37
 273 318 273 318 226 320 c 1,38,-1
 226 391 l 1,29,30
EndSplineSet
Substitution2: "'ss01' Style Set 1 lookup 61 subtable" F.alt
EndChar

StartChar: G
Encoding: 71 71 22
Width: 810
GlyphClass: 2
Flags: W
AnchorPoint: "Anchor-1" 413 0 basechar 0
AnchorPoint: "Anchor-0" 413 741 basechar 0
LayerCount: 2
Fore
SplineSet
684 231 m 2,0,-1
 684 99 l 1,1,2
 668 80 668 80 642 58 c 128,-1,3
 616 36 616 36 580 17.5 c 128,-1,4
 544 -1 544 -1 498.5 -13 c 128,-1,5
 453 -25 453 -25 401 -25 c 0,6,7
 323 -25 323 -25 259.5 -1 c 128,-1,8
 196 23 196 23 152 71 c 128,-1,9
 108 119 108 119 84 190 c 128,-1,10
 60 261 60 261 60 355 c 0,11,12
 60 450 60 450 85 521 c 128,-1,13
 110 592 110 592 155.5 639.5 c 128,-1,14
 201 687 201 687 261.5 711 c 128,-1,15
 322 735 322 735 393 735 c 0,16,17
 457 735 457 735 504.5 711 c 128,-1,18
 552 687 552 687 581 641 c 128,-1,19
 610 595 610 595 620 527 c 1,20,-1
 600 573 l 1,21,-1
 613 720 l 1,22,-1
 689 720 l 1,23,-1
 689 489 l 1,24,-1
 611 489 l 1,25,26
 595 537 595 537 565 575.5 c 128,-1,27
 535 614 535 614 492.5 636.5 c 128,-1,28
 450 659 450 659 394 659 c 0,29,30
 340 659 340 659 297.5 641 c 128,-1,31
 255 623 255 623 226 586 c 128,-1,32
 197 549 197 549 181.5 491.5 c 128,-1,33
 166 434 166 434 166 355 c 0,34,35
 166 277 166 277 181.5 219 c 128,-1,36
 197 161 197 161 226.5 124 c 128,-1,37
 256 87 256 87 300 69 c 128,-1,38
 344 51 344 51 401 51 c 0,39,40
 456 51 456 51 492.5 63.5 c 128,-1,41
 529 76 529 76 552 93 c 128,-1,42
 575 110 575 110 587 122 c 1,43,-1
 587 231 l 2,44,45
 587 256 587 256 560 263.5 c 128,-1,46
 533 271 533 271 495 271 c 2,47,-1
 465 271 l 1,48,-1
 465 347 l 1,49,-1
 779 347 l 1,50,-1
 779 271 l 1,51,-1
 755 271 l 2,52,53
 720 271 720 271 702 263.5 c 128,-1,54
 684 256 684 256 684 231 c 2,0,-1
EndSplineSet
EndChar

StartChar: H
Encoding: 72 72 24
Width: 842
GlyphClass: 2
Flags: W
AnchorPoint: "Anchor-1" 422 0 basechar 0
AnchorPoint: "Anchor-0" 422 741 basechar 0
LayerCount: 2
Fore
SplineSet
221 404 m 1,0,-1
 621 404 l 1,1,-1
 621 328 l 1,2,-1
 221 328 l 1,3,-1
 221 404 l 1,0,-1
58 0 m 1,4,-1
 58 76 l 1,5,-1
 69 76 l 2,6,7
 98 76 98 76 120 83 c 128,-1,8
 142 90 142 90 142 112 c 2,9,-1
 142 598 l 2,10,11
 142 620 142 620 120 627 c 128,-1,12
 98 634 98 634 69 634 c 2,13,-1
 58 634 l 1,14,-1
 58 710 l 1,15,-1
 334 710 l 1,16,-1
 334 635 l 1,17,-1
 325 635 l 2,18,19
 312 635 312 635 297 634 c 128,-1,20
 282 633 282 633 270 631.5 c 128,-1,21
 258 630 258 630 250 628.5 c 128,-1,22
 242 627 242 627 242 625 c 2,23,-1
 242 85 l 2,24,25
 242 82 242 82 250 81 c 128,-1,26
 258 80 258 80 270 78.5 c 128,-1,27
 282 77 282 77 297 76.5 c 128,-1,28
 312 76 312 76 325 76 c 2,29,-1
 334 76 l 1,30,-1
 334 0 l 1,31,-1
 58 0 l 1,4,-1
509 0 m 1,32,-1
 509 75 l 1,33,-1
 517 75 l 2,34,35
 530 75 530 75 545 76 c 128,-1,36
 560 77 560 77 572.5 78.5 c 128,-1,37
 585 80 585 80 592.5 81.5 c 128,-1,38
 600 83 600 83 600 85 c 2,39,-1
 600 625 l 2,40,41
 600 628 600 628 592.5 629 c 128,-1,42
 585 630 585 630 572.5 631.5 c 128,-1,43
 560 633 560 633 545.5 633.5 c 128,-1,44
 531 634 531 634 517 634 c 2,45,-1
 509 634 l 1,46,-1
 509 710 l 1,47,-1
 784 710 l 1,48,-1
 784 634 l 1,49,-1
 774 634 l 2,50,51
 745 634 745 634 722.5 627 c 128,-1,52
 700 620 700 620 700 598 c 2,53,-1
 700 112 l 2,54,55
 700 90 700 90 722.5 83 c 128,-1,56
 745 76 745 76 774 76 c 2,57,-1
 784 76 l 1,58,-1
 784 0 l 1,59,-1
 509 0 l 1,32,-1
EndSplineSet
EndChar

StartChar: I
Encoding: 73 73 26
Width: 408
GlyphClass: 2
Flags: W
AnchorPoint: "Anchor-2" 269 0 basechar 0
AnchorPoint: "Anchor-1" 205 0 basechar 0
AnchorPoint: "Anchor-0" 205 741 basechar 0
LayerCount: 2
Fore
SplineSet
154 112 m 2,0,-1
 154 598 l 2,1,2
 154 620 154 620 131.5 627 c 128,-1,3
 109 634 109 634 77 634 c 2,4,-1
 57 634 l 1,5,-1
 57 710 l 1,6,-1
 351 710 l 1,7,-1
 351 634 l 1,8,-1
 332 634 l 2,9,10
 299 634 299 634 276.5 627 c 128,-1,11
 254 620 254 620 254 598 c 2,12,-1
 254 112 l 2,13,14
 254 90 254 90 276.5 83 c 128,-1,15
 299 76 299 76 332 76 c 2,16,-1
 351 76 l 1,17,-1
 351 0 l 1,18,-1
 57 0 l 1,19,-1
 57 76 l 1,20,-1
 77 76 l 2,21,22
 109 76 109 76 131.5 83 c 128,-1,23
 154 90 154 90 154 112 c 2,0,-1
EndSplineSet
EndChar

StartChar: J
Encoding: 74 74 31
Width: 649
GlyphClass: 2
Flags: W
AnchorPoint: "Anchor-0" 436 741 basechar 0
LayerCount: 2
Fore
SplineSet
305 710 m 1,0,-1
 603 710 l 1,1,-1
 603 634 l 1,2,-1
 583 634 l 2,3,4
 553 634 553 634 531.5 627 c 128,-1,5
 510 620 510 620 510 598 c 2,6,-1
 510 207 l 2,7,8
 510 145 510 145 491.5 100.5 c 128,-1,9
 473 56 473 56 440 28.5 c 128,-1,10
 407 1 407 1 362.5 -12 c 128,-1,11
 318 -25 318 -25 266 -25 c 0,12,13
 209 -25 209 -25 167.5 -11.5 c 128,-1,14
 126 2 126 2 98 20 c 128,-1,15
 70 38 70 38 53 52 c 1,16,-1
 53 223 l 1,17,-1
 166 223 l 1,18,-1
 166 45 l 1,19,20
 149 50 149 50 136 60.5 c 128,-1,21
 123 71 123 71 117 81.5 c 128,-1,22
 111 92 111 92 112 99 c 128,-1,23
 113 106 113 106 124 105 c 1,24,25
 138 93 138 93 157.5 80.5 c 128,-1,26
 177 68 177 68 204 59.5 c 128,-1,27
 231 51 231 51 265 51 c 0,28,29
 312 51 312 51 344 64 c 128,-1,30
 376 77 376 77 393 111 c 128,-1,31
 410 145 410 145 410 207 c 2,32,-1
 410 598 l 2,33,34
 410 613 410 613 399.5 620.5 c 128,-1,35
 389 628 389 628 370 631 c 128,-1,36
 351 634 351 634 328 634 c 2,37,-1
 305 634 l 1,38,-1
 305 710 l 1,0,-1
EndSplineSet
EndChar

StartChar: K
Encoding: 75 75 33
Width: 766
GlyphClass: 2
Flags: W
AnchorPoint: "Anchor-1" 394 0 basechar 0
AnchorPoint: "Anchor-0" 394 741 basechar 0
LayerCount: 2
Fore
SplineSet
58 0 m 1,0,-1
 58 76 l 1,1,-1
 69 76 l 2,2,3
 98 76 98 76 120 83 c 128,-1,4
 142 90 142 90 142 112 c 2,5,-1
 142 598 l 2,6,7
 142 620 142 620 120 627 c 128,-1,8
 98 634 98 634 69 634 c 2,9,-1
 58 634 l 1,10,-1
 58 710 l 1,11,-1
 329 710 l 1,12,-1
 329 634 l 1,13,-1
 321 634 l 2,14,15
 309 634 309 634 295 633.5 c 128,-1,16
 281 633 281 633 269 631.5 c 128,-1,17
 257 630 257 630 249.5 629 c 128,-1,18
 242 628 242 628 242 625 c 2,19,-1
 242 85 l 2,20,21
 242 83 242 83 249.5 81.5 c 128,-1,22
 257 80 257 80 269 78.5 c 128,-1,23
 281 77 281 77 295 76.5 c 128,-1,24
 309 76 309 76 320 76 c 2,25,-1
 329 76 l 1,26,-1
 329 0 l 1,27,-1
 58 0 l 1,0,-1
447 0 m 1,28,-1
 447 76 l 1,29,-1
 456 76 l 2,30,31
 476 76 476 76 494 77 c 128,-1,32
 512 78 512 78 523.5 80.5 c 128,-1,33
 535 83 535 83 535 86 c 2,34,-1
 290 344 l 1,35,-1
 290 372 l 1,36,-1
 545 623 l 2,37,38
 545 627 545 627 534 629 c 128,-1,39
 523 631 523 631 505.5 632.5 c 128,-1,40
 488 634 488 634 470 634 c 2,41,-1
 461 634 l 1,42,-1
 461 710 l 1,43,-1
 713 710 l 1,44,-1
 713 634 l 1,45,-1
 687 634 l 2,46,47
 676 634 676 634 665.5 631.5 c 128,-1,48
 655 629 655 629 644 623 c 128,-1,49
 633 617 633 617 623 605 c 2,50,-1
 366 355 l 1,51,-1
 367 398 l 1,52,-1
 655 97 l 2,53,54
 664 88 664 88 674 83.5 c 128,-1,55
 684 79 684 79 695.5 77.5 c 128,-1,56
 707 76 707 76 719 76 c 2,57,-1
 738 76 l 1,58,-1
 738 0 l 1,59,-1
 447 0 l 1,28,-1
EndSplineSet
EndChar

StartChar: L
Encoding: 76 76 34
Width: 642
GlyphClass: 2
Flags: W
AnchorPoint: "Anchor-2" 489 710 basechar 0
AnchorPoint: "Anchor-1" 394 0 basechar 0
AnchorPoint: "Anchor-0" 394 741 basechar 0
LayerCount: 2
Fore
SplineSet
345 710 m 1,0,-1
 58 710 l 1,1,-1
 58 634 l 1,2,-1
 69 634 l 2,3,4
 98 634 98 634 120 627 c 128,-1,5
 142 620 142 620 142 598 c 2,6,-1
 142 112 l 2,7,8
 142 90 142 90 120 83 c 128,-1,9
 98 76 98 76 69 76 c 2,10,-1
 58 76 l 1,11,-1
 58 0 l 1,12,-1
 593 0 l 1,13,-1
 593 235 l 1,14,-1
 517 235 l 1,15,-1
 503 120 l 2,16,17
 501 102 501 102 488.5 92 c 128,-1,18
 476 82 476 82 450 78.5 c 128,-1,19
 424 75 424 75 383 75 c 2,20,-1
 242 75 l 1,21,-1
 242 598 l 2,22,23
 242 620 242 620 267 627 c 128,-1,24
 292 634 292 634 329 634 c 2,25,-1
 345 634 l 1,26,-1
 345 710 l 1,0,-1
EndSplineSet
EndChar

StartChar: M
Encoding: 77 77 35
Width: 969
GlyphClass: 2
Flags: W
AnchorPoint: "Anchor-1" 473 0 basechar 0
LayerCount: 2
Fore
SplineSet
59 0 m 1,0,-1
 59 76 l 1,1,-1
 70 76 l 2,2,3
 90 76 90 76 106.5 79 c 128,-1,4
 123 82 123 82 133.5 90 c 128,-1,5
 144 98 144 98 144 112 c 2,6,-1
 144 598 l 2,7,8
 144 613 144 613 133.5 620.5 c 128,-1,9
 123 628 123 628 106.5 631 c 128,-1,10
 90 634 90 634 70 634 c 2,11,-1
 59 634 l 1,12,-1
 59 710 l 1,13,-1
 310 710 l 1,14,-1
 500 107 l 1,15,-1
 459 86 l 1,16,-1
 665 710 l 1,17,-1
 910 710 l 1,18,-1
 910 634 l 1,19,-1
 899 634 l 2,20,21
 870 634 870 634 847.5 627 c 128,-1,22
 825 620 825 620 825 598 c 2,23,-1
 825 112 l 2,24,25
 825 90 825 90 847.5 83 c 128,-1,26
 870 76 870 76 899 76 c 2,27,-1
 910 76 l 1,28,-1
 910 0 l 1,29,-1
 645 0 l 1,30,-1
 645 76 l 1,31,-1
 654 76 l 2,32,33
 668 76 668 76 685 77 c 128,-1,34
 702 78 702 78 714.5 80.5 c 128,-1,35
 727 83 727 83 727 86 c 2,36,-1
 727 692 l 1,37,-1
 745 702 l 1,38,-1
 505 -2 l 1,39,-1
 441 -2 l 1,40,-1
 210 702 l 1,41,-1
 227 692 l 1,42,-1
 227 86 l 2,43,44
 227 83 227 83 239 80.5 c 128,-1,45
 251 78 251 78 266 77 c 128,-1,46
 281 76 281 76 289 76 c 2,47,-1
 292 76 l 1,48,-1
 292 0 l 1,49,-1
 59 0 l 1,0,-1
EndSplineSet
EndChar

StartChar: N
Encoding: 78 78 36
Width: 817
GlyphClass: 2
Flags: W
AnchorPoint: "Anchor-1" 418 0 basechar 0
AnchorPoint: "Anchor-0" 418 741 basechar 0
LayerCount: 2
Fore
SplineSet
59 0 m 1,0,-1
 59 76 l 1,1,-1
 70 76 l 2,2,3
 90 76 90 76 106.5 79 c 128,-1,4
 123 82 123 82 133.5 90 c 128,-1,5
 144 98 144 98 144 112 c 2,6,-1
 144 598 l 2,7,8
 144 613 144 613 133.5 620.5 c 128,-1,9
 123 628 123 628 106.5 631 c 128,-1,10
 90 634 90 634 70 634 c 2,11,-1
 59 634 l 1,12,-1
 59 710 l 1,13,-1
 279 710 l 1,14,-1
 632 89 l 1,15,-1
 600 83 l 1,16,-1
 600 624 l 2,17,18
 600 628 600 628 587.5 630 c 128,-1,19
 575 632 575 632 558.5 633 c 128,-1,20
 542 634 542 634 530 634 c 2,21,-1
 517 634 l 1,22,-1
 517 710 l 1,23,-1
 769 710 l 1,24,-1
 769 634 l 1,25,-1
 759 634 l 2,26,27
 739 634 739 634 722 631 c 128,-1,28
 705 628 705 628 695 620.5 c 128,-1,29
 685 613 685 613 685 598 c 2,30,-1
 685 0 l 1,31,-1
 577 0 l 1,32,-1
 195 668 l 1,33,-1
 228 670 l 1,34,-1
 228 86 l 2,35,36
 228 83 228 83 240.5 80.5 c 128,-1,37
 253 78 253 78 270 77 c 128,-1,38
 287 76 287 76 299 76 c 2,39,-1
 312 76 l 1,40,-1
 312 0 l 1,41,-1
 59 0 l 1,0,-1
EndSplineSet
EndChar

StartChar: O
Encoding: 79 79 38
Width: 799
GlyphClass: 2
Flags: W
AnchorPoint: "Anchor-2" 440 0 basechar 0
AnchorPoint: "Anchor-1" 399 0 basechar 0
AnchorPoint: "Anchor-0" 399 741 basechar 0
LayerCount: 2
Fore
SplineSet
399 -25 m 0,0,1
 323 -25 323 -25 261 0 c 128,-1,2
 199 25 199 25 153.5 73.5 c 128,-1,3
 108 122 108 122 84 192.5 c 128,-1,4
 60 263 60 263 60 355 c 0,5,6
 60 448 60 448 84 518.5 c 128,-1,7
 108 589 108 589 153.5 637.5 c 128,-1,8
 199 686 199 686 261 710.5 c 128,-1,9
 323 735 323 735 399 735 c 0,10,11
 476 735 476 735 538.5 710.5 c 128,-1,12
 601 686 601 686 645.5 637.5 c 128,-1,13
 690 589 690 589 714.5 518.5 c 128,-1,14
 739 448 739 448 739 355 c 0,15,16
 739 263 739 263 714.5 192.5 c 128,-1,17
 690 122 690 122 645.5 73.5 c 128,-1,18
 601 25 601 25 538.5 0 c 128,-1,19
 476 -25 476 -25 399 -25 c 0,0,1
399 53 m 0,20,21
 457 53 457 53 500.5 71 c 128,-1,22
 544 89 544 89 573 126.5 c 128,-1,23
 602 164 602 164 617 220.5 c 128,-1,24
 632 277 632 277 632 355 c 256,25,26
 632 433 632 433 617 489.5 c 128,-1,27
 602 546 602 546 573 583.5 c 128,-1,28
 544 621 544 621 500.5 639 c 128,-1,29
 457 657 457 657 399 657 c 0,30,31
 342 657 342 657 298.5 639 c 128,-1,32
 255 621 255 621 225.5 583.5 c 128,-1,33
 196 546 196 546 181 489.5 c 128,-1,34
 166 433 166 433 166 355 c 256,35,36
 166 277 166 277 181 220.5 c 128,-1,37
 196 164 196 164 225.5 126.5 c 128,-1,38
 255 89 255 89 298.5 71 c 128,-1,39
 342 53 342 53 399 53 c 0,20,21
EndSplineSet
EndChar

StartChar: P
Encoding: 80 80 44
Width: 678
GlyphClass: 2
Flags: W
AnchorPoint: "Anchor-0" 319 741 basechar 0
LayerCount: 2
Fore
SplineSet
242 86 m 2,0,-1
 242 635 l 1,1,-1
 381 635 l 2,2,3
 427 635 427 635 457 619 c 128,-1,4
 487 603 487 603 501.5 571.5 c 128,-1,5
 516 540 516 540 516 494 c 0,6,7
 516 449 516 449 501.5 416.5 c 128,-1,8
 487 384 487 384 457 367 c 128,-1,9
 427 350 427 350 381 350 c 2,10,-1
 225 350 l 1,11,-1
 225 275 l 1,12,-1
 382 275 l 2,13,14
 453 275 453 275 506.5 299.5 c 128,-1,15
 560 324 560 324 591 374 c 128,-1,16
 622 424 622 424 622 498 c 0,17,18
 622 607 622 607 557.5 658.5 c 128,-1,19
 493 710 493 710 382 710 c 2,20,-1
 58 710 l 1,21,-1
 58 634 l 1,22,-1
 69 634 l 2,23,24
 98 634 98 634 120 627 c 128,-1,25
 142 620 142 620 142 598 c 2,26,-1
 142 112 l 2,27,28
 142 90 142 90 120 83 c 128,-1,29
 98 76 98 76 69 76 c 2,30,-1
 58 76 l 1,31,-1
 58 0 l 1,32,-1
 352 0 l 1,33,-1
 352 76 l 1,34,-1
 333 76 l 2,35,36
 316 76 316 76 299.5 76.5 c 128,-1,37
 283 77 283 77 270.5 78.5 c 128,-1,38
 258 80 258 80 250 81.5 c 128,-1,39
 242 83 242 83 242 86 c 2,0,-1
EndSplineSet
EndChar

StartChar: Q
Encoding: 81 81 45
Width: 799
GlyphClass: 1
Flags: W
LayerCount: 2
Fore
SplineSet
358 -3 m 1,0,-1
 438 10 l 1,1,2
 440 -50 440 -50 454.5 -85 c 128,-1,3
 469 -120 469 -120 499 -135.5 c 128,-1,4
 529 -151 529 -151 578 -151 c 0,5,6
 609 -151 609 -151 636.5 -147 c 128,-1,7
 664 -143 664 -143 689 -136.5 c 128,-1,8
 714 -130 714 -130 736 -124 c 1,9,-1
 736 -224 l 1,10,11
 707 -230 707 -230 666 -234.5 c 128,-1,12
 625 -239 625 -239 586 -239 c 0,13,14
 508 -239 508 -239 457.5 -212 c 128,-1,15
 407 -185 407 -185 382.5 -132 c 128,-1,16
 358 -79 358 -79 358 -3 c 1,0,-1
399 -25 m 0,17,18
 323 -25 323 -25 261 0 c 128,-1,19
 199 25 199 25 153.5 73.5 c 128,-1,20
 108 122 108 122 84 192.5 c 128,-1,21
 60 263 60 263 60 355 c 0,22,23
 60 448 60 448 84 518.5 c 128,-1,24
 108 589 108 589 153.5 637.5 c 128,-1,25
 199 686 199 686 261 710.5 c 128,-1,26
 323 735 323 735 399 735 c 0,27,28
 476 735 476 735 538.5 710.5 c 128,-1,29
 601 686 601 686 645.5 637.5 c 128,-1,30
 690 589 690 589 714.5 518.5 c 128,-1,31
 739 448 739 448 739 355 c 0,32,33
 739 263 739 263 714.5 192.5 c 128,-1,34
 690 122 690 122 645.5 73.5 c 128,-1,35
 601 25 601 25 538.5 0 c 128,-1,36
 476 -25 476 -25 399 -25 c 0,17,18
399 53 m 0,37,38
 457 53 457 53 501.5 71 c 128,-1,39
 546 89 546 89 576 126.5 c 128,-1,40
 606 164 606 164 622.5 220.5 c 128,-1,41
 639 277 639 277 640 355 c 256,42,43
 641 433 641 433 625 489.5 c 128,-1,44
 609 546 609 546 578 583.5 c 128,-1,45
 547 621 547 621 502 639 c 128,-1,46
 457 657 457 657 399 657 c 0,47,48
 342 657 342 657 298.5 639 c 128,-1,49
 255 621 255 621 225.5 583.5 c 128,-1,50
 196 546 196 546 181 489.5 c 128,-1,51
 166 433 166 433 166 355 c 256,52,53
 166 277 166 277 181 220.5 c 128,-1,54
 196 164 196 164 225.5 126.5 c 128,-1,55
 255 89 255 89 298.5 71 c 128,-1,56
 342 53 342 53 399 53 c 0,37,38
EndSplineSet
EndChar

StartChar: R
Encoding: 82 82 46
Width: 744
GlyphClass: 2
Flags: W
AnchorPoint: "Anchor-1" 417 0 basechar 0
AnchorPoint: "Anchor-0" 417 741 basechar 0
LayerCount: 2
Fore
SplineSet
383 321 m 1,0,-1
 560 0 l 1,1,-1
 711 0 l 1,2,-1
 711 76 l 1,3,-1
 702 76 l 2,4,5
 680 76 680 76 662 80.5 c 128,-1,6
 644 85 644 85 628.5 98.5 c 128,-1,7
 613 112 613 112 598 137 c 2,8,-1
 467 364 l 1,9,-1
 383 321 l 1,0,-1
242 86 m 2,10,-1
 242 635 l 1,11,-1
 382 635 l 2,12,13
 431 635 431 635 462.5 620.5 c 128,-1,14
 494 606 494 606 509 578.5 c 128,-1,15
 524 551 524 551 524 508 c 0,16,17
 524 466 524 466 509 434 c 128,-1,18
 494 402 494 402 461.5 384 c 128,-1,19
 429 366 429 366 376 366 c 2,20,-1
 232 366 l 1,21,-1
 232 294 l 1,22,-1
 416 294 l 2,23,24
 420 294 420 294 423.5 296 c 128,-1,25
 427 298 427 298 431.5 302 c 128,-1,26
 436 306 436 306 443 311 c 0,27,28
 497 324 497 324 537 351 c 128,-1,29
 577 378 577 378 599.5 420.5 c 128,-1,30
 622 463 622 463 622 519 c 0,31,32
 622 582 622 582 593.5 624.5 c 128,-1,33
 565 667 565 667 512.5 688.5 c 128,-1,34
 460 710 460 710 384 710 c 2,35,-1
 58 710 l 1,36,-1
 58 634 l 1,37,-1
 69 634 l 2,38,39
 98 634 98 634 120 627 c 128,-1,40
 142 620 142 620 142 598 c 2,41,-1
 142 112 l 2,42,43
 142 90 142 90 120 83 c 128,-1,44
 98 76 98 76 69 76 c 2,45,-1
 58 76 l 1,46,-1
 58 0 l 1,47,-1
 352 0 l 1,48,-1
 352 76 l 1,49,-1
 333 76 l 2,50,51
 316 76 316 76 299.5 76.5 c 128,-1,52
 283 77 283 77 270 78.5 c 128,-1,53
 257 80 257 80 249.5 81.5 c 128,-1,54
 242 83 242 83 242 86 c 2,10,-1
EndSplineSet
EndChar

StartChar: S
Encoding: 83 83 47
Width: 646
GlyphClass: 2
Flags: W
AnchorPoint: "Anchor-1" 354 0 basechar 0
AnchorPoint: "Anchor-0" 354 741 basechar 0
LayerCount: 2
Fore
SplineSet
359 51 m 0,0,1
 410 51 410 51 441 62 c 128,-1,2
 472 73 472 73 486 99.5 c 128,-1,3
 500 126 500 126 500 172 c 0,4,5
 500 212 500 212 484 237 c 128,-1,6
 468 262 468 262 440 278 c 128,-1,7
 412 294 412 294 377 304 c 128,-1,8
 342 314 342 314 305 323 c 0,9,10
 259 335 259 335 218.5 348.5 c 128,-1,11
 178 362 178 362 147.5 384.5 c 128,-1,12
 117 407 117 407 99.5 445.5 c 128,-1,13
 82 484 82 484 82 545 c 0,14,15
 82 604 82 604 106.5 646.5 c 128,-1,16
 131 689 131 689 179 712 c 128,-1,17
 227 735 227 735 299 735 c 0,18,19
 359 735 359 735 401 715.5 c 128,-1,20
 443 696 443 696 466 652.5 c 128,-1,21
 489 609 489 609 491 538 c 1,22,-1
 473 586 l 1,23,-1
 486 720 l 1,24,-1
 559 720 l 1,25,-1
 559 501 l 1,26,-1
 483 501 l 1,27,28
 470 552 470 552 447 587.5 c 128,-1,29
 424 623 424 623 388.5 642 c 128,-1,30
 353 661 353 661 300 661 c 0,31,32
 253 661 253 661 225 648 c 128,-1,33
 197 635 197 635 185 610 c 128,-1,34
 173 585 173 585 173 549 c 0,35,36
 173 512 173 512 186 489.5 c 128,-1,37
 199 467 199 467 224 453.5 c 128,-1,38
 249 440 249 440 283 430.5 c 128,-1,39
 317 421 317 421 360 409 c 0,40,41
 402 398 402 398 444 384.5 c 128,-1,42
 486 371 486 371 520.5 347.5 c 128,-1,43
 555 324 555 324 575.5 286 c 128,-1,44
 596 248 596 248 596 189 c 0,45,46
 596 113 596 113 565.5 66 c 128,-1,47
 535 19 535 19 482 -3 c 128,-1,48
 429 -25 429 -25 360 -25 c 0,49,50
 293 -25 293 -25 242.5 -4 c 128,-1,51
 192 17 192 17 162.5 66.5 c 128,-1,52
 133 116 133 116 127 200 c 1,53,-1
 150 150 l 1,54,-1
 137 -9 l 1,55,-1
 65 -9 l 1,56,-1
 65 237 l 1,57,-1
 143 237 l 1,58,59
 156 172 156 172 183 131 c 128,-1,60
 210 90 210 90 253.5 70.5 c 128,-1,61
 297 51 297 51 359 51 c 0,0,1
EndSplineSet
EndChar

StartChar: Scaron
Encoding: 138 352 49
Width: 646
GlyphClass: 1
Flags: W
LayerCount: 2
Fore
SplineSet
294 805 m 1,0,-1
 367 805 l 1,1,-1
 497 961 l 1,2,-1
 497 981 l 1,3,-1
 447 981 l 1,4,-1
 266 838 l 1,5,-1
 400 843 l 1,6,-1
 224 981 l 1,7,-1
 163 981 l 1,8,-1
 163 961 l 1,9,-1
 294 805 l 1,0,-1
359 51 m 0,10,11
 410 51 410 51 441 62 c 128,-1,12
 472 73 472 73 486 99.5 c 128,-1,13
 500 126 500 126 500 172 c 0,14,15
 500 212 500 212 484 237 c 128,-1,16
 468 262 468 262 440 278 c 128,-1,17
 412 294 412 294 377 304 c 128,-1,18
 342 314 342 314 305 323 c 0,19,20
 259 335 259 335 218.5 348.5 c 128,-1,21
 178 362 178 362 147.5 384.5 c 128,-1,22
 117 407 117 407 99.5 445.5 c 128,-1,23
 82 484 82 484 82 545 c 0,24,25
 82 604 82 604 106.5 646.5 c 128,-1,26
 131 689 131 689 179 712 c 128,-1,27
 227 735 227 735 299 735 c 0,28,29
 359 735 359 735 401 715.5 c 128,-1,30
 443 696 443 696 466 652.5 c 128,-1,31
 489 609 489 609 491 538 c 1,32,-1
 473 586 l 1,33,-1
 486 720 l 1,34,-1
 559 720 l 1,35,-1
 559 501 l 1,36,-1
 483 501 l 1,37,38
 470 552 470 552 447 587.5 c 128,-1,39
 424 623 424 623 388.5 642 c 128,-1,40
 353 661 353 661 300 661 c 0,41,42
 253 661 253 661 225 648 c 128,-1,43
 197 635 197 635 185 610 c 128,-1,44
 173 585 173 585 173 549 c 0,45,46
 173 512 173 512 186 489.5 c 128,-1,47
 199 467 199 467 224 453.5 c 128,-1,48
 249 440 249 440 283 430.5 c 128,-1,49
 317 421 317 421 360 409 c 0,50,51
 402 398 402 398 444 384.5 c 128,-1,52
 486 371 486 371 520.5 347.5 c 128,-1,53
 555 324 555 324 575.5 286 c 128,-1,54
 596 248 596 248 596 189 c 0,55,56
 596 113 596 113 565.5 66 c 128,-1,57
 535 19 535 19 482 -3 c 128,-1,58
 429 -25 429 -25 360 -25 c 0,59,60
 293 -25 293 -25 242.5 -4 c 128,-1,61
 192 17 192 17 162.5 66.5 c 128,-1,62
 133 116 133 116 127 200 c 1,63,-1
 150 150 l 1,64,-1
 137 -9 l 1,65,-1
 65 -9 l 1,66,-1
 65 237 l 1,67,-1
 143 237 l 1,68,69
 156 172 156 172 183 131 c 128,-1,70
 210 90 210 90 253.5 70.5 c 128,-1,71
 297 51 297 51 359 51 c 0,10,11
EndSplineSet
EndChar

StartChar: T
Encoding: 84 84 50
Width: 713
GlyphClass: 2
Flags: W
AnchorPoint: "Anchor-1" 361 0 basechar 0
AnchorPoint: "Anchor-0" 361 741 basechar 0
LayerCount: 2
Fore
SplineSet
307 112 m 2,0,-1
 307 635 l 1,1,-1
 246 635 l 2,2,3
 203 635 203 635 180.5 628.5 c 128,-1,4
 158 622 158 622 149 609.5 c 128,-1,5
 140 597 140 597 138 577 c 2,6,-1
 126 471 l 1,7,-1
 53 471 l 1,8,-1
 53 710 l 1,9,-1
 661 710 l 1,10,-1
 661 471 l 1,11,-1
 587 471 l 1,12,-1
 576 577 l 2,13,14
 574 597 574 597 565 609.5 c 128,-1,15
 556 622 556 622 533 628.5 c 128,-1,16
 510 635 510 635 467 635 c 2,17,-1
 407 635 l 1,18,-1
 407 112 l 2,19,20
 407 90 407 90 432 83 c 128,-1,21
 457 76 457 76 489 76 c 2,22,-1
 508 76 l 1,23,-1
 508 0 l 1,24,-1
 205 0 l 1,25,-1
 205 76 l 1,26,-1
 224 76 l 2,27,28
 257 76 257 76 282 83 c 128,-1,29
 307 90 307 90 307 112 c 2,0,-1
EndSplineSet
EndChar

StartChar: U
Encoding: 85 85 51
Width: 803
GlyphClass: 2
Flags: W
AnchorPoint: "Anchor-2" 460 0 basechar 0
AnchorPoint: "Anchor-1" 406 0 basechar 0
AnchorPoint: "Anchor-0" 406 741 basechar 0
LayerCount: 2
Fore
SplineSet
234 258 m 2,0,1
 234 202 234 202 247.5 163.5 c 128,-1,2
 261 125 261 125 284.5 102 c 128,-1,3
 308 79 308 79 340.5 68.5 c 128,-1,4
 373 58 373 58 412 58 c 0,5,6
 450 58 450 58 482 68.5 c 128,-1,7
 514 79 514 79 537.5 102 c 128,-1,8
 561 125 561 125 573 163.5 c 128,-1,9
 585 202 585 202 585 258 c 2,10,-1
 585 615 l 2,11,12
 585 620 585 620 577.5 623.5 c 128,-1,13
 570 627 570 627 558.5 629 c 128,-1,14
 547 631 547 631 534 632.5 c 128,-1,15
 521 634 521 634 510 634 c 2,16,-1
 501 634 l 1,17,-1
 501 710 l 1,18,-1
 753 710 l 1,19,-1
 753 634 l 1,20,-1
 742 634 l 2,21,22
 723 634 723 634 706 630 c 128,-1,23
 689 626 689 626 679 616 c 128,-1,24
 669 606 669 606 669 589 c 2,25,-1
 669 247 l 2,26,27
 669 175 669 175 648 123 c 128,-1,28
 627 71 627 71 590 38 c 128,-1,29
 553 5 553 5 505.5 -10 c 128,-1,30
 458 -25 458 -25 405 -25 c 0,31,32
 348 -25 348 -25 298.5 -9.5 c 128,-1,33
 249 6 249 6 212 38.5 c 128,-1,34
 175 71 175 71 154.5 122.5 c 128,-1,35
 134 174 134 174 134 247 c 2,36,-1
 134 598 l 2,37,38
 134 620 134 620 112 627 c 128,-1,39
 90 634 90 634 60 634 c 2,40,-1
 49 634 l 1,41,-1
 49 710 l 1,42,-1
 326 710 l 1,43,-1
 326 635 l 1,44,-1
 317 635 l 2,45,46
 304 635 304 635 289 634 c 128,-1,47
 274 633 274 633 261.5 631.5 c 128,-1,48
 249 630 249 630 241.5 628.5 c 128,-1,49
 234 627 234 627 234 624 c 2,50,-1
 234 258 l 2,0,1
EndSplineSet
EndChar

StartChar: V
Encoding: 86 86 57
Width: 729
GlyphClass: 2
Flags: W
AnchorPoint: "Anchor-0" 360 741 basechar 0
LayerCount: 2
Fore
SplineSet
386 27 m 1,0,-1
 363 40 l 1,1,-1
 556 611 l 2,2,3
 556 618 556 618 546 623 c 128,-1,4
 536 628 536 628 518 631 c 128,-1,5
 500 634 500 634 477 634 c 2,6,-1
 465 634 l 1,7,-1
 465 710 l 1,8,-1
 709 710 l 1,9,-1
 709 634 l 1,10,-1
 703 634 l 2,11,12
 680 634 680 634 661 622 c 128,-1,13
 642 610 642 610 628 570 c 2,14,-1
 429 -12 l 1,15,-1
 303 -12 l 1,16,-1
 100 570 l 2,17,18
 87 610 87 610 68 622 c 128,-1,19
 49 634 49 634 25 634 c 2,20,-1
 20 634 l 1,21,-1
 20 710 l 1,22,-1
 282 710 l 1,23,-1
 282 634 l 1,24,-1
 270 634 l 2,25,26
 243 634 243 634 224 632.5 c 128,-1,27
 205 631 205 631 194.5 629 c 128,-1,28
 184 627 184 627 184 623 c 2,29,-1
 386 27 l 1,0,-1
EndSplineSet
EndChar

StartChar: W
Encoding: 87 87 58
Width: 1014
GlyphClass: 2
Flags: W
AnchorPoint: "Anchor-0" 521 741 basechar 0
LayerCount: 2
Fore
SplineSet
20 710 m 1,0,-1
 268 710 l 1,1,-1
 268 634 l 1,2,-1
 251 634 l 2,3,4
 239 634 239 634 222.5 632.5 c 128,-1,5
 206 631 206 631 194.5 629 c 128,-1,6
 183 627 183 627 183 623 c 2,7,-1
 329 47 l 1,8,-1
 290 47 l 1,9,-1
 464 710 l 1,10,-1
 574 710 l 1,11,-1
 747 50 l 1,12,-1
 711 50 l 1,13,-1
 854 610 l 2,14,15
 854 617 854 617 844 622.5 c 128,-1,16
 834 628 834 628 820 631 c 128,-1,17
 806 634 806 634 794 634 c 2,18,-1
 780 634 l 1,19,-1
 780 710 l 1,20,-1
 995 710 l 1,21,-1
 995 634 l 1,22,-1
 988 634 l 2,23,24
 967 634 967 634 950.5 623 c 128,-1,25
 934 612 934 612 927 588 c 2,26,-1
 776 -1 l 1,27,-1
 668 -1 l 1,28,-1
 491 656 l 1,29,-1
 528 657 l 1,30,-1
 358 -1 l 1,31,-1
 250 -1 l 1,32,-1
 89 598 l 2,33,34
 82 624 82 624 66.5 629 c 128,-1,35
 51 634 51 634 27 634 c 2,36,-1
 20 634 l 1,37,-1
 20 710 l 1,0,-1
EndSplineSet
EndChar

StartChar: X
Encoding: 88 88 59
Width: 744
GlyphClass: 2
Flags: W
AnchorPoint: "Anchor-1" 355 0 basechar 0
AnchorPoint: "Anchor-0" 378 741 basechar 0
LayerCount: 2
Fore
SplineSet
42 634 m 1,0,-1
 42 710 l 1,1,-1
 315 710 l 1,2,-1
 315 634 l 1,3,-1
 299 634 l 2,4,5
 281 634 281 634 265 633 c 128,-1,6
 249 632 249 632 238.5 630.5 c 128,-1,7
 228 629 228 629 228 625 c 2,8,-1
 405 391 l 1,9,-1
 415 388 l 1,10,-1
 623 110 l 2,11,12
 641 88 641 88 657.5 82 c 128,-1,13
 674 76 674 76 695 76 c 2,14,-1
 715 76 l 1,15,-1
 715 0 l 1,16,-1
 436 0 l 1,17,-1
 436 76 l 1,18,-1
 452 76 l 2,19,20
 470 76 470 76 486.5 77 c 128,-1,21
 503 78 503 78 513.5 80.5 c 128,-1,22
 524 83 524 83 524 85 c 2,23,-1
 334 339 l 1,24,-1
 324 342 l 1,25,-1
 129 600 l 2,26,27
 112 623 112 623 94.5 628.5 c 128,-1,28
 77 634 77 634 56 634 c 2,29,-1
 42 634 l 1,0,-1
29 0 m 1,30,-1
 29 76 l 1,31,-1
 48 76 l 2,32,33
 68 76 68 76 85 85.5 c 128,-1,34
 102 95 102 95 121 122 c 2,35,-1
 313 379 l 1,36,-1
 374 335 l 1,37,-1
 195 93 l 2,38,39
 195 89 195 89 206 85 c 128,-1,40
 217 81 217 81 232.5 78.5 c 128,-1,41
 248 76 248 76 262 76 c 2,42,-1
 280 76 l 1,43,-1
 280 0 l 1,44,-1
 29 0 l 1,30,-1
428 355 m 1,45,-1
 366 396 l 1,46,-1
 536 617 l 2,47,48
 536 623 536 623 524.5 626.5 c 128,-1,49
 513 630 513 630 497.5 632 c 128,-1,50
 482 634 482 634 467 634 c 2,51,-1
 453 634 l 1,52,-1
 453 710 l 1,53,-1
 700 710 l 1,54,-1
 700 634 l 1,55,-1
 686 634 l 2,56,57
 666 634 666 634 648.5 625.5 c 128,-1,58
 631 617 631 617 609 589 c 2,59,-1
 428 355 l 1,45,-1
EndSplineSet
EndChar

StartChar: Y
Encoding: 89 89 60
Width: 696
GlyphClass: 2
Flags: W
AnchorPoint: "Anchor-1" 352 0 basechar 0
AnchorPoint: "Anchor-0" 352 741 basechar 0
LayerCount: 2
Fore
SplineSet
301 306 m 1,0,-1
 308 263 l 1,1,-1
 105 598 l 2,2,3
 96 613 96 613 86.5 621 c 128,-1,4
 77 629 77 629 66 631.5 c 128,-1,5
 55 634 55 634 41 634 c 2,6,-1
 28 634 l 1,7,-1
 28 710 l 1,8,-1
 273 710 l 1,9,-1
 273 634 l 1,10,-1
 257 634 l 2,11,12
 242 634 242 634 227.5 632.5 c 128,-1,13
 213 631 213 631 203.5 629 c 128,-1,14
 194 627 194 627 194 623 c 2,15,-1
 381 306 l 1,16,-1
 342 306 l 1,17,-1
 513 611 l 2,18,19
 513 618 513 618 503 623 c 128,-1,20
 493 628 493 628 480 631 c 128,-1,21
 467 634 467 634 456 634 c 2,22,-1
 445 634 l 1,23,-1
 445 710 l 1,24,-1
 667 710 l 1,25,-1
 667 634 l 1,26,-1
 654 634 l 2,27,28
 642 634 642 634 630.5 629.5 c 128,-1,29
 619 625 619 625 607.5 614.5 c 128,-1,30
 596 604 596 604 585 586 c 2,31,-1
 394 263 l 1,32,-1
 401 306 l 1,33,-1
 401 112 l 2,34,35
 401 90 401 90 424.5 83 c 128,-1,36
 448 76 448 76 481 76 c 2,37,-1
 501 76 l 1,38,-1
 501 0 l 1,39,-1
 200 0 l 1,40,-1
 200 76 l 1,41,-1
 221 76 l 2,42,43
 255 76 255 76 278 83 c 128,-1,44
 301 90 301 90 301 112 c 2,45,-1
 301 306 l 1,0,-1
EndSplineSet
EndChar

StartChar: Z
Encoding: 90 90 63
Width: 661
GlyphClass: 2
Flags: W
AnchorPoint: "Anchor-1" 350 0 basechar 0
AnchorPoint: "Anchor-0" 350 741 basechar 0
LayerCount: 2
Fore
SplineSet
269 635 m 2,0,1
 238 635 238 635 218 633 c 128,-1,2
 198 631 198 631 187 626 c 128,-1,3
 176 621 176 621 171 612.5 c 128,-1,4
 166 604 166 604 164 590 c 2,5,-1
 151 504 l 1,6,-1
 77 504 l 1,7,-1
 77 710 l 1,8,-1
 584 710 l 1,9,-1
 584 628 l 1,10,-1
 134 21 l 1,11,-1
 117 75 l 1,12,-1
 404 75 l 2,13,14
 445 75 445 75 467 78.5 c 128,-1,15
 489 82 489 82 498 92 c 128,-1,16
 507 102 507 102 509 120 c 2,17,-1
 523 230 l 1,18,-1
 599 230 l 1,19,-1
 599 0 l 1,20,-1
 63 0 l 1,21,-1
 63 85 l 1,22,-1
 500 677 l 1,23,-1
 522 635 l 1,24,-1
 269 635 l 2,0,1
EndSplineSet
EndChar

StartChar: Zcaron
Encoding: 142 381 64
Width: 661
GlyphClass: 1
Flags: W
LayerCount: 2
Fore
SplineSet
289 805 m 1,0,-1
 362 805 l 1,1,-1
 492 961 l 1,2,-1
 492 981 l 1,3,-1
 442 981 l 1,4,-1
 261 838 l 1,5,-1
 395 843 l 1,6,-1
 218 981 l 1,7,-1
 158 981 l 1,8,-1
 158 961 l 1,9,-1
 289 805 l 1,0,-1
269 635 m 2,10,11
 238 635 238 635 218 633 c 128,-1,12
 198 631 198 631 187 626 c 128,-1,13
 176 621 176 621 171 612.5 c 128,-1,14
 166 604 166 604 164 590 c 2,15,-1
 151 504 l 1,16,-1
 77 504 l 1,17,-1
 77 710 l 1,18,-1
 584 710 l 1,19,-1
 584 628 l 1,20,-1
 134 21 l 1,21,-1
 117 75 l 1,22,-1
 404 75 l 2,23,24
 445 75 445 75 467 78.5 c 128,-1,25
 489 82 489 82 498 92 c 128,-1,26
 507 102 507 102 509 120 c 2,27,-1
 523 230 l 1,28,-1
 599 230 l 1,29,-1
 599 0 l 1,30,-1
 63 0 l 1,31,-1
 63 85 l 1,32,-1
 500 677 l 1,33,-1
 522 635 l 1,34,-1
 269 635 l 2,10,11
EndSplineSet
EndChar

StartChar: AE
Encoding: 198 198 65
Width: 1066
GlyphClass: 2
Flags: W
AnchorPoint: "Anchor-0" 658 741 basechar 0
LayerCount: 2
Fore
SplineSet
237 301 m 1,0,-1
 559 301 l 1,1,-1
 577 226 l 1,2,-1
 218 226 l 1,3,-1
 237 301 l 1,0,-1
602 401 m 1,4,5
 647 403 647 403 692.5 405 c 128,-1,6
 738 407 738 407 785 409.5 c 128,-1,7
 832 412 832 412 880 416 c 1,8,-1
 880 314 l 1,9,10
 834 316 834 316 787.5 318.5 c 128,-1,11
 741 321 741 321 695 324 c 128,-1,12
 649 327 649 327 602 329 c 1,13,-1
 602 401 l 1,4,5
435 0 m 1,14,-1
 435 76 l 1,15,-1
 442 76 l 2,16,17
 468 76 468 76 486 79 c 128,-1,18
 504 82 504 82 513 88 c 128,-1,19
 522 94 522 94 522 101 c 2,20,-1
 522 657 l 1,21,-1
 501 642 l 1,22,-1
 175 99 l 2,23,24
 175 93 175 93 182.5 87.5 c 128,-1,25
 190 82 190 82 206 79 c 128,-1,26
 222 76 222 76 249 76 c 2,27,-1
 259 76 l 1,28,-1
 259 0 l 1,29,-1
 5 0 l 1,30,-1
 5 76 l 1,31,-1
 11 76 l 2,32,33
 31 76 31 76 46.5 82.5 c 128,-1,34
 62 89 62 89 76 103 c 128,-1,35
 90 117 90 117 104 140 c 2,36,-1
 381 602 l 1,37,38
 381 617 381 617 375 623.5 c 128,-1,39
 369 630 369 630 355.5 632 c 128,-1,40
 342 634 342 634 318 634 c 2,41,-1
 307 634 l 1,42,-1
 307 710 l 1,43,-1
 976 710 l 1,44,-1
 976 509 l 1,45,-1
 902 509 l 1,46,-1
 890 590 l 2,47,48
 887 608 887 608 874.5 617.5 c 128,-1,49
 862 627 862 627 836.5 631 c 128,-1,50
 811 635 811 635 770 635 c 2,51,-1
 622 635 l 1,52,-1
 622 75 l 1,53,-1
 786 75 l 2,54,55
 817 75 817 75 839 77 c 128,-1,56
 861 79 861 79 875 84 c 128,-1,57
 889 89 889 89 896 98 c 128,-1,58
 903 107 903 107 905 120 c 2,59,-1
 919 226 l 1,60,-1
 995 226 l 1,61,-1
 995 0 l 1,62,-1
 435 0 l 1,14,-1
EndSplineSet
EndChar

StartChar: Eth
Encoding: 208 208 66
Width: 784
GlyphClass: 1
Flags: W
LayerCount: 2
Fore
SplineSet
48 398 m 1,0,-1
 443 398 l 1,1,-1
 443 323 l 1,2,-1
 48 323 l 1,3,-1
 48 398 l 1,0,-1
58 634 m 1,4,-1
 58 710 l 1,5,-1
 355 710 l 2,6,7
 442 710 442 710 511 688.5 c 128,-1,8
 580 667 580 667 627.5 623.5 c 128,-1,9
 675 580 675 580 699.5 514 c 128,-1,10
 724 448 724 448 724 359 c 0,11,12
 724 271 724 271 699.5 203.5 c 128,-1,13
 675 136 675 136 627.5 91 c 128,-1,14
 580 46 580 46 511 23 c 128,-1,15
 442 0 442 0 355 0 c 2,16,-1
 58 0 l 1,17,-1
 58 76 l 1,18,-1
 69 76 l 2,19,20
 98 76 98 76 120 83 c 128,-1,21
 142 90 142 90 142 112 c 2,22,-1
 142 598 l 2,23,24
 142 620 142 620 120 627 c 128,-1,25
 98 634 98 634 69 634 c 2,26,-1
 58 634 l 1,4,-1
354 635 m 2,27,-1
 242 635 l 1,28,-1
 242 75 l 1,29,-1
 354 75 l 2,30,31
 421 75 421 75 470.5 92.5 c 128,-1,32
 520 110 520 110 553 145 c 128,-1,33
 586 180 586 180 601.5 233.5 c 128,-1,34
 617 287 617 287 617 359 c 256,35,36
 617 431 617 431 601.5 483 c 128,-1,37
 586 535 586 535 553 568.5 c 128,-1,38
 520 602 520 602 470.5 618.5 c 128,-1,39
 421 635 421 635 354 635 c 2,27,-1
EndSplineSet
EndChar

StartChar: Oslash
Encoding: 216 216 67
Width: 799
GlyphClass: 2
Flags: W
AnchorPoint: "Anchor-0" 398 731 basechar 0
LayerCount: 2
Fore
SplineSet
399 657 m 0,0,1
 342 657 342 657 298.5 639 c 128,-1,2
 255 621 255 621 225.5 583.5 c 128,-1,3
 196 546 196 546 181 489 c 128,-1,4
 166 432 166 432 166 355 c 0,5,6
 166 272 166 272 181 214 c 128,-1,7
 196 156 196 156 225 120.5 c 128,-1,8
 254 85 254 85 298 69 c 128,-1,9
 342 53 342 53 399 53 c 0,10,11
 457 53 457 53 500.5 71 c 128,-1,12
 544 89 544 89 573 126.5 c 128,-1,13
 602 164 602 164 617 220.5 c 128,-1,14
 632 277 632 277 632 355 c 0,15,16
 632 438 632 438 617.5 496 c 128,-1,17
 603 554 603 554 574 589.5 c 128,-1,18
 545 625 545 625 501 641 c 128,-1,19
 457 657 457 657 399 657 c 0,0,1
399 -25 m 0,20,21
 323 -25 323 -25 260.5 1.5 c 128,-1,22
 198 28 198 28 153 78 c 128,-1,23
 108 128 108 128 84 198.5 c 128,-1,24
 60 269 60 269 60 355 c 0,25,26
 60 448 60 448 84.5 518.5 c 128,-1,27
 109 589 109 589 154 637.5 c 128,-1,28
 199 686 199 686 261.5 710.5 c 128,-1,29
 324 735 324 735 399 735 c 0,30,31
 476 735 476 735 538.5 708.5 c 128,-1,32
 601 682 601 682 645.5 632 c 128,-1,33
 690 582 690 582 714.5 512 c 128,-1,34
 739 442 739 442 739 355 c 0,35,36
 739 263 739 263 714.5 192 c 128,-1,37
 690 121 690 121 645.5 72.5 c 128,-1,38
 601 24 601 24 538.5 -0.5 c 128,-1,39
 476 -25 476 -25 399 -25 c 0,20,21
0 -24 m 1,40,-1
 709 734 l 1,41,-1
 799 734 l 1,42,-1
 89 -24 l 1,43,-1
 0 -24 l 1,40,-1
EndSplineSet
EndChar

StartChar: Thorn
Encoding: 222 222 68
Width: 701
GlyphClass: 1
Flags: W
LayerCount: 2
Fore
SplineSet
352 710 m 1,0,-1
 58 710 l 1,1,-1
 58 634 l 1,2,-1
 69 634 l 2,3,4
 104 634 104 634 123 627 c 128,-1,5
 142 620 142 620 142 598 c 2,6,-1
 142 112 l 2,7,8
 142 90 142 90 123 83 c 128,-1,9
 104 76 104 76 69 76 c 2,10,-1
 58 76 l 1,11,-1
 58 0 l 1,12,-1
 352 0 l 1,13,-1
 352 75 l 1,14,-1
 333 75 l 2,15,16
 316 75 316 75 299.5 76 c 128,-1,17
 283 77 283 77 270.5 78.5 c 128,-1,18
 258 80 258 80 250 81.5 c 128,-1,19
 242 83 242 83 242 85 c 2,20,-1
 242 625 l 2,21,22
 242 627 242 627 250 628.5 c 128,-1,23
 258 630 258 630 270.5 631.5 c 128,-1,24
 283 633 283 633 299.5 633.5 c 128,-1,25
 316 634 316 634 333 634 c 2,26,-1
 352 634 l 1,27,-1
 352 710 l 1,0,-1
643 367 m 0,28,29
 643 431 643 431 614 472.5 c 128,-1,30
 585 514 585 514 531.5 534 c 128,-1,31
 478 554 478 554 404 554 c 2,32,-1
 215 554 l 1,33,-1
 215 478 l 1,34,-1
 402 478 l 2,35,36
 450 478 450 478 480 466.5 c 128,-1,37
 510 455 510 455 523.5 430.5 c 128,-1,38
 537 406 537 406 537 366 c 256,39,40
 537 326 537 326 523.5 300 c 128,-1,41
 510 274 510 274 480 262 c 128,-1,42
 450 250 450 250 402 250 c 2,43,-1
 215 250 l 1,44,-1
 215 174 l 1,45,-1
 403 174 l 2,46,47
 474 174 474 174 528 196 c 128,-1,48
 582 218 582 218 612.5 261 c 128,-1,49
 643 304 643 304 643 367 c 0,28,29
EndSplineSet
EndChar

StartChar: OE
Encoding: 140 338 69
Width: 1078
GlyphClass: 1
Flags: W
LayerCount: 2
Fore
SplineSet
615 400 m 1,0,1
 661 403 661 403 707.5 405.5 c 128,-1,2
 754 408 754 408 800 410.5 c 128,-1,3
 846 413 846 413 892 415 c 1,4,-1
 892 315 l 1,5,6
 846 318 846 318 800 320.5 c 128,-1,7
 754 323 754 323 707.5 325.5 c 128,-1,8
 661 328 661 328 615 330 c 1,9,-1
 615 400 l 1,0,1
427 75 m 2,10,-1
 535 75 l 1,11,-1
 535 635 l 1,12,-1
 427 635 l 2,13,14
 361 635 361 635 312 618.5 c 128,-1,15
 263 602 263 602 231 568 c 128,-1,16
 199 534 199 534 182.5 480 c 128,-1,17
 166 426 166 426 166 351 c 256,18,19
 166 276 166 276 182.5 223.5 c 128,-1,20
 199 171 199 171 231 138.5 c 128,-1,21
 263 106 263 106 312 90.5 c 128,-1,22
 361 75 361 75 427 75 c 2,10,-1
426 0 m 2,23,24
 339 0 339 0 271 21.5 c 128,-1,25
 203 43 203 43 155.5 86.5 c 128,-1,26
 108 130 108 130 84 196 c 128,-1,27
 60 262 60 262 60 351 c 256,28,29
 60 440 60 440 84 507 c 128,-1,30
 108 574 108 574 155.5 619 c 128,-1,31
 203 664 203 664 271 687 c 128,-1,32
 339 710 339 710 426 710 c 2,33,-1
 988 710 l 1,34,-1
 988 509 l 1,35,-1
 914 509 l 1,36,-1
 902 590 l 2,37,38
 901 608 901 608 890.5 617.5 c 128,-1,39
 880 627 880 627 857 631 c 128,-1,40
 834 635 834 635 793 635 c 2,41,-1
 635 635 l 1,42,-1
 635 75 l 1,43,-1
 808 75 l 2,44,45
 839 75 839 75 859.5 77 c 128,-1,46
 880 79 880 79 892 84 c 128,-1,47
 904 89 904 89 910 98 c 128,-1,48
 916 107 916 107 917 120 c 2,49,-1
 931 226 l 1,50,-1
 1007 226 l 1,51,-1
 1007 0 l 1,52,-1
 426 0 l 2,23,24
EndSplineSet
EndChar

StartChar: Ereversedcyr
Encoding: 263 1069 70
Width: 779
GlyphClass: 2
Flags: W
AnchorPoint: "Anchor-1" 374 0 basechar 0
AnchorPoint: "Anchor-0" 374 741 basechar 0
LayerCount: 2
Fore
SplineSet
645 399 m 1,0,-1
 645 328 l 1,1,2
 601 326 601 326 557 324.5 c 128,-1,3
 513 323 513 323 469 321.5 c 128,-1,4
 425 320 425 320 380.5 318 c 128,-1,5
 336 316 336 316 292 314 c 1,6,-1
 292 414 l 1,7,8
 336 412 336 412 380 410 c 128,-1,9
 424 408 424 408 468 406.5 c 128,-1,10
 512 405 512 405 556.5 403 c 128,-1,11
 601 401 601 401 645 399 c 1,0,-1
399 -25 m 256,12,13
 330 -25 330 -25 278 0.5 c 128,-1,14
 226 26 226 26 195.5 76.5 c 128,-1,15
 165 127 165 127 158 203 c 1,16,-1
 177 163 l 1,17,-1
 164 -10 l 1,18,-1
 88 -10 l 1,19,-1
 88 241 l 1,20,-1
 171 241 l 1,21,22
 187 184 187 184 217 141.5 c 128,-1,23
 247 99 247 99 292 75.5 c 128,-1,24
 337 52 337 52 397 52 c 0,25,26
 452 52 452 52 492 70 c 128,-1,27
 532 88 532 88 559 124.5 c 128,-1,28
 586 161 586 161 599 218.5 c 128,-1,29
 612 276 612 276 612 355 c 0,30,31
 612 435 612 435 596.5 492 c 128,-1,32
 581 549 581 549 553 586 c 128,-1,33
 525 623 525 623 486 640.5 c 128,-1,34
 447 658 447 658 400 658 c 0,35,36
 338 658 338 658 292 634.5 c 128,-1,37
 246 611 246 611 216 569 c 128,-1,38
 186 527 186 527 171 469 c 1,39,-1
 88 469 l 1,40,-1
 88 720 l 1,41,-1
 164 720 l 1,42,-1
 177 547 l 1,43,-1
 158 507 l 1,44,45
 165 583 165 583 196.5 633 c 128,-1,46
 228 683 228 683 280 709 c 128,-1,47
 332 735 332 735 399 735 c 0,48,49
 469 735 469 735 527 711.5 c 128,-1,50
 585 688 585 688 628 640.5 c 128,-1,51
 671 593 671 593 695 522 c 128,-1,52
 719 451 719 451 719 355 c 0,53,54
 719 264 719 264 695 193.5 c 128,-1,55
 671 123 671 123 628 74.5 c 128,-1,56
 585 26 585 26 526.5 0.5 c 128,-1,57
 468 -25 468 -25 399 -25 c 256,12,13
EndSplineSet
Substitution2: "'ss01' Style Set 1 lookup 61 subtable" Ecyr.alt1
EndChar

StartChar: Yucyr
Encoding: 264 1070 71
Width: 1100
GlyphClass: 2
Flags: W
AnchorPoint: "Anchor-1" 572 0 basechar 0
AnchorPoint: "Anchor-0" 572 741 basechar 0
LayerCount: 2
Fore
SplineSet
209 404 m 1,0,-1
 421 404 l 1,1,-1
 421 328 l 1,2,-1
 209 328 l 1,3,-1
 209 404 l 1,0,-1
58 0 m 1,4,-1
 58 76 l 1,5,-1
 69 76 l 2,6,7
 98 76 98 76 120 83 c 128,-1,8
 142 90 142 90 142 112 c 2,9,-1
 142 598 l 2,10,11
 142 620 142 620 120 627 c 128,-1,12
 98 634 98 634 69 634 c 2,13,-1
 58 634 l 1,14,-1
 58 710 l 1,15,-1
 334 710 l 1,16,-1
 334 635 l 1,17,-1
 325 635 l 2,18,19
 312 635 312 635 297 634 c 128,-1,20
 282 633 282 633 270 631.5 c 128,-1,21
 258 630 258 630 250 628.5 c 128,-1,22
 242 627 242 627 242 625 c 2,23,-1
 242 85 l 2,24,25
 242 82 242 82 250 81 c 128,-1,26
 258 80 258 80 270 78.5 c 128,-1,27
 282 77 282 77 297 76.5 c 128,-1,28
 312 76 312 76 325 76 c 2,29,-1
 334 76 l 1,30,-1
 334 0 l 1,31,-1
 58 0 l 1,4,-1
711 -25 m 256,32,33
 637 -25 637 -25 576.5 0 c 128,-1,34
 516 25 516 25 471.5 73.5 c 128,-1,35
 427 122 427 122 403.5 192.5 c 128,-1,36
 380 263 380 263 380 356 c 0,37,38
 380 448 380 448 403.5 518.5 c 128,-1,39
 427 589 427 589 471.5 637.5 c 128,-1,40
 516 686 516 686 576.5 710.5 c 128,-1,41
 637 735 637 735 711 735 c 256,42,43
 785 735 785 735 845.5 710.5 c 128,-1,44
 906 686 906 686 950 637.5 c 128,-1,45
 994 589 994 589 1017.5 518.5 c 128,-1,46
 1041 448 1041 448 1041 356 c 0,47,48
 1041 263 1041 263 1017.5 192.5 c 128,-1,49
 994 122 994 122 950 73.5 c 128,-1,50
 906 25 906 25 845.5 0 c 128,-1,51
 785 -25 785 -25 711 -25 c 256,32,33
711 53 m 256,52,53
 766 53 766 53 807.5 71 c 128,-1,54
 849 89 849 89 877 126.5 c 128,-1,55
 905 164 905 164 919.5 220.5 c 128,-1,56
 934 277 934 277 934 355 c 256,57,58
 934 433 934 433 919.5 489.5 c 128,-1,59
 905 546 905 546 877 583.5 c 128,-1,60
 849 621 849 621 807.5 639 c 128,-1,61
 766 657 766 657 711 657 c 0,62,63
 655 657 655 657 613 639 c 128,-1,64
 571 621 571 621 543.5 583.5 c 128,-1,65
 516 546 516 546 501.5 489.5 c 128,-1,66
 487 433 487 433 487 355 c 256,67,68
 487 277 487 277 501.5 220.5 c 128,-1,69
 516 164 516 164 544 126.5 c 128,-1,70
 572 89 572 89 614 71 c 128,-1,71
 656 53 656 53 711 53 c 256,52,53
EndSplineSet
EndChar

StartChar: Yacyr
Encoding: 265 1071 72
Width: 742
GlyphClass: 2
Flags: W
AnchorPoint: "Anchor-1" 371 0 basechar 0
AnchorPoint: "Anchor-0" 408 741 basechar 0
LayerCount: 2
Fore
SplineSet
357 321 m 1,0,-1
 180 0 l 1,1,-1
 33 0 l 1,2,-1
 33 76 l 1,3,-1
 43 76 l 2,4,5
 65 76 65 76 83.5 80.5 c 128,-1,6
 102 85 102 85 117.5 98.5 c 128,-1,7
 133 112 133 112 148 137 c 2,8,-1
 277 364 l 1,9,-1
 357 321 l 1,0,-1
500 86 m 2,10,-1
 500 635 l 1,11,-1
 362 635 l 2,12,13
 315 635 315 635 283 619.5 c 128,-1,14
 251 604 251 604 235 575.5 c 128,-1,15
 219 547 219 547 219 505 c 0,16,17
 219 462 219 462 234.5 431 c 128,-1,18
 250 400 250 400 282.5 383 c 128,-1,19
 315 366 315 366 366 366 c 2,20,-1
 510 366 l 1,21,-1
 510 291 l 1,22,-1
 326 291 l 1,23,-1
 301 299 l 1,24,25
 247 307 247 307 206 333.5 c 128,-1,26
 165 360 165 360 142 403.5 c 128,-1,27
 119 447 119 447 119 505 c 0,28,29
 119 571 119 571 147.5 616.5 c 128,-1,30
 176 662 176 662 229.5 686 c 128,-1,31
 283 710 283 710 358 710 c 2,32,-1
 684 710 l 1,33,-1
 684 634 l 1,34,-1
 673 634 l 2,35,36
 644 634 644 634 622 627 c 128,-1,37
 600 620 600 620 600 598 c 2,38,-1
 600 112 l 2,39,40
 600 90 600 90 622 83 c 128,-1,41
 644 76 644 76 673 76 c 2,42,-1
 684 76 l 1,43,-1
 684 0 l 1,44,-1
 390 0 l 1,45,-1
 390 76 l 1,46,-1
 409 76 l 2,47,48
 426 76 426 76 442.5 76.5 c 128,-1,49
 459 77 459 77 471.5 78.5 c 128,-1,50
 484 80 484 80 492 81.5 c 128,-1,51
 500 83 500 83 500 86 c 2,10,-1
EndSplineSet
EndChar

StartChar: a
Encoding: 97 97 73
Width: 601
GlyphClass: 2
Flags: W
AnchorPoint: "Anchor-2" 452 -10 basechar 0
AnchorPoint: "Anchor-1" 310 0 basechar 0
AnchorPoint: "Anchor-0" 279 565 basechar 0
LayerCount: 2
Fore
SplineSet
412 346 m 1,0,-1
 412 283 l 1,1,2
 345 272 345 272 299.5 261 c 128,-1,3
 254 250 254 250 226 237 c 128,-1,4
 198 224 198 224 184 209.5 c 128,-1,5
 170 195 170 195 165 177.5 c 128,-1,6
 160 160 160 160 160 138 c 0,7,8
 160 107 160 107 170.5 90 c 128,-1,9
 181 73 181 73 199.5 66 c 128,-1,10
 218 59 218 59 242 59 c 0,11,12
 270 59 270 59 296 71.5 c 128,-1,13
 322 84 322 84 350 112 c 128,-1,14
 378 140 378 140 410 188 c 1,15,-1
 412 126 l 1,16,17
 389 83 389 83 361.5 52 c 128,-1,18
 334 21 334 21 301.5 4.5 c 128,-1,19
 269 -12 269 -12 229 -12 c 0,20,21
 177 -12 177 -12 139.5 4.5 c 128,-1,22
 102 21 102 21 83 54.5 c 128,-1,23
 64 88 64 88 64 138 c 0,24,25
 64 181 64 181 80 212.5 c 128,-1,26
 96 244 96 244 135 268 c 128,-1,27
 174 292 174 292 241.5 311.5 c 128,-1,28
 309 331 309 331 412 346 c 1,0,-1
426 0 m 1,29,-1
 402 122 l 1,30,-1
 402 131 l 1,31,-1
 402 410 l 2,32,33
 402 440 402 440 394 459.5 c 128,-1,34
 386 479 386 479 362.5 489 c 128,-1,35
 339 499 339 499 291 499 c 0,36,37
 226 499 226 499 182 485.5 c 128,-1,38
 138 472 138 472 121 460 c 1,39,40
 122 465 122 465 127.5 474.5 c 128,-1,41
 133 484 133 484 142 493.5 c 128,-1,42
 151 503 151 503 163 509.5 c 128,-1,43
 175 516 175 516 189 515 c 1,44,-1
 189 387 l 1,45,-1
 93 387 l 1,46,-1
 93 527 l 1,47,48
 107 537 107 537 134 548 c 128,-1,49
 161 559 161 559 201 567 c 128,-1,50
 241 575 241 575 294 575 c 0,51,52
 339 575 339 575 376.5 567 c 128,-1,53
 414 559 414 559 441 542 c 128,-1,54
 468 525 468 525 483 498 c 128,-1,55
 498 471 498 471 498 432 c 2,56,-1
 498 123 l 2,57,58
 498 108 498 108 505 98.5 c 128,-1,59
 512 89 512 89 527.5 83.5 c 128,-1,60
 543 78 543 78 568 72 c 2,61,-1
 577 70 l 1,62,-1
 577 0 l 1,63,-1
 426 0 l 1,29,-1
EndSplineSet
Substitution2: "'ss06' Style Set 6 lookup 66 subtable" a.alt
EndChar

StartChar: b
Encoding: 98 98 80
Width: 668
GlyphClass: 2
Flags: W
AnchorPoint: "Anchor-1" 349 0 basechar 0
AnchorPoint: "Anchor-0" 329 755 basechar 0
LayerCount: 2
Fore
SplineSet
376 -13 m 0,0,1
 331 -13 331 -13 294.5 4.5 c 128,-1,2
 258 22 258 22 228.5 54 c 128,-1,3
 199 86 199 86 175 130 c 1,4,-1
 181 187 l 1,5,6
 209 147 209 147 237 120 c 128,-1,7
 265 93 265 93 297.5 80 c 128,-1,8
 330 67 330 67 369 67 c 0,9,10
 406 67 406 67 434 80 c 128,-1,11
 462 93 462 93 481 120 c 128,-1,12
 500 147 500 147 510 188 c 128,-1,13
 520 229 520 229 520 285 c 0,14,15
 520 339 520 339 511 378.5 c 128,-1,16
 502 418 502 418 484.5 444 c 128,-1,17
 467 470 467 470 440 482.5 c 128,-1,18
 413 495 413 495 376 495 c 0,19,20
 335 495 335 495 301 483 c 128,-1,21
 267 471 267 471 237.5 445 c 128,-1,22
 208 419 208 419 178 377 c 1,23,-1
 175 431 l 1,24,25
 200 476 200 476 230.5 508 c 128,-1,26
 261 540 261 540 299.5 557.5 c 128,-1,27
 338 575 338 575 387 575 c 0,28,29
 465 575 465 575 517 538 c 128,-1,30
 569 501 569 501 594.5 436 c 128,-1,31
 620 371 620 371 620 285 c 0,32,33
 620 200 620 200 592 132.5 c 128,-1,34
 564 65 564 65 509.5 26 c 128,-1,35
 455 -13 455 -13 376 -13 c 0,0,1
99 661 m 2,36,37
 99 676 99 676 91 684 c 128,-1,38
 83 692 83 692 67 697 c 128,-1,39
 51 702 51 702 29 706 c 2,40,-1
 20 708 l 1,41,-1
 20 780 l 1,42,-1
 195 780 l 1,43,-1
 195 121 l 1,44,-1
 195 121 l 1,45,-1
 166 -19 l 1,46,-1
 99 -19 l 1,47,-1
 99 661 l 2,36,37
EndSplineSet
EndChar

StartChar: c
Encoding: 99 99 81
Width: 572
GlyphClass: 2
Flags: W
AnchorPoint: "Anchor-1" 316 0 basechar 0
AnchorPoint: "Anchor-0" 306 565 basechar 0
LayerCount: 2
Fore
SplineSet
322 64 m 0,0,1
 362 64 362 64 390 74.5 c 128,-1,2
 418 85 418 85 438 105 c 128,-1,3
 458 125 458 125 474 154 c 1,4,-1
 531 112 l 1,5,6
 514 74 514 74 482 45.5 c 128,-1,7
 450 17 450 17 409 2 c 128,-1,8
 368 -13 368 -13 321 -13 c 0,9,10
 234 -13 234 -13 173 22 c 128,-1,11
 112 57 112 57 80 123 c 128,-1,12
 48 189 48 189 48 282 c 256,13,14
 48 375 48 375 80 440.5 c 128,-1,15
 112 506 112 506 173 540.5 c 128,-1,16
 234 575 234 575 321 575 c 0,17,18
 373 575 373 575 412 569 c 128,-1,19
 451 563 451 563 476 555 c 128,-1,20
 501 547 501 547 511 541 c 1,21,-1
 511 365 l 1,22,-1
 411 365 l 1,23,-1
 411 508 l 1,24,25
 420 508 420 508 430 503 c 128,-1,26
 440 498 440 498 448 490.5 c 128,-1,27
 456 483 456 483 461 476.5 c 128,-1,28
 466 470 466 470 467 467 c 1,29,30
 443 479 443 479 406.5 488.5 c 128,-1,31
 370 498 370 498 322 498 c 0,32,33
 260 498 260 498 222 473.5 c 128,-1,34
 184 449 184 449 166.5 401.5 c 128,-1,35
 149 354 149 354 149 282 c 0,36,37
 149 225 149 225 158.5 183.5 c 128,-1,38
 168 142 168 142 188 115.5 c 128,-1,39
 208 89 208 89 241 76.5 c 128,-1,40
 274 64 274 64 322 64 c 0,0,1
EndSplineSet
EndChar

StartChar: d
Encoding: 100 100 84
Width: 677
GlyphClass: 2
Flags: W
AnchorPoint: "Anchor-2" 642 735 basechar 0
AnchorPoint: "Anchor-1" 316 0 basechar 0
LayerCount: 2
Fore
SplineSet
569 117 m 2,0,1
 569 95 569 95 588 87.5 c 128,-1,2
 607 80 607 80 639 72 c 2,3,-1
 648 70 l 1,4,-1
 648 0 l 1,5,-1
 502 0 l 1,6,-1
 479 126 l 1,7,-1
 473 121 l 1,8,-1
 473 661 l 2,9,10
 473 676 473 676 464.5 683.5 c 128,-1,11
 456 691 456 691 439 696 c 128,-1,12
 422 701 422 701 396 706 c 2,13,-1
 386 708 l 1,14,-1
 386 780 l 1,15,-1
 569 780 l 1,16,-1
 569 117 l 2,0,1
292 575 m 0,17,18
 338 575 338 575 374 557.5 c 128,-1,19
 410 540 410 540 439.5 508.5 c 128,-1,20
 469 477 469 477 493 432 c 1,21,-1
 487 375 l 1,22,23
 460 416 460 416 431.5 442.5 c 128,-1,24
 403 469 403 469 371 482 c 128,-1,25
 339 495 339 495 300 495 c 0,26,27
 263 495 263 495 234.5 482 c 128,-1,28
 206 469 206 469 187 442 c 128,-1,29
 168 415 168 415 158.5 374 c 128,-1,30
 149 333 149 333 149 277 c 0,31,32
 149 224 149 224 157.5 184 c 128,-1,33
 166 144 166 144 183.5 118 c 128,-1,34
 201 92 201 92 228.5 79.5 c 128,-1,35
 256 67 256 67 292 67 c 0,36,37
 334 67 334 67 367.5 79 c 128,-1,38
 401 91 401 91 431 117.5 c 128,-1,39
 461 144 461 144 490 185 c 1,40,-1
 493 131 l 1,41,42
 468 87 468 87 438 54.5 c 128,-1,43
 408 22 408 22 369 4.5 c 128,-1,44
 330 -13 330 -13 281 -13 c 0,45,46
 204 -13 204 -13 152 24 c 128,-1,47
 100 61 100 61 74 126.5 c 128,-1,48
 48 192 48 192 48 277 c 0,49,50
 48 363 48 363 76 430 c 128,-1,51
 104 497 104 497 158.5 536 c 128,-1,52
 213 575 213 575 292 575 c 0,17,18
EndSplineSet
EndChar

StartChar: e
Encoding: 101 101 85
Width: 580
GlyphClass: 2
Flags: W
AnchorPoint: "Anchor-2" 459 1 basechar 0
AnchorPoint: "Anchor-1" 319 0 basechar 0
AnchorPoint: "Anchor-0" 296 565 basechar 0
LayerCount: 2
Fore
SplineSet
145 276 m 0,0,1
 145 212 145 212 159 171 c 128,-1,2
 173 130 173 130 197.5 106.5 c 128,-1,3
 222 83 222 83 253.5 73.5 c 128,-1,4
 285 64 285 64 321 64 c 0,5,6
 362 64 362 64 390 75.5 c 128,-1,7
 418 87 418 87 439 107.5 c 128,-1,8
 460 128 460 128 477 156 c 1,9,-1
 535 115 l 1,10,11
 517 77 517 77 484 48 c 128,-1,12
 451 19 451 19 408.5 3 c 128,-1,13
 366 -13 366 -13 316 -13 c 0,14,15
 241 -13 241 -13 180 19 c 128,-1,16
 119 51 119 51 83.5 115.5 c 128,-1,17
 48 180 48 180 48 276 c 0,18,19
 48 368 48 368 79.5 435 c 128,-1,20
 111 502 111 502 167.5 538.5 c 128,-1,21
 224 575 224 575 301 575 c 0,22,23
 360 575 360 575 403.5 555 c 128,-1,24
 447 535 447 535 475 494.5 c 128,-1,25
 503 454 503 454 517.5 392.5 c 128,-1,26
 532 331 532 331 532 248 c 1,27,-1
 109 248 l 1,28,-1
 109 322 l 1,29,-1
 460 322 l 1,30,-1
 436 293 l 1,31,32
 434 352 434 352 425.5 391.5 c 128,-1,33
 417 431 417 431 401.5 454.5 c 128,-1,34
 386 478 386 478 361 488 c 128,-1,35
 336 498 336 498 301 498 c 0,36,37
 265 498 265 498 236 485.5 c 128,-1,38
 207 473 207 473 187 446.5 c 128,-1,39
 167 420 167 420 156 378 c 128,-1,40
 145 336 145 336 145 276 c 0,0,1
EndSplineSet
EndChar

StartChar: f
Encoding: 102 102 90
Width: 448
GlyphClass: 2
Flags: W
AnchorPoint: "Anchor-0" 289 755 basechar 0
LayerCount: 2
Fore
SplineSet
46 565 m 1,0,-1
 409 565 l 1,1,-1
 409 489 l 1,2,-1
 46 489 l 1,3,-1
 46 565 l 1,0,-1
462 780 m 1,4,-1
 462 696 l 1,5,6
 447 699 447 699 419 703 c 128,-1,7
 391 707 391 707 355 707 c 0,8,9
 320 707 320 707 295.5 698.5 c 128,-1,10
 271 690 271 690 259 670.5 c 128,-1,11
 247 651 247 651 247 619 c 2,12,-1
 247 74 l 2,13,14
 247 71 247 71 262.5 68.5 c 128,-1,15
 278 66 278 66 298 65 c 128,-1,16
 318 64 318 64 332 64 c 2,17,-1
 366 64 l 1,18,-1
 366 0 l 1,19,-1
 46 0 l 1,20,-1
 46 64 l 1,21,-1
 70 64 l 2,22,23
 108 64 108 64 130 79.5 c 128,-1,24
 152 95 152 95 152 140 c 2,25,-1
 152 629 l 2,26,27
 152 694 152 694 178.5 728.5 c 128,-1,28
 205 763 205 763 250.5 776.5 c 128,-1,29
 296 790 296 790 349 790 c 0,30,31
 388 790 388 790 419.5 786.5 c 128,-1,32
 451 783 451 783 462 780 c 1,4,-1
EndSplineSet
Substitution2: "'ss04' Style Set 4 lookup 64 subtable" f.alt
EndChar

StartChar: g
Encoding: 103 103 91
Width: 673
GlyphClass: 2
Flags: W
AnchorPoint: "Anchor-0" 322 565 basechar 0
LayerCount: 2
Fore
SplineSet
649 504 m 1,0,1
 605 504 605 504 572 501 c 128,-1,2
 539 498 539 498 516 493.5 c 128,-1,3
 493 489 493 489 476 481 c 1,4,-1
 459 492 l 1,5,6
 472 526 472 526 488.5 551 c 128,-1,7
 505 576 505 576 527 590.5 c 128,-1,8
 549 605 549 605 579 611 c 128,-1,9
 609 617 609 617 649 614 c 1,10,-1
 649 504 l 1,0,1
314 175 m 0,11,12
 250 175 250 175 202 199.5 c 128,-1,13
 154 224 154 224 127 269 c 128,-1,14
 100 314 100 314 100 374 c 256,15,16
 100 434 100 434 127 479.5 c 128,-1,17
 154 525 154 525 202.5 550.5 c 128,-1,18
 251 576 251 576 314 576 c 0,19,20
 378 576 378 576 426.5 550.5 c 128,-1,21
 475 525 475 525 501.5 479.5 c 128,-1,22
 528 434 528 434 528 374 c 256,23,24
 528 314 528 314 501.5 269 c 128,-1,25
 475 224 475 224 427 199.5 c 128,-1,26
 379 175 379 175 314 175 c 0,11,12
314 238 m 0,27,28
 358 238 358 238 384 254 c 128,-1,29
 410 270 410 270 421 301 c 128,-1,30
 432 332 432 332 432 374 c 0,31,32
 432 418 432 418 421 449 c 128,-1,33
 410 480 410 480 384 496.5 c 128,-1,34
 358 513 358 513 314 513 c 0,35,36
 272 513 272 513 246 496.5 c 128,-1,37
 220 480 220 480 208.5 449 c 128,-1,38
 197 418 197 418 197 374 c 0,39,40
 197 332 197 332 208.5 301 c 128,-1,41
 220 270 220 270 246 254 c 128,-1,42
 272 238 272 238 314 238 c 0,27,28
240 -252 m 2,43,44
 179 -252 179 -252 133.5 -240 c 128,-1,45
 88 -228 88 -228 63.5 -202 c 128,-1,46
 39 -176 39 -176 39 -136 c 0,47,48
 39 -101 39 -101 53.5 -76 c 128,-1,49
 68 -51 68 -51 98 -30 c 128,-1,50
 128 -9 128 -9 171 13 c 1,51,-1
 197 3 l 1,52,53
 171 -19 171 -19 157.5 -38 c 128,-1,54
 144 -57 144 -57 138.5 -74.5 c 128,-1,55
 133 -92 133 -92 133 -112 c 256,56,57
 133 -132 133 -132 143 -147.5 c 128,-1,58
 153 -163 153 -163 179.5 -172 c 128,-1,59
 206 -181 206 -181 256 -181 c 2,60,-1
 368 -181 l 2,61,62
 422 -181 422 -181 455 -170.5 c 128,-1,63
 488 -160 488 -160 503.5 -137.5 c 128,-1,64
 519 -115 519 -115 519 -80 c 0,65,66
 519 -54 519 -54 504 -38 c 128,-1,67
 489 -22 489 -22 452 -22 c 2,68,-1
 229 -22 l 1,69,-1
 228 -22 l 2,70,71
 178 -22 178 -22 143 -9.5 c 128,-1,72
 108 3 108 3 90.5 26.5 c 128,-1,73
 73 50 73 50 73 82 c 0,74,75
 73 111 73 111 87.5 135.5 c 128,-1,76
 102 160 102 160 129 180 c 128,-1,77
 156 200 156 200 190 217 c 1,78,-1
 224 207 l 1,79,80
 203 187 203 187 190.5 172.5 c 128,-1,81
 178 158 178 158 172.5 145.5 c 128,-1,82
 167 133 167 133 167 118 c 0,83,84
 167 93 167 93 181.5 81.5 c 128,-1,85
 196 70 196 70 235 70 c 2,86,-1
 453 70 l 2,87,88
 503 70 503 70 538.5 55.5 c 128,-1,89
 574 41 574 41 593 9.5 c 128,-1,90
 612 -22 612 -22 612 -72 c 0,91,92
 612 -133 612 -133 580.5 -173 c 128,-1,93
 549 -213 549 -213 495.5 -232.5 c 128,-1,94
 442 -252 442 -252 376 -252 c 2,95,-1
 240 -252 l 2,43,44
EndSplineSet
Substitution2: "'ss02' Style Set 2 lookup 62 subtable" g.alt
EndChar

StartChar: h
Encoding: 104 104 93
Width: 682
GlyphClass: 2
Flags: W
AnchorPoint: "Anchor-1" 348 0 basechar 0
AnchorPoint: "Anchor-0" 358 755 basechar 0
LayerCount: 2
Fore
SplineSet
219 780 m 1,0,-1
 219 74 l 2,1,2
 219 71 219 71 230.5 68.5 c 128,-1,3
 242 66 242 66 258.5 65 c 128,-1,4
 275 64 275 64 288 64 c 2,5,-1
 293 64 l 1,6,-1
 293 0 l 1,7,-1
 44 0 l 1,8,-1
 44 64 l 1,9,-1
 48 64 l 2,10,11
 71 64 71 64 88 70.5 c 128,-1,12
 105 77 105 77 114 93.5 c 128,-1,13
 123 110 123 110 123 140 c 2,14,-1
 123 661 l 2,15,16
 123 676 123 676 115 683.5 c 128,-1,17
 107 691 107 691 91.5 696 c 128,-1,18
 76 701 76 701 54 706 c 2,19,-1
 44 708 l 1,20,-1
 44 780 l 1,21,-1
 219 780 l 1,0,-1
653 0 m 1,22,-1
 404 0 l 1,23,-1
 404 64 l 1,24,-1
 409 64 l 2,25,26
 423 64 423 64 439 65 c 128,-1,27
 455 66 455 66 466.5 68.5 c 128,-1,28
 478 71 478 71 478 74 c 2,29,-1
 478 427 l 2,30,31
 478 446 478 446 469.5 460.5 c 128,-1,32
 461 475 461 475 442.5 483.5 c 128,-1,33
 424 492 424 492 392 492 c 0,34,35
 362 492 362 492 330 479.5 c 128,-1,36
 298 467 298 467 266 440.5 c 128,-1,37
 234 414 234 414 200 372 c 1,38,-1
 200 426 l 1,39,40
 230 474 230 474 265 507.5 c 128,-1,41
 300 541 300 541 342 558.5 c 128,-1,42
 384 576 384 576 432 576 c 0,43,44
 479 576 479 576 510.5 560 c 128,-1,45
 542 544 542 544 558 513.5 c 128,-1,46
 574 483 574 483 574 439 c 2,47,-1
 574 140 l 2,48,49
 574 110 574 110 581.5 93.5 c 128,-1,50
 589 77 589 77 605.5 70.5 c 128,-1,51
 622 64 622 64 649 64 c 2,52,-1
 653 64 l 1,53,-1
 653 0 l 1,22,-1
EndSplineSet
EndChar

StartChar: i
Encoding: 105 105 94
Width: 340
GlyphClass: 2
Flags: W
AnchorPoint: "Anchor-2" 229 -10 basechar 0
AnchorPoint: "Anchor-1" 178 -10 basechar 0
AnchorPoint: "Anchor-0" 180 565 basechar 0
LayerCount: 2
Fore
SplineSet
166 668 m 0,0,1
 130 668 130 668 110.5 687 c 128,-1,2
 91 706 91 706 91 742 c 0,3,4
 91 776 91 776 110.5 795 c 128,-1,5
 130 814 130 814 166 814 c 0,6,7
 201 814 201 814 221 795 c 128,-1,8
 241 776 241 776 241 742 c 0,9,10
 241 706 241 706 221 687 c 128,-1,11
 201 668 201 668 166 668 c 0,0,1
223 565 m 1,12,-1
 223 132 l 2,13,14
 223 92 223 92 244 78 c 128,-1,15
 265 64 265 64 302 64 c 2,16,-1
 307 64 l 1,17,-1
 307 0 l 1,18,-1
 45 0 l 1,19,-1
 45 64 l 1,20,-1
 50 64 l 2,21,22
 87 64 87 64 108 78 c 128,-1,23
 129 92 129 92 129 132 c 2,24,-1
 129 446 l 2,25,26
 129 468 129 468 109.5 476 c 128,-1,27
 90 484 90 484 54 491 c 2,28,-1
 45 493 l 1,29,-1
 45 565 l 1,30,-1
 223 565 l 1,12,-1
EndSplineSet
Substitution2: "Single Substitution lookup 1 subtable" idotaccent
EndChar

StartChar: icircumflex
Encoding: 238 238 97
Width: 340
GlyphClass: 1
Flags: W
LayerCount: 2
Fore
SplineSet
199 848 m 1,0,-1
 132 848 l 1,1,-1
 6 676 l 1,2,-1
 6 656 l 1,3,-1
 52 656 l 1,4,-1
 229 811 l 1,5,-1
 97 806 l 1,6,-1
 270 656 l 1,7,-1
 325 656 l 1,8,-1
 325 676 l 1,9,-1
 199 848 l 1,0,-1
223 565 m 1,10,-1
 223 132 l 2,11,12
 223 92 223 92 244 78 c 128,-1,13
 265 64 265 64 302 64 c 2,14,-1
 307 64 l 1,15,-1
 307 0 l 1,16,-1
 45 0 l 1,17,-1
 45 64 l 1,18,-1
 50 64 l 2,19,20
 87 64 87 64 108 78 c 128,-1,21
 129 92 129 92 129 132 c 2,22,-1
 129 446 l 2,23,24
 129 468 129 468 109.5 476 c 128,-1,25
 90 484 90 484 54 491 c 2,26,-1
 45 493 l 1,27,-1
 45 565 l 1,28,-1
 223 565 l 1,10,-1
EndSplineSet
EndChar

StartChar: idieresis
Encoding: 239 239 98
Width: 340
GlyphClass: 1
Flags: W
LayerCount: 2
Fore
SplineSet
66 684 m 0,0,1
 40 677 40 677 19.5 688 c 128,-1,2
 -1 699 -1 699 -6 730 c 0,3,4
 -12 759 -12 759 1.5 775.5 c 128,-1,5
 15 792 15 792 41 799 c 0,6,7
 67 805 67 805 87.5 794 c 128,-1,8
 108 783 108 783 113 754 c 0,9,10
 119 724 119 724 105.5 707 c 128,-1,11
 92 690 92 690 66 684 c 0,0,1
294 684 m 0,12,13
 267 677 267 677 247 688 c 128,-1,14
 227 699 227 699 222 730 c 0,15,16
 216 759 216 759 229.5 775.5 c 128,-1,17
 243 792 243 792 269 799 c 0,18,19
 294 805 294 805 315 794 c 128,-1,20
 336 783 336 783 341 754 c 0,21,22
 347 724 347 724 333 707 c 128,-1,23
 319 690 319 690 294 684 c 0,12,13
223 565 m 1,24,-1
 223 132 l 2,25,26
 223 92 223 92 244 78 c 128,-1,27
 265 64 265 64 302 64 c 2,28,-1
 307 64 l 1,29,-1
 307 0 l 1,30,-1
 45 0 l 1,31,-1
 45 64 l 1,32,-1
 50 64 l 2,33,34
 87 64 87 64 108 78 c 128,-1,35
 129 92 129 92 129 132 c 2,36,-1
 129 446 l 2,37,38
 129 468 129 468 109.5 476 c 128,-1,39
 90 484 90 484 54 491 c 2,40,-1
 45 493 l 1,41,-1
 45 565 l 1,42,-1
 223 565 l 1,24,-1
EndSplineSet
EndChar

StartChar: j
Encoding: 106 106 99
Width: 338
GlyphClass: 1
Flags: W
LayerCount: 2
Fore
SplineSet
134 -68 m 2,0,-1
 134 446 l 2,1,2
 134 461 134 461 123.5 469.5 c 128,-1,3
 113 478 113 478 94.5 483 c 128,-1,4
 76 488 76 488 54 491 c 2,5,-1
 40 493 l 1,6,-1
 40 565 l 1,7,-1
 229 565 l 1,8,-1
 229 -80 l 2,9,10
 229 -127 229 -127 213.5 -160 c 128,-1,11
 198 -193 198 -193 171.5 -212.5 c 128,-1,12
 145 -232 145 -232 111.5 -241 c 128,-1,13
 78 -250 78 -250 42 -250 c 0,14,15
 12 -250 12 -250 -15.5 -245.5 c 128,-1,16
 -43 -241 -43 -241 -54 -237 c 1,17,-1
 -54 -163 l 1,18,19
 -39 -167 -39 -167 -14.5 -171.5 c 128,-1,20
 10 -176 10 -176 41 -176 c 0,21,22
 69 -176 69 -176 90 -166.5 c 128,-1,23
 111 -157 111 -157 122.5 -133.5 c 128,-1,24
 134 -110 134 -110 134 -68 c 2,0,-1
168 668 m 0,25,26
 132 668 132 668 112.5 687 c 128,-1,27
 93 706 93 706 93 742 c 0,28,29
 93 776 93 776 112.5 795 c 128,-1,30
 132 814 132 814 168 814 c 0,31,32
 203 814 203 814 223 795 c 128,-1,33
 243 776 243 776 243 742 c 0,34,35
 243 706 243 706 223 687 c 128,-1,36
 203 668 203 668 168 668 c 0,25,26
EndSplineSet
EndChar

StartChar: k
Encoding: 107 107 101
Width: 681
GlyphClass: 2
Flags: W
AnchorPoint: "Anchor-1" 345 0 basechar 0
LayerCount: 2
Fore
SplineSet
666 0 m 1,0,-1
 397 0 l 1,1,-1
 397 64 l 1,2,-1
 405 64 l 2,3,4
 420 64 420 64 435.5 65 c 128,-1,5
 451 66 451 66 461 68.5 c 128,-1,6
 471 71 471 71 471 74 c 2,7,-1
 271 292 l 1,8,-1
 271 302 l 1,9,-1
 455 487 l 2,10,11
 455 491 455 491 442.5 494 c 128,-1,12
 430 497 430 497 412 499 c 128,-1,13
 394 501 394 501 378 501 c 2,14,-1
 362 501 l 1,15,-1
 362 565 l 1,16,-1
 632 565 l 1,17,-1
 632 501 l 1,18,-1
 614 501 l 2,19,20
 599 501 599 501 587 499 c 128,-1,21
 575 497 575 497 564 491 c 128,-1,22
 553 485 553 485 540 472 c 2,23,-1
 344 277 l 1,24,-1
 345 340 l 1,25,-1
 568 101 l 2,26,27
 582 87 582 87 594.5 78.5 c 128,-1,28
 607 70 607 70 621 67 c 128,-1,29
 635 64 635 64 653 64 c 2,30,-1
 666 64 l 1,31,-1
 666 0 l 1,0,-1
219 780 m 1,32,-1
 219 74 l 2,33,34
 219 71 219 71 231.5 68.5 c 128,-1,35
 244 66 244 66 260 65 c 128,-1,36
 276 64 276 64 289 64 c 2,37,-1
 296 64 l 1,38,-1
 296 0 l 1,39,-1
 44 0 l 1,40,-1
 44 64 l 1,41,-1
 48 64 l 2,42,43
 71 64 71 64 88 70.5 c 128,-1,44
 105 77 105 77 114 93.5 c 128,-1,45
 123 110 123 110 123 140 c 2,46,-1
 123 661 l 2,47,48
 123 676 123 676 115 683.5 c 128,-1,49
 107 691 107 691 91.5 696 c 128,-1,50
 76 701 76 701 54 706 c 2,51,-1
 44 708 l 1,52,-1
 44 780 l 1,53,-1
 219 780 l 1,32,-1
EndSplineSet
EndChar

StartChar: l
Encoding: 108 108 102
Width: 347
GlyphClass: 2
Flags: W
AnchorPoint: "Anchor-2" 303 735 basechar 0
AnchorPoint: "Anchor-1" 186 0 basechar 0
AnchorPoint: "Anchor-0" 182 746 basechar 0
LayerCount: 2
Fore
SplineSet
230 780 m 1,0,-1
 230 132 l 2,1,2
 230 92 230 92 251 78 c 128,-1,3
 272 64 272 64 309 64 c 2,4,-1
 314 64 l 1,5,-1
 314 0 l 1,6,-1
 52 0 l 1,7,-1
 52 64 l 1,8,-1
 57 64 l 2,9,10
 94 64 94 64 115 78 c 128,-1,11
 136 92 136 92 136 132 c 2,12,-1
 136 661 l 2,13,14
 136 676 136 676 127.5 683.5 c 128,-1,15
 119 691 119 691 102.5 696 c 128,-1,16
 86 701 86 701 62 706 c 2,17,-1
 52 708 l 1,18,-1
 52 780 l 1,19,-1
 230 780 l 1,0,-1
EndSplineSet
EndChar

StartChar: m
Encoding: 109 109 103
Width: 990
GlyphClass: 2
Flags: W
AnchorPoint: "Anchor-1" 502 -10 basechar 0
LayerCount: 2
Fore
SplineSet
44 0 m 1,0,-1
 44 64 l 1,1,-1
 48 64 l 2,2,3
 87 64 87 64 108 79.5 c 128,-1,4
 129 95 129 95 129 139 c 2,5,-1
 129 446 l 2,6,7
 129 461 129 461 121 468.5 c 128,-1,8
 113 476 113 476 96 481 c 128,-1,9
 79 486 79 486 54 491 c 2,10,-1
 44 493 l 1,11,-1
 44 565 l 1,12,-1
 190 565 l 1,13,-1
 214 431 l 1,14,-1
 219 444 l 1,15,-1
 219 74 l 2,16,17
 219 71 219 71 230.5 68.5 c 128,-1,18
 242 66 242 66 258.5 65 c 128,-1,19
 275 64 275 64 288 64 c 2,20,-1
 293 64 l 1,21,-1
 293 0 l 1,22,-1
 44 0 l 1,0,-1
620 0 m 1,23,-1
 385 0 l 1,24,-1
 385 64 l 1,25,-1
 389 64 l 2,26,27
 403 64 403 64 418 65 c 128,-1,28
 433 66 433 66 443.5 68.5 c 128,-1,29
 454 71 454 71 454 74 c 2,30,-1
 454 427 l 2,31,32
 454 448 454 448 447.5 462.5 c 128,-1,33
 441 477 441 477 425 484.5 c 128,-1,34
 409 492 409 492 380 492 c 0,35,36
 352 492 352 492 323 479.5 c 128,-1,37
 294 467 294 467 264 442 c 128,-1,38
 234 417 234 417 199 377 c 1,39,-1
 200 437 l 1,40,41
 232 480 232 480 265 510.5 c 128,-1,42
 298 541 298 541 335.5 558.5 c 128,-1,43
 373 576 373 576 416 576 c 0,44,45
 462 576 462 576 491.5 560 c 128,-1,46
 521 544 521 544 535.5 513.5 c 128,-1,47
 550 483 550 483 550 439 c 2,48,-1
 550 74 l 2,49,50
 550 71 550 71 561.5 68.5 c 128,-1,51
 573 66 573 66 588.5 65 c 128,-1,52
 604 64 604 64 615 64 c 2,53,-1
 620 64 l 1,54,-1
 620 0 l 1,23,-1
961 0 m 1,55,-1
 712 0 l 1,56,-1
 712 64 l 1,57,-1
 717 64 l 2,58,59
 730 64 730 64 746.5 65 c 128,-1,60
 763 66 763 66 774.5 68.5 c 128,-1,61
 786 71 786 71 786 74 c 2,62,-1
 786 427 l 2,63,64
 786 448 786 448 778.5 462.5 c 128,-1,65
 771 477 771 477 755 484.5 c 128,-1,66
 739 492 739 492 710 492 c 256,67,68
 681 492 681 492 652 479.5 c 128,-1,69
 623 467 623 467 592 442 c 128,-1,70
 561 417 561 417 526 377 c 1,71,-1
 527 437 l 1,72,73
 559 480 559 480 592.5 510.5 c 128,-1,74
 626 541 626 541 663.5 558.5 c 128,-1,75
 701 576 701 576 746 576 c 0,76,77
 792 576 792 576 822 560 c 128,-1,78
 852 544 852 544 866.5 513.5 c 128,-1,79
 881 483 881 483 881 439 c 2,80,-1
 881 140 l 2,81,82
 881 95 881 95 902 79.5 c 128,-1,83
 923 64 923 64 957 64 c 2,84,-1
 961 64 l 1,85,-1
 961 0 l 1,55,-1
EndSplineSet
EndChar

StartChar: n
Encoding: 110 110 104
Width: 682
GlyphClass: 2
Flags: W
AnchorPoint: "Anchor-1" 347 0 basechar 0
AnchorPoint: "Anchor-0" 338 565 basechar 0
LayerCount: 2
Fore
SplineSet
44 0 m 1,0,-1
 44 64 l 1,1,-1
 48 64 l 2,2,3
 75 64 75 64 91.5 70.5 c 128,-1,4
 108 77 108 77 115.5 93.5 c 128,-1,5
 123 110 123 110 123 140 c 2,6,-1
 123 446 l 2,7,8
 123 461 123 461 115 469 c 128,-1,9
 107 477 107 477 91.5 482 c 128,-1,10
 76 487 76 487 54 491 c 2,11,-1
 44 493 l 1,12,-1
 44 565 l 1,13,-1
 190 565 l 1,14,-1
 214 439 l 1,15,-1
 219 444 l 1,16,-1
 219 74 l 2,17,18
 219 71 219 71 230.5 68.5 c 128,-1,19
 242 66 242 66 258.5 65 c 128,-1,20
 275 64 275 64 288 64 c 2,21,-1
 293 64 l 1,22,-1
 293 0 l 1,23,-1
 44 0 l 1,0,-1
653 0 m 1,24,-1
 404 0 l 1,25,-1
 404 64 l 1,26,-1
 409 64 l 2,27,28
 423 64 423 64 439 65 c 128,-1,29
 455 66 455 66 466.5 68.5 c 128,-1,30
 478 71 478 71 478 74 c 2,31,-1
 478 427 l 2,32,33
 478 446 478 446 469.5 460.5 c 128,-1,34
 461 475 461 475 442.5 483.5 c 128,-1,35
 424 492 424 492 392 492 c 0,36,37
 362 492 362 492 330 479.5 c 128,-1,38
 298 467 298 467 266 440.5 c 128,-1,39
 234 414 234 414 200 373 c 1,40,-1
 200 427 l 1,41,42
 230 474 230 474 265 507.5 c 128,-1,43
 300 541 300 541 341.5 558.5 c 128,-1,44
 383 576 383 576 431 576 c 256,45,46
 479 576 479 576 510.5 560 c 128,-1,47
 542 544 542 544 558 513.5 c 128,-1,48
 574 483 574 483 574 439 c 2,49,-1
 574 140 l 2,50,51
 574 110 574 110 581.5 93.5 c 128,-1,52
 589 77 589 77 605.5 70.5 c 128,-1,53
 622 64 622 64 649 64 c 2,54,-1
 653 64 l 1,55,-1
 653 0 l 1,24,-1
EndSplineSet
EndChar

StartChar: o
Encoding: 111 111 106
Width: 630
GlyphClass: 2
Flags: W
AnchorPoint: "Anchor-2" 421 0 basechar 0
AnchorPoint: "Anchor-1" 315 0 basechar 0
AnchorPoint: "Anchor-0" 315 565 basechar 0
LayerCount: 2
Fore
SplineSet
582 281 m 0,0,1
 582 187 582 187 549.5 121.5 c 128,-1,2
 517 56 517 56 457 21.5 c 128,-1,3
 397 -13 397 -13 315 -13 c 0,4,5
 231 -13 231 -13 171.5 21.5 c 128,-1,6
 112 56 112 56 80 121.5 c 128,-1,7
 48 187 48 187 48 281 c 0,8,9
 48 351 48 351 66 405.5 c 128,-1,10
 84 460 84 460 119 498 c 128,-1,11
 154 536 154 536 203 555.5 c 128,-1,12
 252 575 252 575 315 575 c 0,13,14
 377 575 377 575 426 555.5 c 128,-1,15
 475 536 475 536 510 498 c 128,-1,16
 545 460 545 460 563.5 405.5 c 128,-1,17
 582 351 582 351 582 281 c 0,0,1
149 281 m 0,18,19
 149 201 149 201 165 153.5 c 128,-1,20
 181 106 181 106 217.5 85 c 128,-1,21
 254 64 254 64 315 64 c 256,22,23
 376 64 376 64 412.5 84.5 c 128,-1,24
 449 105 449 105 465 153 c 128,-1,25
 481 201 481 201 481 281 c 0,26,27
 481 355 481 355 465 403 c 128,-1,28
 449 451 449 451 412.5 474.5 c 128,-1,29
 376 498 376 498 315 498 c 256,30,31
 254 498 254 498 217.5 474.5 c 128,-1,32
 181 451 181 451 165 403.5 c 128,-1,33
 149 356 149 356 149 281 c 0,18,19
EndSplineSet
EndChar

StartChar: p
Encoding: 112 112 112
Width: 691
GlyphClass: 2
Flags: W
AnchorPoint: "Anchor-0" 340 508 basechar 0
LayerCount: 2
Fore
SplineSet
319 -223 m 1,0,-1
 48 -223 l 1,1,-1
 48 -159 l 1,2,-1
 51 -159 l 2,3,4
 74 -159 74 -159 89.5 -152.5 c 128,-1,5
 105 -146 105 -146 113.5 -129.5 c 128,-1,6
 122 -113 122 -113 122 -83 c 2,7,-1
 122 446 l 2,8,9
 122 461 122 461 114 469 c 128,-1,10
 106 477 106 477 90.5 482 c 128,-1,11
 75 487 75 487 53 491 c 2,12,-1
 43 493 l 1,13,-1
 43 565 l 1,14,-1
 189 565 l 1,15,-1
 213 439 l 1,16,-1
 218 444 l 1,17,-1
 218 -149 l 2,18,19
 218 -152 218 -152 230.5 -154.5 c 128,-1,20
 243 -157 243 -157 261 -158 c 128,-1,21
 279 -159 279 -159 294 -159 c 2,22,-1
 319 -159 l 1,23,-1
 319 -223 l 1,0,-1
399 -13 m 0,24,25
 355 -13 355 -13 318 4.5 c 128,-1,26
 281 22 281 22 251.5 54 c 128,-1,27
 222 86 222 86 198 130 c 1,28,-1
 204 186 l 1,29,30
 232 145 232 145 260.5 118.5 c 128,-1,31
 289 92 289 92 321 79.5 c 128,-1,32
 353 67 353 67 393 67 c 0,33,34
 429 67 429 67 457 80 c 128,-1,35
 485 93 485 93 504 120 c 128,-1,36
 523 147 523 147 533 188 c 128,-1,37
 543 229 543 229 543 285 c 0,38,39
 543 339 543 339 534 378.5 c 128,-1,40
 525 418 525 418 507.5 444 c 128,-1,41
 490 470 490 470 463 482.5 c 128,-1,42
 436 495 436 495 400 495 c 0,43,44
 359 495 359 495 324.5 483 c 128,-1,45
 290 471 290 471 260.5 445 c 128,-1,46
 231 419 231 419 201 377 c 1,47,-1
 198 430 l 1,48,49
 224 474 224 474 254 506.5 c 128,-1,50
 284 539 284 539 322.5 557 c 128,-1,51
 361 575 361 575 411 575 c 0,52,53
 488 575 488 575 540 538 c 128,-1,54
 592 501 592 501 617.5 436 c 128,-1,55
 643 371 643 371 643 285 c 0,56,57
 643 200 643 200 615 132.5 c 128,-1,58
 587 65 587 65 532.5 26 c 128,-1,59
 478 -13 478 -13 399 -13 c 0,24,25
EndSplineSet
EndChar

StartChar: q
Encoding: 113 113 113
Width: 668
GlyphClass: 1
Flags: W
LayerCount: 2
Fore
SplineSet
373 -223 m 1,0,-1
 373 -159 l 1,1,-1
 397 -159 l 2,2,3
 413 -159 413 -159 430.5 -158 c 128,-1,4
 448 -157 448 -157 460.5 -154.5 c 128,-1,5
 473 -152 473 -152 473 -149 c 2,6,-1
 473 442 l 1,7,-1
 475 443 l 1,8,-1
 509 567 l 1,9,-1
 569 567 l 1,10,-1
 569 -83 l 2,11,12
 569 -128 569 -128 588 -143.5 c 128,-1,13
 607 -159 607 -159 640 -159 c 2,14,-1
 644 -159 l 1,15,-1
 644 -223 l 1,16,-1
 373 -223 l 1,0,-1
292 575 m 0,17,18
 338 575 338 575 374 557.5 c 128,-1,19
 410 540 410 540 439.5 508 c 128,-1,20
 469 476 469 476 493 431 c 1,21,-1
 487 374 l 1,22,23
 460 415 460 415 431.5 442 c 128,-1,24
 403 469 403 469 371 482 c 128,-1,25
 339 495 339 495 300 495 c 0,26,27
 262 495 262 495 234 482 c 128,-1,28
 206 469 206 469 187 442 c 128,-1,29
 168 415 168 415 158.5 374 c 128,-1,30
 149 333 149 333 149 277 c 0,31,32
 149 223 149 223 157.5 183.5 c 128,-1,33
 166 144 166 144 183.5 118 c 128,-1,34
 201 92 201 92 228.5 79.5 c 128,-1,35
 256 67 256 67 292 67 c 0,36,37
 334 67 334 67 367.5 79 c 128,-1,38
 401 91 401 91 431 117.5 c 128,-1,39
 461 144 461 144 490 185 c 1,40,-1
 493 132 l 1,41,42
 468 88 468 88 437.5 55.5 c 128,-1,43
 407 23 407 23 368.5 5 c 128,-1,44
 330 -13 330 -13 281 -13 c 0,45,46
 204 -13 204 -13 152 24 c 128,-1,47
 100 61 100 61 74 126.5 c 128,-1,48
 48 192 48 192 48 277 c 0,49,50
 48 363 48 363 76 430 c 128,-1,51
 104 497 104 497 158.5 536 c 128,-1,52
 213 575 213 575 292 575 c 0,17,18
EndSplineSet
EndChar

StartChar: r
Encoding: 114 114 114
Width: 474
GlyphClass: 2
Flags: W
AnchorPoint: "Anchor-1" 195 0 basechar 0
AnchorPoint: "Anchor-0" 256 565 basechar 0
LayerCount: 2
Fore
SplineSet
436 572 m 1,0,-1
 436 458 l 1,1,2
 429 459 429 459 418.5 460 c 128,-1,3
 408 461 408 461 397 461.5 c 128,-1,4
 386 462 386 462 375 462 c 0,5,6
 349 462 349 462 326 458.5 c 128,-1,7
 303 455 303 455 282.5 447 c 128,-1,8
 262 439 262 439 242 425 c 128,-1,9
 222 411 222 411 200 390 c 1,10,-1
 200 432 l 1,11,12
 233 484 233 484 263 516 c 128,-1,13
 293 548 293 548 325 562.5 c 128,-1,14
 357 577 357 577 396 577 c 0,15,16
 410 577 410 577 421 575.5 c 128,-1,17
 432 574 432 574 436 572 c 1,0,-1
44 0 m 1,18,-1
 44 64 l 1,19,-1
 48 64 l 2,20,21
 83 64 83 64 103 79.5 c 128,-1,22
 123 95 123 95 123 140 c 2,23,-1
 123 446 l 2,24,25
 123 461 123 461 115 469 c 128,-1,26
 107 477 107 477 91.5 482 c 128,-1,27
 76 487 76 487 54 491 c 2,28,-1
 44 493 l 1,29,-1
 44 565 l 1,30,-1
 190 565 l 1,31,-1
 214 444 l 1,32,-1
 219 443 l 1,33,-1
 219 74 l 2,34,35
 219 71 219 71 232 68.5 c 128,-1,36
 245 66 245 66 262.5 65 c 128,-1,37
 280 64 280 64 293 64 c 2,38,-1
 320 64 l 1,39,-1
 320 0 l 1,40,-1
 44 0 l 1,18,-1
EndSplineSet
EndChar

StartChar: s
Encoding: 115 115 115
Width: 531
GlyphClass: 2
Flags: W
AnchorPoint: "Anchor-1" 270 0 basechar 0
AnchorPoint: "Anchor-0" 268 565 basechar 0
LayerCount: 2
Fore
SplineSet
388 151 m 0,0,1
 388 177 388 177 377 193.5 c 128,-1,2
 366 210 366 210 346.5 220 c 128,-1,3
 327 230 327 230 302 237 c 128,-1,4
 277 244 277 244 249 250 c 0,5,6
 215 257 215 257 183 267.5 c 128,-1,7
 151 278 151 278 125 296 c 128,-1,8
 99 314 99 314 83.5 344 c 128,-1,9
 68 374 68 374 68 420 c 0,10,11
 68 468 68 468 91.5 502.5 c 128,-1,12
 115 537 115 537 160 556.5 c 128,-1,13
 205 576 205 576 269 576 c 0,14,15
 320 576 320 576 357.5 571.5 c 128,-1,16
 395 567 395 567 420 560.5 c 128,-1,17
 445 554 445 554 456 549 c 1,18,-1
 456 409 l 1,19,-1
 361 409 l 1,20,-1
 361 522 l 1,21,22
 371 522 371 522 378.5 517.5 c 128,-1,23
 386 513 386 513 391.5 506 c 128,-1,24
 397 499 397 499 400.5 490 c 128,-1,25
 404 481 404 481 405 472 c 1,26,27
 392 480 392 480 372 486 c 128,-1,28
 352 492 352 492 326.5 496 c 128,-1,29
 301 500 301 500 269 500 c 0,30,31
 210 500 210 500 183 482 c 128,-1,32
 156 464 156 464 156 426 c 0,33,34
 156 402 156 402 166 386 c 128,-1,35
 176 370 176 370 195 360 c 128,-1,36
 214 350 214 350 240 342.5 c 128,-1,37
 266 335 266 335 297 329 c 0,38,39
 330 322 330 322 362 311.5 c 128,-1,40
 394 301 394 301 420 282.5 c 128,-1,41
 446 264 446 264 462 233.5 c 128,-1,42
 478 203 478 203 478 157 c 0,43,44
 478 108 478 108 454.5 69.5 c 128,-1,45
 431 31 431 31 383 9.5 c 128,-1,46
 335 -12 335 -12 262 -12 c 0,47,48
 212 -12 212 -12 172.5 -6 c 128,-1,49
 133 0 133 0 103.5 10 c 128,-1,50
 74 20 74 20 54 32 c 1,51,-1
 54 177 l 1,52,-1
 151 177 l 1,53,-1
 151 29 l 1,54,55
 136 35 136 35 127 44 c 128,-1,56
 118 53 118 53 114.5 63 c 128,-1,57
 111 73 111 73 110.5 81.5 c 128,-1,58
 110 90 110 90 111 95 c 1,59,60
 125 91 125 91 147.5 83.5 c 128,-1,61
 170 76 170 76 200 70 c 128,-1,62
 230 64 230 64 263 64 c 0,63,64
 306 64 306 64 333.5 72.5 c 128,-1,65
 361 81 361 81 374.5 100 c 128,-1,66
 388 119 388 119 388 151 c 0,0,1
EndSplineSet
EndChar

StartChar: scaron
Encoding: 154 353 117
Width: 531
GlyphClass: 1
Flags: W
LayerCount: 2
Fore
SplineSet
227 652 m 1,0,-1
 295 652 l 1,1,-1
 429 824 l 1,2,-1
 429 844 l 1,3,-1
 376 844 l 1,4,-1
 196 694 l 1,5,-1
 327 698 l 1,6,-1
 151 844 l 1,7,-1
 92 844 l 1,8,-1
 92 824 l 1,9,-1
 227 652 l 1,0,-1
388 151 m 0,10,11
 388 177 388 177 377 193.5 c 128,-1,12
 366 210 366 210 346.5 220 c 128,-1,13
 327 230 327 230 302 237 c 128,-1,14
 277 244 277 244 249 250 c 0,15,16
 215 257 215 257 183 267.5 c 128,-1,17
 151 278 151 278 125 296 c 128,-1,18
 99 314 99 314 83.5 344 c 128,-1,19
 68 374 68 374 68 420 c 0,20,21
 68 468 68 468 91.5 502.5 c 128,-1,22
 115 537 115 537 160 556.5 c 128,-1,23
 205 576 205 576 269 576 c 0,24,25
 320 576 320 576 357.5 571.5 c 128,-1,26
 395 567 395 567 420 560.5 c 128,-1,27
 445 554 445 554 456 549 c 1,28,-1
 456 409 l 1,29,-1
 361 409 l 1,30,-1
 361 522 l 1,31,32
 371 522 371 522 378.5 517.5 c 128,-1,33
 386 513 386 513 391.5 506 c 128,-1,34
 397 499 397 499 400.5 490 c 128,-1,35
 404 481 404 481 405 472 c 1,36,37
 392 480 392 480 372 486 c 128,-1,38
 352 492 352 492 326.5 496 c 128,-1,39
 301 500 301 500 269 500 c 0,40,41
 210 500 210 500 183 482 c 128,-1,42
 156 464 156 464 156 426 c 0,43,44
 156 402 156 402 166 386 c 128,-1,45
 176 370 176 370 195 360 c 128,-1,46
 214 350 214 350 240 342.5 c 128,-1,47
 266 335 266 335 297 329 c 0,48,49
 330 322 330 322 362 311.5 c 128,-1,50
 394 301 394 301 420 282.5 c 128,-1,51
 446 264 446 264 462 233.5 c 128,-1,52
 478 203 478 203 478 157 c 0,53,54
 478 108 478 108 454.5 69.5 c 128,-1,55
 431 31 431 31 383 9.5 c 128,-1,56
 335 -12 335 -12 262 -12 c 0,57,58
 212 -12 212 -12 172.5 -6 c 128,-1,59
 133 0 133 0 103.5 10 c 128,-1,60
 74 20 74 20 54 32 c 1,61,-1
 54 177 l 1,62,-1
 151 177 l 1,63,-1
 151 29 l 1,64,65
 136 35 136 35 127 44 c 128,-1,66
 118 53 118 53 114.5 63 c 128,-1,67
 111 73 111 73 110.5 81.5 c 128,-1,68
 110 90 110 90 111 95 c 1,69,70
 125 91 125 91 147.5 83.5 c 128,-1,71
 170 76 170 76 200 70 c 128,-1,72
 230 64 230 64 263 64 c 0,73,74
 306 64 306 64 333.5 72.5 c 128,-1,75
 361 81 361 81 374.5 100 c 128,-1,76
 388 119 388 119 388 151 c 0,10,11
EndSplineSet
EndChar

StartChar: t
Encoding: 116 116 118
Width: 463
GlyphClass: 2
Flags: W
AnchorPoint: "Anchor-2" 363 681 basechar 0
AnchorPoint: "Anchor-1" 303 0 basechar 0
AnchorPoint: "Anchor-0" 194 675 basechar 0
LayerCount: 2
Fore
SplineSet
20 489 m 1,0,-1
 20 560 l 1,1,-1
 36 560 l 2,2,3
 71 560 71 560 93 565 c 128,-1,4
 115 570 115 570 126.5 587.5 c 128,-1,5
 138 605 138 605 138 640 c 1,6,-1
 209 565 l 1,7,-1
 414 565 l 1,8,-1
 414 489 l 1,9,-1
 20 489 l 1,0,-1
227 167 m 2,10,11
 227 127 227 127 238.5 106 c 128,-1,12
 250 85 250 85 273.5 77.5 c 128,-1,13
 297 70 297 70 331 70 c 0,14,15
 360 70 360 70 384.5 73 c 128,-1,16
 409 76 409 76 413 77 c 1,17,-1
 413 0 l 1,18,19
 402 -3 402 -3 385.5 -5.5 c 128,-1,20
 369 -8 369 -8 351 -9.5 c 128,-1,21
 333 -11 333 -11 316 -11 c 0,22,23
 264 -11 264 -11 222 1 c 128,-1,24
 180 13 180 13 155.5 47.5 c 128,-1,25
 131 82 131 82 131 150 c 2,26,-1
 131 552 l 1,27,-1
 138 562 l 1,28,-1
 138 731 l 1,29,-1
 227 731 l 1,30,-1
 227 167 l 2,10,11
EndSplineSet
EndChar

StartChar: u
Encoding: 117 117 119
Width: 671
GlyphClass: 2
Flags: W
AnchorPoint: "Anchor-2" 489 0 basechar 0
AnchorPoint: "Anchor-1" 310 0 basechar 0
AnchorPoint: "Anchor-0" 314 565 basechar 0
LayerCount: 2
Fore
SplineSet
210 565 m 1,0,-1
 210 138 l 2,1,2
 210 117 210 117 218 102.5 c 128,-1,3
 226 88 226 88 244.5 80.5 c 128,-1,4
 263 73 263 73 294 73 c 256,5,6
 325 73 325 73 356 86 c 128,-1,7
 387 99 387 99 419.5 125.5 c 128,-1,8
 452 152 452 152 485 192 c 1,9,-1
 485 138 l 1,10,11
 455 92 455 92 419.5 58 c 128,-1,12
 384 24 384 24 343.5 6.5 c 128,-1,13
 303 -11 303 -11 258 -11 c 0,14,15
 211 -11 211 -11 179 5 c 128,-1,16
 147 21 147 21 130.5 52 c 128,-1,17
 114 83 114 83 114 126 c 2,18,-1
 114 443 l 2,19,20
 114 468 114 468 96 478 c 128,-1,21
 78 488 78 488 44 492 c 2,22,-1
 28 493 l 1,23,-1
 28 565 l 1,24,-1
 210 565 l 1,0,-1
560 565 m 1,25,-1
 560 117 l 2,26,27
 560 103 560 103 569 95 c 128,-1,28
 578 87 578 87 594 82.5 c 128,-1,29
 610 78 610 78 630 72 c 2,30,-1
 640 70 l 1,31,-1
 640 0 l 1,32,-1
 494 0 l 1,33,-1
 470 140 l 1,34,-1
 465 127 l 1,35,-1
 465 443 l 2,36,37
 465 468 465 468 445.5 478.5 c 128,-1,38
 426 489 426 489 387 492 c 2,39,-1
 361 493 l 1,40,-1
 361 565 l 1,41,-1
 560 565 l 1,25,-1
EndSplineSet
EndChar

StartChar: v
Encoding: 118 118 125
Width: 649
GlyphClass: 2
Flags: W
AnchorPoint: "Anchor-0" 308 508 basechar 0
LayerCount: 2
Fore
SplineSet
474 469 m 2,0,1
 475 475 475 475 464 480.5 c 128,-1,2
 453 486 453 486 437 488.5 c 128,-1,3
 421 491 421 491 406 491 c 2,4,-1
 398 491 l 1,5,-1
 398 565 l 1,6,-1
 631 565 l 1,7,-1
 631 491 l 1,8,-1
 624 491 l 2,9,10
 606 491 606 491 592 486.5 c 128,-1,11
 578 482 578 482 567.5 470 c 128,-1,12
 557 458 557 458 548 434 c 2,13,-1
 378 -12 l 1,14,-1
 266 -12 l 1,15,-1
 103 436 l 2,16,17
 95 459 95 459 84 470.5 c 128,-1,18
 73 482 73 482 58.5 486.5 c 128,-1,19
 44 491 44 491 25 491 c 2,20,-1
 18 491 l 1,21,-1
 18 565 l 1,22,-1
 269 565 l 1,23,-1
 269 491 l 1,24,-1
 262 491 l 2,25,26
 241 491 241 491 222.5 490.5 c 128,-1,27
 204 490 204 490 193 488.5 c 128,-1,28
 182 487 182 487 182 483 c 2,29,-1
 347 18 l 1,30,-1
 316 38 l 1,31,-1
 474 469 l 2,0,1
EndSplineSet
EndChar

StartChar: w
Encoding: 119 119 126
Width: 938
GlyphClass: 2
Flags: W
AnchorPoint: "Anchor-0" 475 565 basechar 0
LayerCount: 2
Fore
SplineSet
491 526 m 1,0,-1
 455 516 l 1,1,-1
 596 -12 l 1,2,-1
 707 -12 l 1,3,-1
 828 434 l 2,4,5
 835 458 835 458 847.5 470 c 128,-1,6
 860 482 860 482 877 486.5 c 128,-1,7
 894 491 894 491 913 491 c 2,8,-1
 919 491 l 1,9,-1
 919 565 l 1,10,-1
 686 565 l 1,11,-1
 686 491 l 1,12,-1
 693 491 l 2,13,14
 710 491 710 491 725 488.5 c 128,-1,15
 740 486 740 486 749.5 480.5 c 128,-1,16
 759 475 759 475 758 469 c 2,17,-1
 647 37 l 1,18,-1
 674 18 l 1,19,-1
 531 565 l 1,20,-1
 421 565 l 1,21,-1
 272 37 l 1,22,-1
 297 20 l 1,23,-1
 187 483 l 2,24,25
 187 487 187 487 197 488.5 c 128,-1,26
 207 490 207 490 224 490.5 c 128,-1,27
 241 491 241 491 262 491 c 2,28,-1
 270 491 l 1,29,-1
 270 565 l 1,30,-1
 19 565 l 1,31,-1
 19 491 l 1,32,-1
 26 491 l 2,33,34
 45 491 45 491 61.5 486.5 c 128,-1,35
 78 482 78 482 91 470.5 c 128,-1,36
 104 459 104 459 109 436 c 2,37,-1
 218 -12 l 1,38,-1
 334 -12 l 1,39,-1
 491 526 l 1,0,-1
EndSplineSet
EndChar

StartChar: x
Encoding: 120 120 127
Width: 659
GlyphClass: 2
Flags: W
AnchorPoint: "Anchor-1" 275 0 basechar 0
AnchorPoint: "Anchor-0" 299 508 basechar 0
LayerCount: 2
Fore
SplineSet
626 0 m 1,0,-1
 385 0 l 1,1,-1
 385 73 l 1,2,-1
 388 73 l 2,3,4
 402 73 402 73 417.5 73.5 c 128,-1,5
 433 74 433 74 443.5 75.5 c 128,-1,6
 454 77 454 77 454 80 c 2,7,-1
 297 267 l 1,8,-1
 288 268 l 1,9,-1
 128 458 l 2,10,11
 118 469 118 469 108 476.5 c 128,-1,12
 98 484 98 484 85 488 c 128,-1,13
 72 492 72 492 52 492 c 2,14,-1
 47 492 l 1,15,-1
 47 565 l 1,16,-1
 283 565 l 1,17,-1
 283 492 l 1,18,-1
 281 492 l 2,19,20
 267 492 267 492 252 491.5 c 128,-1,21
 237 491 237 491 226 489.5 c 128,-1,22
 215 488 215 488 215 485 c 2,23,-1
 360 312 l 1,24,-1
 370 309 l 1,25,-1
 542 106 l 2,26,27
 552 95 552 95 562 87.5 c 128,-1,28
 572 80 572 80 585.5 76.5 c 128,-1,29
 599 73 599 73 621 73 c 2,30,-1
 626 73 l 1,31,-1
 626 0 l 1,0,-1
33 0 m 1,32,-1
 33 73 l 1,33,-1
 38 73 l 2,34,35
 62 73 62 73 78 81 c 128,-1,36
 94 89 94 89 113 111 c 2,37,-1
 274 296 l 1,38,-1
 338 263 l 1,39,-1
 191 94 l 2,40,41
 191 88 191 88 201 83 c 128,-1,42
 211 78 211 78 227.5 75.5 c 128,-1,43
 244 73 244 73 261 73 c 2,44,-1
 264 73 l 1,45,-1
 264 0 l 1,46,-1
 33 0 l 1,32,-1
381 290 m 1,47,-1
 315 321 l 1,48,-1
 457 476 l 1,49,50
 457 482 457 482 447 485.5 c 128,-1,51
 437 489 437 489 421.5 490.5 c 128,-1,52
 406 492 406 492 389 492 c 2,53,-1
 385 492 l 1,54,-1
 385 565 l 1,55,-1
 609 565 l 1,56,-1
 609 492 l 1,57,-1
 604 492 l 2,58,59
 594 492 594 492 584 492 c 128,-1,60
 574 492 574 492 564 488 c 128,-1,61
 554 484 554 484 543 472 c 2,62,-1
 381 290 l 1,47,-1
EndSplineSet
EndChar

StartChar: y
Encoding: 121 121 128
Width: 662
GlyphClass: 2
Flags: W
AnchorPoint: "Anchor-1" 345 -211 basechar 0
AnchorPoint: "Anchor-0" 335 565 basechar 0
LayerCount: 2
Fore
SplineSet
362 42 m 1,0,-1
 350 5 l 1,1,-1
 303 -45 l 1,2,-1
 102 459 l 2,3,4
 97 473 97 473 86.5 479.5 c 128,-1,5
 76 486 76 486 62.5 488.5 c 128,-1,6
 49 491 49 491 32 491 c 2,7,-1
 20 491 l 1,8,-1
 20 565 l 1,9,-1
 275 565 l 1,10,-1
 275 491 l 1,11,-1
 266 491 l 2,12,13
 248 491 248 491 230.5 490.5 c 128,-1,14
 213 490 213 490 201.5 488.5 c 128,-1,15
 190 487 190 487 190 484 c 2,16,-1
 362 42 l 1,0,-1
385 17 m 2,17,18
 355 -56 355 -56 327.5 -104.5 c 128,-1,19
 300 -153 300 -153 271 -180.5 c 128,-1,20
 242 -208 242 -208 208 -220 c 128,-1,21
 174 -232 174 -232 130 -232 c 0,22,23
 103 -232 103 -232 78 -227 c 128,-1,24
 53 -222 53 -222 43 -215 c 1,25,-1
 43 -128 l 1,26,27
 46 -129 46 -129 59 -133 c 128,-1,28
 72 -137 72 -137 91.5 -141 c 128,-1,29
 111 -145 111 -145 134 -145 c 0,30,31
 161 -145 161 -145 184.5 -136.5 c 128,-1,32
 208 -128 208 -128 229.5 -107.5 c 128,-1,33
 251 -87 251 -87 271.5 -49.5 c 128,-1,34
 292 -12 292 -12 313 47 c 1,35,-1
 322 67 l 1,36,-1
 480 471 l 2,37,38
 480 477 480 477 470.5 481.5 c 128,-1,39
 461 486 461 486 444.5 488.5 c 128,-1,40
 428 491 428 491 408 491 c 2,41,-1
 400 491 l 1,42,-1
 400 565 l 1,43,-1
 643 565 l 1,44,-1
 643 491 l 1,45,-1
 632 491 l 2,46,47
 618 491 618 491 603.5 487 c 128,-1,48
 589 483 589 483 577.5 472.5 c 128,-1,49
 566 462 566 462 557 442 c 2,50,-1
 385 17 l 2,17,18
EndSplineSet
EndChar

StartChar: z
Encoding: 122 122 131
Width: 541
GlyphClass: 2
Flags: W
AnchorPoint: "Anchor-1" 298 0 basechar 0
AnchorPoint: "Anchor-0" 276 565 basechar 0
LayerCount: 2
Fore
SplineSet
136 59 m 1,0,-1
 119 77 l 1,1,-1
 337 77 l 2,2,3
 359 77 359 77 372.5 79 c 128,-1,4
 386 81 386 81 394.5 87 c 128,-1,5
 403 93 403 93 407.5 102.5 c 128,-1,6
 412 112 412 112 415 127 c 2,7,-1
 427 198 l 1,8,-1
 501 198 l 1,9,-1
 501 0 l 1,10,-1
 48 0 l 1,11,-1
 48 80 l 1,12,-1
 395 502 l 1,13,-1
 418 489 l 1,14,-1
 219 489 l 2,15,16
 196 489 196 489 182.5 487 c 128,-1,17
 169 485 169 485 160.5 479.5 c 128,-1,18
 152 474 152 474 148 464.5 c 128,-1,19
 144 455 144 455 141 438 c 2,20,-1
 130 378 l 1,21,-1
 57 378 l 1,22,-1
 57 565 l 1,23,-1
 486 565 l 1,24,-1
 486 488 l 1,25,-1
 136 59 l 1,0,-1
EndSplineSet
EndChar

StartChar: zcaron
Encoding: 158 382 132
Width: 541
GlyphClass: 1
Flags: W
LayerCount: 2
Fore
SplineSet
237 652 m 1,0,-1
 304 652 l 1,1,-1
 438 824 l 1,2,-1
 438 844 l 1,3,-1
 385 844 l 1,4,-1
 205 694 l 1,5,-1
 336 698 l 1,6,-1
 160 844 l 1,7,-1
 101 844 l 1,8,-1
 101 824 l 1,9,-1
 237 652 l 1,0,-1
136 59 m 1,10,-1
 119 77 l 1,11,-1
 337 77 l 2,12,13
 359 77 359 77 372.5 79 c 128,-1,14
 386 81 386 81 394.5 87 c 128,-1,15
 403 93 403 93 407.5 102.5 c 128,-1,16
 412 112 412 112 415 127 c 2,17,-1
 427 198 l 1,18,-1
 501 198 l 1,19,-1
 501 0 l 1,20,-1
 48 0 l 1,21,-1
 48 80 l 1,22,-1
 395 502 l 1,23,-1
 418 489 l 1,24,-1
 219 489 l 2,25,26
 196 489 196 489 182.5 487 c 128,-1,27
 169 485 169 485 160.5 479.5 c 128,-1,28
 152 474 152 474 148 464.5 c 128,-1,29
 144 455 144 455 141 438 c 2,30,-1
 130 378 l 1,31,-1
 57 378 l 1,32,-1
 57 565 l 1,33,-1
 486 565 l 1,34,-1
 486 488 l 1,35,-1
 136 59 l 1,10,-1
EndSplineSet
EndChar

StartChar: germandbls
Encoding: 223 223 133
Width: 672
GlyphClass: 1
Flags: W
LayerCount: 2
Fore
SplineSet
46 565 m 1,0,-1
 191 565 l 1,1,-1
 191 489 l 1,2,-1
 46 489 l 1,3,-1
 46 565 l 1,0,-1
372 436 m 1,4,-1
 383 438 l 1,5,-1
 390 432 l 1,6,-1
 389 438 l 1,7,8
 437 434 437 434 479 417.5 c 128,-1,9
 521 401 521 401 552.5 372.5 c 128,-1,10
 584 344 584 344 601.5 303 c 128,-1,11
 619 262 619 262 619 207 c 0,12,13
 619 144 619 144 603.5 102.5 c 128,-1,14
 588 61 588 61 561 36 c 128,-1,15
 534 11 534 11 500.5 0.5 c 128,-1,16
 467 -10 467 -10 431 -10 c 0,17,18
 402 -10 402 -10 382.5 -6 c 128,-1,19
 363 -2 363 -2 352 3 c 1,20,-1
 352 81 l 1,21,22
 356 80 356 80 366.5 76 c 128,-1,23
 377 72 377 72 392.5 69 c 128,-1,24
 408 66 408 66 426 66 c 0,25,26
 453 66 453 66 473.5 76.5 c 128,-1,27
 494 87 494 87 506 117 c 128,-1,28
 518 147 518 147 518 205 c 0,29,30
 518 252 518 252 507 287 c 128,-1,31
 496 322 496 322 475 344.5 c 128,-1,32
 454 367 454 367 423.5 378 c 128,-1,33
 393 389 393 389 354 389 c 2,34,-1
 352 389 l 1,35,-1
 352 478 l 1,36,37
 380 481 380 481 403 487 c 128,-1,38
 426 493 426 493 443 507 c 128,-1,39
 460 521 460 521 469 547 c 128,-1,40
 478 573 478 573 478 616 c 0,41,42
 478 667 478 667 453 691 c 128,-1,43
 428 715 428 715 368 715 c 0,44,45
 328 715 328 715 303 704.5 c 128,-1,46
 278 694 278 694 265.5 670.5 c 128,-1,47
 253 647 253 647 253 608 c 2,48,-1
 253 0 l 1,49,-1
 46 0 l 1,50,-1
 46 64 l 1,51,-1
 70 64 l 2,52,53
 112 64 112 64 134.5 79.5 c 128,-1,54
 157 95 157 95 157 140 c 2,55,-1
 157 608 l 2,56,57
 157 679 157 679 186.5 718 c 128,-1,58
 216 757 216 757 265 773.5 c 128,-1,59
 314 790 314 790 371 790 c 0,60,61
 440 790 440 790 484.5 770 c 128,-1,62
 529 750 529 750 551 713 c 128,-1,63
 573 676 573 676 573 624 c 0,64,65
 573 574 573 574 555.5 539 c 128,-1,66
 538 504 538 504 508.5 482 c 128,-1,67
 479 460 479 460 443.5 449 c 128,-1,68
 408 438 408 438 372 436 c 1,4,-1
EndSplineSet
EndChar

StartChar: ae
Encoding: 230 230 134
Width: 934
GlyphClass: 2
Flags: W
AnchorPoint: "Anchor-0" 473 565 basechar 0
LayerCount: 2
Fore
SplineSet
415 353 m 1,0,-1
 417 285 l 1,1,2
 349 272 349 272 303 260 c 128,-1,3
 257 248 257 248 229 235.5 c 128,-1,4
 201 223 201 223 187 209.5 c 128,-1,5
 173 196 173 196 168 178 c 128,-1,6
 163 160 163 160 163 138 c 0,7,8
 163 107 163 107 174 89.5 c 128,-1,9
 185 72 185 72 204 64.5 c 128,-1,10
 223 57 223 57 248 57 c 0,11,12
 276 57 276 57 303 69.5 c 128,-1,13
 330 82 330 82 360 114.5 c 128,-1,14
 390 147 390 147 426 204 c 1,15,-1
 470 152 l 1,16,17
 442 108 442 108 414 76.5 c 128,-1,18
 386 45 386 45 357 25.5 c 128,-1,19
 328 6 328 6 298 -3 c 128,-1,20
 268 -12 268 -12 233 -12 c 0,21,22
 182 -12 182 -12 144 4.5 c 128,-1,23
 106 21 106 21 86 54 c 128,-1,24
 66 87 66 87 66 137 c 0,25,26
 66 181 66 181 82 213 c 128,-1,27
 98 245 98 245 136.5 268.5 c 128,-1,28
 175 292 175 292 243 312 c 128,-1,29
 311 332 311 332 415 353 c 1,0,-1
305 575 m 0,30,31
 342 575 342 575 375 569 c 128,-1,32
 408 563 408 563 433.5 546.5 c 128,-1,33
 459 530 459 530 474 501.5 c 128,-1,34
 489 473 489 473 489 426 c 1,35,-1
 407 329 l 1,36,-1
 407 416 l 2,37,38
 407 447 407 447 398.5 465.5 c 128,-1,39
 390 484 390 484 367.5 493 c 128,-1,40
 345 502 345 502 301 502 c 0,41,42
 234 502 234 502 188.5 491 c 128,-1,43
 143 480 143 480 125 468 c 1,44,45
 126 473 126 473 131.5 481 c 128,-1,46
 137 489 137 489 146 497 c 128,-1,47
 155 505 155 505 166.5 510.5 c 128,-1,48
 178 516 178 516 192 515 c 1,49,-1
 192 387 l 1,50,-1
 96 387 l 1,51,-1
 96 527 l 1,52,53
 110 536 110 536 137.5 547 c 128,-1,54
 165 558 165 558 207 566.5 c 128,-1,55
 249 575 249 575 305 575 c 0,30,31
671 64 m 0,56,57
 718 64 718 64 747.5 75 c 128,-1,58
 777 86 777 86 796.5 107 c 128,-1,59
 816 128 816 128 832 158 c 1,60,-1
 889 112 l 1,61,62
 870 74 870 74 838.5 46 c 128,-1,63
 807 18 807 18 764 2.5 c 128,-1,64
 721 -13 721 -13 666 -13 c 0,65,66
 586 -13 586 -13 528 20 c 128,-1,67
 470 53 470 53 438.5 118 c 128,-1,68
 407 183 407 183 407 276 c 0,69,70
 407 328 407 328 410.5 354.5 c 128,-1,71
 414 381 414 381 420 392.5 c 128,-1,72
 426 404 426 404 434 409 c 128,-1,73
 442 414 442 414 451 423 c 1,74,75
 459 446 459 446 475 472 c 128,-1,76
 491 498 491 498 516.5 521.5 c 128,-1,77
 542 545 542 545 576.5 560 c 128,-1,78
 611 575 611 575 655 575 c 0,79,80
 716 575 716 575 760 555 c 128,-1,81
 804 535 804 535 831 495 c 128,-1,82
 858 455 858 455 871.5 394 c 128,-1,83
 885 333 885 333 886 251 c 1,84,-1
 476 251 l 1,85,-1
 476 320 l 1,86,-1
 814 320 l 1,87,-1
 790 293 l 1,88,89
 788 352 788 352 779 391.5 c 128,-1,90
 770 431 770 431 754 454.5 c 128,-1,91
 738 478 738 478 712 488 c 128,-1,92
 686 498 686 498 649 498 c 0,93,94
 617 498 617 498 589 487 c 128,-1,95
 561 476 561 476 540.5 450.5 c 128,-1,96
 520 425 520 425 509 382 c 128,-1,97
 498 339 498 339 498 276 c 0,98,99
 498 208 498 208 512 166 c 128,-1,100
 526 124 526 124 550 102 c 128,-1,101
 574 80 574 80 605.5 72 c 128,-1,102
 637 64 637 64 671 64 c 0,56,57
EndSplineSet
EndChar

StartChar: eth
Encoding: 240 240 135
Width: 630
GlyphClass: 1
Flags: W
LayerCount: 2
Fore
SplineSet
498 429 m 1,0,-1
 486 363 l 1,1,2
 475 394 475 394 453 418 c 128,-1,3
 431 442 431 442 397.5 455.5 c 128,-1,4
 364 469 364 469 314 469 c 0,5,6
 271 469 271 469 239 456.5 c 128,-1,7
 207 444 207 444 187.5 419.5 c 128,-1,8
 168 395 168 395 158.5 357 c 128,-1,9
 149 319 149 319 149 267 c 0,10,11
 149 194 149 194 165.5 149 c 128,-1,12
 182 104 182 104 219 84 c 128,-1,13
 256 64 256 64 315 64 c 0,14,15
 359 64 359 64 390.5 75.5 c 128,-1,16
 422 87 422 87 442 116.5 c 128,-1,17
 462 146 462 146 471.5 197.5 c 128,-1,18
 481 249 481 249 481 329 c 0,19,20
 481 423 481 423 470.5 485.5 c 128,-1,21
 460 548 460 548 437 587.5 c 128,-1,22
 414 627 414 627 378 653 c 128,-1,23
 342 679 342 679 290.5 699 c 128,-1,24
 239 719 239 719 170 744 c 1,25,-1
 206 813 l 1,26,27
 294 786 294 786 364 750 c 128,-1,28
 434 714 434 714 482.5 660 c 128,-1,29
 531 606 531 606 556.5 525.5 c 128,-1,30
 582 445 582 445 582 329 c 256,31,32
 582 213 582 213 549.5 137.5 c 128,-1,33
 517 62 517 62 457 24.5 c 128,-1,34
 397 -13 397 -13 315 -13 c 0,35,36
 231 -13 231 -13 171.5 20.5 c 128,-1,37
 112 54 112 54 80 116.5 c 128,-1,38
 48 179 48 179 48 267 c 256,39,40
 48 355 48 355 80 417.5 c 128,-1,41
 112 480 112 480 171.5 513.5 c 128,-1,42
 231 547 231 547 313 547 c 0,43,44
 358 547 358 547 393 531 c 128,-1,45
 428 515 428 515 454 489 c 128,-1,46
 480 463 480 463 498 429 c 1,0,-1
141 634 m 1,47,-1
 534 801 l 1,48,-1
 559 738 l 1,49,-1
 167 571 l 1,50,-1
 141 634 l 1,47,-1
EndSplineSet
EndChar

StartChar: oslash
Encoding: 248 248 136
Width: 630
GlyphClass: 2
Flags: W
AnchorPoint: "Anchor-0" 315 565 basechar 0
LayerCount: 2
Fore
SplineSet
-21 -12 m 1,0,-1
 566 575 l 1,1,-1
 651 575 l 1,2,-1
 63 -12 l 1,3,-1
 -21 -12 l 1,0,-1
150 281 m 0,4,5
 150 194 150 194 164 147 c 128,-1,6
 178 100 178 100 214 82 c 128,-1,7
 250 64 250 64 315 64 c 0,8,9
 375 64 375 64 411 85 c 128,-1,10
 447 106 447 106 463 153.5 c 128,-1,11
 479 201 479 201 479 281 c 0,12,13
 479 368 479 368 465.5 414.5 c 128,-1,14
 452 461 452 461 416.5 479.5 c 128,-1,15
 381 498 381 498 315 498 c 0,16,17
 255 498 255 498 219 474.5 c 128,-1,18
 183 451 183 451 166.5 403 c 128,-1,19
 150 355 150 355 150 281 c 0,4,5
48 281 m 0,20,21
 48 350 48 350 66 404.5 c 128,-1,22
 84 459 84 459 119 497 c 128,-1,23
 154 535 154 535 203 555 c 128,-1,24
 252 575 252 575 315 575 c 0,25,26
 377 575 377 575 426 552.5 c 128,-1,27
 475 530 475 530 510 490.5 c 128,-1,28
 545 451 545 451 563.5 397.5 c 128,-1,29
 582 344 582 344 582 281 c 0,30,31
 582 188 582 188 549.5 122 c 128,-1,32
 517 56 517 56 457.5 21.5 c 128,-1,33
 398 -13 398 -13 315 -13 c 256,34,35
 232 -13 232 -13 172 25.5 c 128,-1,36
 112 64 112 64 80 130.5 c 128,-1,37
 48 197 48 197 48 281 c 0,20,21
EndSplineSet
EndChar

StartChar: thorn
Encoding: 254 254 137
Width: 692
GlyphClass: 1
Flags: W
LayerCount: 2
Fore
SplineSet
320 -223 m 1,0,-1
 49 -223 l 1,1,-1
 49 -159 l 1,2,-1
 52 -159 l 2,3,4
 77 -159 77 -159 92 -152.5 c 128,-1,5
 107 -146 107 -146 115 -129 c 128,-1,6
 123 -112 123 -112 123 -82 c 2,7,-1
 123 661 l 2,8,9
 123 676 123 676 116.5 683.5 c 128,-1,10
 110 691 110 691 94.5 696 c 128,-1,11
 79 701 79 701 54 706 c 2,12,-1
 44 708 l 1,13,-1
 44 780 l 1,14,-1
 219 780 l 1,15,-1
 219 -149 l 2,16,17
 219 -152 219 -152 232 -154.5 c 128,-1,18
 245 -157 245 -157 263.5 -158 c 128,-1,19
 282 -159 282 -159 296 -159 c 2,20,-1
 320 -159 l 1,21,-1
 320 -223 l 1,0,-1
400 -13 m 0,22,23
 366 -13 366 -13 337 -3 c 128,-1,24
 308 7 308 7 283.5 25.5 c 128,-1,25
 259 44 259 44 238.5 70.5 c 128,-1,26
 218 97 218 97 199 130 c 1,27,-1
 205 187 l 1,28,29
 233 147 233 147 261 120 c 128,-1,30
 289 93 289 93 321.5 80 c 128,-1,31
 354 67 354 67 393 67 c 0,32,33
 430 67 430 67 458 80 c 128,-1,34
 486 93 486 93 505 120 c 128,-1,35
 524 147 524 147 534 188 c 128,-1,36
 544 229 544 229 544 285 c 0,37,38
 544 339 544 339 535 378.5 c 128,-1,39
 526 418 526 418 508 444 c 128,-1,40
 490 470 490 470 463 482.5 c 128,-1,41
 436 495 436 495 400 495 c 0,42,43
 359 495 359 495 325 483 c 128,-1,44
 291 471 291 471 261.5 445 c 128,-1,45
 232 419 232 419 202 377 c 1,46,-1
 199 431 l 1,47,48
 224 476 224 476 254.5 508 c 128,-1,49
 285 540 285 540 323.5 557.5 c 128,-1,50
 362 575 362 575 411 575 c 0,51,52
 489 575 489 575 540.5 538 c 128,-1,53
 592 501 592 501 618 436 c 128,-1,54
 644 371 644 371 644 285 c 0,55,56
 644 200 644 200 616 132.5 c 128,-1,57
 588 65 588 65 533.5 26 c 128,-1,58
 479 -13 479 -13 400 -13 c 0,22,23
EndSplineSet
EndChar

StartChar: dotlessi
Encoding: 271 305 138
Width: 340
GlyphClass: 2
Flags: W
AnchorPoint: "Anchor-0" 182 565 basechar 0
LayerCount: 2
Fore
SplineSet
223 565 m 1,0,-1
 223 132 l 2,1,2
 223 92 223 92 244 78 c 128,-1,3
 265 64 265 64 302 64 c 2,4,-1
 307 64 l 1,5,-1
 307 0 l 1,6,-1
 45 0 l 1,7,-1
 45 64 l 1,8,-1
 50 64 l 2,9,10
 87 64 87 64 108 78 c 128,-1,11
 129 92 129 92 129 132 c 2,12,-1
 129 446 l 2,13,14
 129 468 129 468 109.5 476 c 128,-1,15
 90 484 90 484 54 491 c 2,16,-1
 45 493 l 1,17,-1
 45 565 l 1,18,-1
 223 565 l 1,0,-1
EndSplineSet
EndChar

StartChar: oe
Encoding: 156 339 139
Width: 1024
GlyphClass: 1
Flags: W
LayerCount: 2
Fore
SplineSet
589 276 m 0,0,1
 589 209 589 209 605 167 c 128,-1,2
 621 125 621 125 647 103 c 128,-1,3
 673 81 673 81 704.5 72.5 c 128,-1,4
 736 64 736 64 768 64 c 0,5,6
 807 64 807 64 835.5 75 c 128,-1,7
 864 86 864 86 885 106.5 c 128,-1,8
 906 127 906 127 922 155 c 1,9,-1
 980 115 l 1,10,11
 961 77 961 77 928 48 c 128,-1,12
 895 19 895 19 852.5 3 c 128,-1,13
 810 -13 810 -13 760 -13 c 0,14,15
 694 -13 694 -13 645.5 10.5 c 128,-1,16
 597 34 597 34 567 75 c 128,-1,17
 537 116 537 116 522 168 c 128,-1,18
 507 220 507 220 507 276 c 0,19,20
 507 334 507 334 523 388 c 128,-1,21
 539 442 539 442 570 484 c 128,-1,22
 601 526 601 526 645 550.5 c 128,-1,23
 689 575 689 575 745 575 c 0,24,25
 804 575 804 575 847.5 555 c 128,-1,26
 891 535 891 535 919 494.5 c 128,-1,27
 947 454 947 454 961.5 393 c 128,-1,28
 976 332 976 332 976 251 c 1,29,-1
 557 251 l 1,30,-1
 557 322 l 1,31,-1
 904 322 l 1,32,-1
 880 293 l 1,33,34
 877 371 877 371 863 415.5 c 128,-1,35
 849 460 849 460 821 478.5 c 128,-1,36
 793 497 793 497 745 497 c 0,37,38
 707 497 707 497 677.5 483.5 c 128,-1,39
 648 470 648 470 628.5 442.5 c 128,-1,40
 609 415 609 415 599 373.5 c 128,-1,41
 589 332 589 332 589 276 c 0,0,1
568 281 m 0,42,43
 568 226 568 226 552.5 173.5 c 128,-1,44
 537 121 537 121 505.5 79 c 128,-1,45
 474 37 474 37 426.5 12 c 128,-1,46
 379 -13 379 -13 315 -13 c 0,47,48
 231 -13 231 -13 171.5 21.5 c 128,-1,49
 112 56 112 56 80 122 c 128,-1,50
 48 188 48 188 48 281 c 0,51,52
 48 351 48 351 66.5 405.5 c 128,-1,53
 85 460 85 460 119.5 498 c 128,-1,54
 154 536 154 536 203.5 555.5 c 128,-1,55
 253 575 253 575 315 575 c 0,56,57
 383 575 383 575 431 551 c 128,-1,58
 479 527 479 527 509 485.5 c 128,-1,59
 539 444 539 444 553.5 391 c 128,-1,60
 568 338 568 338 568 281 c 0,42,43
149 281 m 0,61,62
 149 198 149 198 166.5 151 c 128,-1,63
 184 104 184 104 221 84 c 128,-1,64
 258 64 258 64 316 64 c 0,65,66
 378 64 378 64 415.5 83.5 c 128,-1,67
 453 103 453 103 470 150.5 c 128,-1,68
 487 198 487 198 487 281 c 0,69,70
 487 358 487 358 470 406 c 128,-1,71
 453 454 453 454 415 476 c 128,-1,72
 377 498 377 498 315 498 c 0,73,74
 258 498 258 498 221 476 c 128,-1,75
 184 454 184 454 166.5 406.5 c 128,-1,76
 149 359 149 359 149 281 c 0,61,62
EndSplineSet
EndChar

StartChar: dotlessj
Encoding: 272 567 140
Width: 338
GlyphClass: 2
Flags: W
AnchorPoint: "Anchor-0" 170 565 basechar 0
LayerCount: 2
Fore
SplineSet
134 -68 m 2,0,-1
 134 446 l 2,1,2
 134 461 134 461 123.5 469.5 c 128,-1,3
 113 478 113 478 94.5 483 c 128,-1,4
 76 488 76 488 54 491 c 2,5,-1
 40 493 l 1,6,-1
 40 565 l 1,7,-1
 229 565 l 1,8,-1
 229 -80 l 2,9,10
 229 -127 229 -127 213.5 -160 c 128,-1,11
 198 -193 198 -193 171.5 -212.5 c 128,-1,12
 145 -232 145 -232 111.5 -241 c 128,-1,13
 78 -250 78 -250 42 -250 c 0,14,15
 12 -250 12 -250 -15.5 -245.5 c 128,-1,16
 -43 -241 -43 -241 -54 -235 c 1,17,-1
 -54 -162 l 1,18,19
 -39 -167 -39 -167 -14.5 -171.5 c 128,-1,20
 10 -176 10 -176 41 -176 c 0,21,22
 69 -176 69 -176 90 -166.5 c 128,-1,23
 111 -157 111 -157 122.5 -133.5 c 128,-1,24
 134 -110 134 -110 134 -68 c 2,0,-1
EndSplineSet
EndChar

StartChar: mu
Encoding: 273 956 141
Width: 662
GlyphClass: 1
Flags: W
LayerCount: 2
Fore
SplineSet
545 -10 m 0,0,1
 510 -10 510 -10 485.5 3.5 c 128,-1,2
 461 17 461 17 448 46 c 128,-1,3
 435 75 435 75 431 122 c 1,4,-1
 429 127 l 1,5,-1
 429 565 l 1,6,-1
 525 565 l 1,7,-1
 525 106 l 2,8,9
 525 83 525 83 532.5 71.5 c 128,-1,10
 540 60 540 60 561 60 c 0,11,12
 573 60 573 60 580 65 c 128,-1,13
 587 70 587 70 593.5 80 c 128,-1,14
 600 90 600 90 608 107 c 1,15,-1
 657 77 l 1,16,17
 645 49 645 49 629 29.5 c 128,-1,18
 613 10 613 10 592.5 0 c 128,-1,19
 572 -10 572 -10 545 -10 c 0,0,1
175 565 m 1,20,-1
 175 162 l 2,21,22
 175 125 175 125 182 105.5 c 128,-1,23
 189 86 189 86 206.5 79.5 c 128,-1,24
 224 73 224 73 255 73 c 0,25,26
 284 73 284 73 313.5 84 c 128,-1,27
 343 95 343 95 373.5 117.5 c 128,-1,28
 404 140 404 140 435 176 c 1,29,-1
 448 127 l 1,30,31
 419 81 419 81 383 50 c 128,-1,32
 347 19 347 19 310 4 c 128,-1,33
 273 -11 273 -11 239 -11 c 0,34,35
 211 -11 211 -11 188 -2 c 128,-1,36
 165 7 165 7 147 25 c 128,-1,37
 129 43 129 43 116.5 69.5 c 128,-1,38
 104 96 104 96 97 132 c 1,39,-1
 120 147 l 1,40,41
 124 102 124 102 130 63.5 c 128,-1,42
 136 25 136 25 142.5 -7.5 c 128,-1,43
 149 -40 149 -40 155.5 -70 c 128,-1,44
 162 -100 162 -100 167.5 -128.5 c 128,-1,45
 173 -157 173 -157 176.5 -186.5 c 128,-1,46
 180 -216 180 -216 180 -250 c 1,47,-1
 79 -250 l 1,48,-1
 79 565 l 1,49,-1
 175 565 l 1,20,-1
EndSplineSet
EndChar

StartChar: ereversedcyr
Encoding: 274 1101 142
Width: 578
GlyphClass: 2
Flags: W
AnchorPoint: "Anchor-1" 254 0 basechar 0
AnchorPoint: "Anchor-0" 266 565 basechar 0
LayerCount: 2
Fore
SplineSet
481 248 m 1,0,-1
 196 248 l 1,1,-1
 196 324 l 1,2,-1
 481 324 l 1,3,-1
 481 248 l 1,0,-1
258 -13 m 0,4,5
 204 -13 204 -13 163.5 -5.5 c 128,-1,6
 123 2 123 2 96.5 11.5 c 128,-1,7
 70 21 70 21 59 28 c 1,8,-1
 59 178 l 1,9,-1
 160 178 l 1,10,-1
 160 61 l 1,11,12
 150 61 150 61 140.5 66.5 c 128,-1,13
 131 72 131 72 123 79.5 c 128,-1,14
 115 87 115 87 110 94 c 128,-1,15
 105 101 105 101 104 103 c 1,16,17
 121 94 121 94 144 85 c 128,-1,18
 167 76 167 76 195.5 70 c 128,-1,19
 224 64 224 64 257 64 c 0,20,21
 303 64 303 64 336 78 c 128,-1,22
 369 92 369 92 389.5 119 c 128,-1,23
 410 146 410 146 420 187 c 128,-1,24
 430 228 430 228 430 282 c 0,25,26
 430 335 430 335 420.5 375 c 128,-1,27
 411 415 411 415 390 442.5 c 128,-1,28
 369 470 369 470 336 484 c 128,-1,29
 303 498 303 498 256 498 c 0,30,31
 226 498 226 498 198 493.5 c 128,-1,32
 170 489 170 489 147 482.5 c 128,-1,33
 124 476 124 476 107 466 c 1,34,35
 108 469 108 469 113.5 475 c 128,-1,36
 119 481 119 481 127 488 c 128,-1,37
 135 495 135 495 144.5 499.5 c 128,-1,38
 154 504 154 504 164 504 c 1,39,-1
 164 384 l 1,40,-1
 63 384 l 1,41,-1
 63 537 l 1,42,43
 74 543 74 543 99 552 c 128,-1,44
 124 561 124 561 163 568 c 128,-1,45
 202 575 202 575 254 575 c 0,46,47
 343 575 343 575 404.5 541.5 c 128,-1,48
 466 508 466 508 498 442.5 c 128,-1,49
 530 377 530 377 530 282 c 0,50,51
 530 192 530 192 497.5 125.5 c 128,-1,52
 465 59 465 59 404 23 c 128,-1,53
 343 -13 343 -13 258 -13 c 0,4,5
EndSplineSet
EndChar

StartChar: yucyr
Encoding: 275 1102 143
Width: 894
GlyphClass: 2
Flags: W
AnchorPoint: "Anchor-1" 465 0 basechar 0
AnchorPoint: "Anchor-0" 465 565 basechar 0
LayerCount: 2
Fore
SplineSet
123 140 m 2,0,-1
 123 425 l 2,1,2
 123 470 123 470 105.5 485.5 c 128,-1,3
 88 501 88 501 48 501 c 2,4,-1
 44 501 l 1,5,-1
 44 565 l 1,6,-1
 293 565 l 1,7,-1
 293 501 l 1,8,-1
 288 501 l 2,9,10
 275 501 275 501 258.5 500 c 128,-1,11
 242 499 242 499 230.5 497 c 128,-1,12
 219 495 219 495 219 491 c 2,13,-1
 219 74 l 2,14,15
 219 71 219 71 230.5 68.5 c 128,-1,16
 242 66 242 66 258.5 65 c 128,-1,17
 275 64 275 64 288 64 c 2,18,-1
 293 64 l 1,19,-1
 293 0 l 1,20,-1
 44 0 l 1,21,-1
 44 64 l 1,22,-1
 48 64 l 2,23,24
 88 64 88 64 105.5 79.5 c 128,-1,25
 123 95 123 95 123 140 c 2,0,-1
166 254 m 1,26,-1
 166 329 l 1,27,-1
 385 329 l 1,28,-1
 385 254 l 1,29,-1
 166 254 l 1,26,-1
846 281 m 0,30,31
 846 187 846 187 814.5 121.5 c 128,-1,32
 783 56 783 56 724.5 21.5 c 128,-1,33
 666 -13 666 -13 585 -13 c 0,34,35
 503 -13 503 -13 444.5 21.5 c 128,-1,36
 386 56 386 56 354.5 121.5 c 128,-1,37
 323 187 323 187 323 281 c 256,38,39
 323 375 323 375 354.5 440.5 c 128,-1,40
 386 506 386 506 444.5 540.5 c 128,-1,41
 503 575 503 575 585 575 c 0,42,43
 666 575 666 575 724.5 540 c 128,-1,44
 783 505 783 505 814.5 439.5 c 128,-1,45
 846 374 846 374 846 281 c 0,30,31
423 281 m 0,46,47
 423 201 423 201 439 153.5 c 128,-1,48
 455 106 455 106 490.5 85 c 128,-1,49
 526 64 526 64 585 64 c 256,50,51
 644 64 644 64 679.5 84.5 c 128,-1,52
 715 105 715 105 730.5 153 c 128,-1,53
 746 201 746 201 746 281 c 0,54,55
 746 355 746 355 730.5 403 c 128,-1,56
 715 451 715 451 679.5 474.5 c 128,-1,57
 644 498 644 498 585 498 c 256,58,59
 526 498 526 498 490.5 474.5 c 128,-1,60
 455 451 455 451 439 403.5 c 128,-1,61
 423 356 423 356 423 281 c 0,46,47
EndSplineSet
Substitution2: "'locl' Localized Forms in Cyrillic lookup 12 subtable" yu.bgr
EndChar

StartChar: yacyr
Encoding: 276 1103 144
Width: 620
GlyphClass: 2
Flags: W
AnchorPoint: "Anchor-1" 279 0 basechar 0
AnchorPoint: "Anchor-0" 323 565 basechar 0
LayerCount: 2
Fore
SplineSet
401 490 m 1,0,-1
 292 490 l 2,1,2
 237 490 237 490 210 462 c 128,-1,3
 183 434 183 434 183 391 c 0,4,5
 183 346 183 346 209.5 321 c 128,-1,6
 236 296 236 296 288 296 c 2,7,-1
 437 296 l 1,8,-1
 437 220 l 1,9,-1
 281 220 l 1,10,-1
 252 226 l 1,11,12
 200 230 200 230 162.5 251 c 128,-1,13
 125 272 125 272 105.5 307 c 128,-1,14
 86 342 86 342 86 391 c 0,15,16
 86 443 86 443 109.5 482 c 128,-1,17
 133 521 133 521 178.5 543 c 128,-1,18
 224 565 224 565 290 565 c 2,19,-1
 576 565 l 1,20,-1
 576 501 l 1,21,-1
 572 501 l 2,22,23
 532 501 532 501 514.5 485.5 c 128,-1,24
 497 470 497 470 497 425 c 2,25,-1
 497 140 l 2,26,27
 497 95 497 95 514.5 79.5 c 128,-1,28
 532 64 532 64 572 64 c 2,29,-1
 576 64 l 1,30,-1
 576 0 l 1,31,-1
 327 0 l 1,32,-1
 327 64 l 1,33,-1
 332 64 l 2,34,35
 346 64 346 64 362 65 c 128,-1,36
 378 66 378 66 389.5 68.5 c 128,-1,37
 401 71 401 71 401 74 c 2,38,-1
 401 490 l 1,0,-1
209 254 m 1,39,-1
 303 239 l 1,40,-1
 171 0 l 1,41,-1
 38 0 l 1,42,-1
 38 72 l 1,43,-1
 46 72 l 2,44,45
 68 72 68 72 83.5 76.5 c 128,-1,46
 99 81 99 81 111 91.5 c 128,-1,47
 123 102 123 102 132 118 c 2,48,-1
 209 254 l 1,39,-1
EndSplineSet
EndChar

StartChar: ordfeminine
Encoding: 170 170 145
Width: 551
GlyphClass: 1
Flags: W
LayerCount: 2
Fore
SplineSet
340 577 m 1,0,-1
 340 517 l 1,1,2
 283 507 283 507 249 497.5 c 128,-1,3
 215 488 215 488 198.5 477.5 c 128,-1,4
 182 467 182 467 176.5 454 c 128,-1,5
 171 441 171 441 171 422 c 0,6,7
 171 402 171 402 176.5 392.5 c 128,-1,8
 182 383 182 383 194 380 c 128,-1,9
 206 377 206 377 224 377 c 0,10,11
 260 377 260 377 284.5 397.5 c 128,-1,12
 309 418 309 418 340 466 c 1,13,-1
 340 419 l 1,14,15
 323 383 323 383 303.5 359.5 c 128,-1,16
 284 336 284 336 259.5 323.5 c 128,-1,17
 235 311 235 311 201 311 c 0,18,19
 166 311 166 311 139 322 c 128,-1,20
 112 333 112 333 97.5 357.5 c 128,-1,21
 83 382 83 382 83 421 c 0,22,23
 83 452 83 452 95 476 c 128,-1,24
 107 500 107 500 136 518.5 c 128,-1,25
 165 537 165 537 214.5 551 c 128,-1,26
 264 565 264 565 340 577 c 1,0,-1
350 319 m 1,27,-1
 333 415 l 1,28,-1
 333 421 l 1,29,-1
 333 607 l 2,30,31
 333 625 333 625 326.5 637 c 128,-1,32
 320 649 320 649 302.5 655.5 c 128,-1,33
 285 662 285 662 252 662 c 0,34,35
 223 662 223 662 202.5 661.5 c 128,-1,36
 182 661 182 661 168.5 659 c 128,-1,37
 155 657 155 657 146 652 c 1,38,39
 149 652 149 652 154 658 c 128,-1,40
 159 664 159 664 166.5 671 c 128,-1,41
 174 678 174 678 183 680 c 1,42,-1
 183 587 l 1,43,-1
 104 587 l 1,44,-1
 104 698 l 1,45,46
 115 704 115 704 136 711.5 c 128,-1,47
 157 719 157 719 189 724.5 c 128,-1,48
 221 730 221 730 262 730 c 0,49,50
 309 730 309 730 343.5 720 c 128,-1,51
 378 710 378 710 398 687.5 c 128,-1,52
 418 665 418 665 418 628 c 2,53,-1
 418 417 l 2,54,55
 418 401 418 401 430.5 395 c 128,-1,56
 443 389 443 389 469 384 c 2,57,-1
 475 383 l 1,58,-1
 475 319 l 1,59,-1
 350 319 l 1,27,-1
EndSplineSet
EndChar

StartChar: ordmasculine
Encoding: 186 186 146
Width: 533
GlyphClass: 1
Flags: W
LayerCount: 2
Fore
SplineSet
466 521 m 256,0,1
 466 455 466 455 442 408.5 c 128,-1,2
 418 362 418 362 373.5 337.5 c 128,-1,3
 329 313 329 313 267 313 c 256,4,5
 205 313 205 313 160 337.5 c 128,-1,6
 115 362 115 362 91 408.5 c 128,-1,7
 67 455 67 455 67 521 c 256,8,9
 67 587 67 587 91 634 c 128,-1,10
 115 681 115 681 160 705.5 c 128,-1,11
 205 730 205 730 267 730 c 256,12,13
 329 730 329 730 373.5 705.5 c 128,-1,14
 418 681 418 681 442 634 c 128,-1,15
 466 587 466 587 466 521 c 256,0,1
154 521 m 0,16,17
 154 465 154 465 165.5 433 c 128,-1,18
 177 401 177 401 202 388.5 c 128,-1,19
 227 376 227 376 267 376 c 256,20,21
 307 376 307 376 332 388.5 c 128,-1,22
 357 401 357 401 368 433 c 128,-1,23
 379 465 379 465 379 521 c 0,24,25
 379 575 379 575 368 607 c 128,-1,26
 357 639 357 639 332 653 c 128,-1,27
 307 667 307 667 267 667 c 256,28,29
 227 667 227 667 202 653 c 128,-1,30
 177 639 177 639 165.5 607 c 128,-1,31
 154 575 154 575 154 521 c 0,16,17
EndSplineSet
EndChar

StartChar: arrowright
Encoding: 277 34196 147
Width: 840
GlyphClass: 1
Flags: W
LayerCount: 2
Fore
SplineSet
356 614 m 1,0,-1
 775 377 l 1,1,-1
 775 330 l 1,2,-1
 356 92 l 1,3,-1
 327 132 l 1,4,-1
 524 310 l 1,5,-1
 65 310 l 1,6,-1
 65 397 l 1,7,-1
 524 397 l 1,8,-1
 326 573 l 1,9,-1
 356 614 l 1,0,-1
EndSplineSet
EndChar

StartChar: zero
Encoding: 48 48 148
Width: 560
GlyphClass: 1
Flags: W
LayerCount: 2
Fore
SplineSet
280 -11 m 256,0,1
 226 -11 226 -11 183 10.5 c 128,-1,2
 140 32 140 32 109.5 75 c 128,-1,3
 79 118 79 118 63 183.5 c 128,-1,4
 47 249 47 249 47 336 c 0,5,6
 47 424 47 424 63 489 c 128,-1,7
 79 554 79 554 109.5 597 c 128,-1,8
 140 640 140 640 183 661.5 c 128,-1,9
 226 683 226 683 280 683 c 256,10,11
 334 683 334 683 377 661.5 c 128,-1,12
 420 640 420 640 450.5 597 c 128,-1,13
 481 554 481 554 497 489 c 128,-1,14
 513 424 513 424 513 336 c 0,15,16
 513 249 513 249 497 183.5 c 128,-1,17
 481 118 481 118 450.5 75 c 128,-1,18
 420 32 420 32 377 10.5 c 128,-1,19
 334 -11 334 -11 280 -11 c 256,0,1
280 60 m 256,20,21
 319 60 319 60 344.5 76 c 128,-1,22
 370 92 370 92 384.5 125 c 128,-1,23
 399 158 399 158 405 210.5 c 128,-1,24
 411 263 411 263 411 336 c 256,25,26
 411 409 411 409 405 461.5 c 128,-1,27
 399 514 399 514 384.5 547 c 128,-1,28
 370 580 370 580 344.5 596 c 128,-1,29
 319 612 319 612 280 612 c 256,30,31
 241 612 241 612 215.5 596 c 128,-1,32
 190 580 190 580 175.5 547 c 128,-1,33
 161 514 161 514 155 461.5 c 128,-1,34
 149 409 149 409 149 336 c 256,35,36
 149 263 149 263 155 210.5 c 128,-1,37
 161 158 161 158 175.5 125 c 128,-1,38
 190 92 190 92 215.5 76 c 128,-1,39
 241 60 241 60 280 60 c 256,20,21
EndSplineSet
Substitution2: "'zero' Slashed Zero lookup 68 subtable" zero.slash
Substitution2: "'pnum' Proportional Numbers lookup 57 subtable" zero.midprop
Substitution2: "'lnum' Lining Figures lookup 56 subtable" zero.lintab
Substitution2: "'onum' Oldstyle Figures lookup 55 subtable" zero.oldtab
Substitution2: "'sinf' Scientific Inferiors lookup 54 subtable" zero.sub
Substitution2: "'subs' Subscript lookup 53 subtable" zero.sub
Substitution2: "'sups' Superscript lookup 52 subtable" zero.sup
Substitution2: "'numr' Numerators lookup 51 subtable" zero.num
Substitution2: "'dnom' Denominators lookup 50 subtable" zero.den
Substitution2: "Single Substitution lookup 37 subtable" zero.den
Substitution2: "Single Substitution lookup 35 subtable" zero.num
Substitution2: "Single Substitution lookup 33 subtable" zero.num
Substitution2: "Single Substitution lookup 31 subtable" zero.num
Substitution2: "Single Substitution lookup 29 subtable" zero.num
Substitution2: "Single Substitution lookup 27 subtable" zero.num
Substitution2: "Single Substitution lookup 25 subtable" zero.num
Substitution2: "Single Substitution lookup 23 subtable" zero.num
Substitution2: "Single Substitution lookup 21 subtable" zero.num
Substitution2: "Single Substitution lookup 19 subtable" zero.num
Substitution2: "Single Substitution lookup 17 subtable" zero.num
EndChar

StartChar: one
Encoding: 49 49 149
Width: 560
GlyphClass: 1
Flags: W
LayerCount: 2
Fore
SplineSet
355 107 m 2,0,1
 355 93 355 93 369 85 c 128,-1,2
 383 77 383 77 408 74 c 128,-1,3
 433 71 433 71 467 71 c 2,4,-1
 506 71 l 1,5,-1
 506 0 l 1,6,-1
 98 0 l 1,7,-1
 98 71 l 1,8,-1
 156 71 l 2,9,10
 187 71 187 71 209.5 74 c 128,-1,11
 232 77 232 77 244.5 85 c 128,-1,12
 257 93 257 93 257 107 c 2,13,-1
 257 583 l 1,14,-1
 275 596 l 1,15,16
 269 569 269 569 251.5 548.5 c 128,-1,17
 234 528 234 528 208 515 c 128,-1,18
 182 502 182 502 149 496 c 128,-1,19
 116 490 116 490 78 490 c 1,20,-1
 78 573 l 1,21,22
 119 574 119 574 152 579.5 c 128,-1,23
 185 585 185 585 211.5 595.5 c 128,-1,24
 238 606 238 606 258 623.5 c 128,-1,25
 278 641 278 641 291 667 c 1,26,-1
 355 667 l 1,27,-1
 355 107 l 2,0,1
EndSplineSet
Substitution2: "'pnum' Proportional Numbers lookup 57 subtable" one.midprop
Substitution2: "'lnum' Lining Figures lookup 56 subtable" one.lintab
Substitution2: "'onum' Oldstyle Figures lookup 55 subtable" one.oldtab
Substitution2: "'sinf' Scientific Inferiors lookup 54 subtable" one.sub
Substitution2: "'subs' Subscript lookup 53 subtable" one.sub
Substitution2: "'sups' Superscript lookup 52 subtable" one.sup
Substitution2: "'numr' Numerators lookup 51 subtable" one.num
Substitution2: "'dnom' Denominators lookup 50 subtable" one.den
Substitution2: "Single Substitution lookup 37 subtable" one.den
Substitution2: "Single Substitution lookup 35 subtable" one.num
Substitution2: "Single Substitution lookup 33 subtable" one.num
Substitution2: "Single Substitution lookup 31 subtable" one.num
Substitution2: "Single Substitution lookup 29 subtable" one.num
Substitution2: "Single Substitution lookup 27 subtable" one.num
Substitution2: "Single Substitution lookup 25 subtable" one.num
Substitution2: "Single Substitution lookup 23 subtable" one.num
Substitution2: "Single Substitution lookup 21 subtable" one.num
Substitution2: "Single Substitution lookup 19 subtable" one.num
Substitution2: "Single Substitution lookup 17 subtable" one.num
EndChar

StartChar: two
Encoding: 50 50 150
Width: 560
GlyphClass: 1
Flags: W
LayerCount: 2
Fore
SplineSet
300 86 m 2,0,-1
 82 86 l 2,1,2
 76 83 76 83 75.5 74.5 c 128,-1,3
 75 66 75 66 78.5 59 c 128,-1,4
 82 52 82 52 88 54 c 0,5,6
 146 100 146 100 202.5 143.5 c 128,-1,7
 259 187 259 187 309 229.5 c 128,-1,8
 359 272 359 272 397.5 315.5 c 128,-1,9
 436 359 436 359 458 405 c 128,-1,10
 480 451 480 451 480 500 c 0,11,12
 480 563 480 563 456 603.5 c 128,-1,13
 432 644 432 644 385 663.5 c 128,-1,14
 338 683 338 683 269 683 c 0,15,16
 221 683 221 683 180.5 670 c 128,-1,17
 140 657 140 657 110.5 639.5 c 128,-1,18
 81 622 81 622 66 607 c 1,19,-1
 66 463 l 1,20,-1
 166 463 l 1,21,-1
 166 606 l 2,22,23
 166 613 166 613 159 610.5 c 128,-1,24
 152 608 152 608 143 600.5 c 128,-1,25
 134 593 134 593 127 583.5 c 128,-1,26
 120 574 120 574 119 565 c 1,27,28
 134 575 134 575 154.5 585.5 c 128,-1,29
 175 596 175 596 201.5 603 c 128,-1,30
 228 610 228 610 259 610 c 0,31,32
 297 610 297 610 324 600.5 c 128,-1,33
 351 591 351 591 365.5 565 c 128,-1,34
 380 539 380 539 380 493 c 0,35,36
 380 451 380 451 366.5 416.5 c 128,-1,37
 353 382 353 382 326.5 349.5 c 128,-1,38
 300 317 300 317 261 281.5 c 128,-1,39
 222 246 222 246 170 203.5 c 128,-1,40
 118 161 118 161 54 105 c 1,41,-1
 54 0 l 1,42,-1
 500 0 l 1,43,-1
 500 213 l 1,44,-1
 426 213 l 1,45,-1
 417 127 l 2,46,47
 415 110 415 110 403.5 101 c 128,-1,48
 392 92 392 92 366.5 89 c 128,-1,49
 341 86 341 86 300 86 c 2,0,-1
EndSplineSet
Substitution2: "'pnum' Proportional Numbers lookup 57 subtable" two.midprop
Substitution2: "'lnum' Lining Figures lookup 56 subtable" two.lintab
Substitution2: "'onum' Oldstyle Figures lookup 55 subtable" two.oldtab
Substitution2: "'sinf' Scientific Inferiors lookup 54 subtable" two.sub
Substitution2: "'subs' Subscript lookup 53 subtable" two.sub
Substitution2: "'sups' Superscript lookup 52 subtable" two.sup
Substitution2: "'numr' Numerators lookup 51 subtable" two.num
Substitution2: "'dnom' Denominators lookup 50 subtable" two.den
Substitution2: "Single Substitution lookup 37 subtable" two.den
Substitution2: "Single Substitution lookup 35 subtable" two.num
Substitution2: "Single Substitution lookup 33 subtable" two.num
Substitution2: "Single Substitution lookup 31 subtable" two.num
Substitution2: "Single Substitution lookup 29 subtable" two.num
Substitution2: "Single Substitution lookup 27 subtable" two.num
Substitution2: "Single Substitution lookup 25 subtable" two.num
Substitution2: "Single Substitution lookup 23 subtable" two.num
Substitution2: "Single Substitution lookup 21 subtable" two.num
Substitution2: "Single Substitution lookup 19 subtable" two.num
Substitution2: "Single Substitution lookup 17 subtable" two.num
EndChar

StartChar: three
Encoding: 51 51 151
Width: 560
GlyphClass: 1
Flags: W
LayerCount: 2
Fore
SplineSet
243 332 m 1,0,-1
 322 306 l 1,1,-1
 332 340 l 1,2,-1
 225 322 l 1,3,4
 297 322 297 322 357 344.5 c 128,-1,5
 417 367 417 367 453 410 c 128,-1,6
 489 453 489 453 489 514 c 0,7,8
 489 569 489 569 464.5 606.5 c 128,-1,9
 440 644 440 644 393 663.5 c 128,-1,10
 346 683 346 683 277 683 c 0,11,12
 225 683 225 683 185.5 670.5 c 128,-1,13
 146 658 146 658 120.5 641 c 128,-1,14
 95 624 95 624 80 608 c 1,15,-1
 80 481 l 1,16,-1
 177 481 l 1,17,-1
 177 603 l 1,18,19
 167 602 167 602 158.5 596.5 c 128,-1,20
 150 591 150 591 145 584 c 128,-1,21
 140 577 140 577 137.5 569.5 c 128,-1,22
 135 562 135 562 135 555 c 1,23,24
 155 576 155 576 187.5 593 c 128,-1,25
 220 610 220 610 278 610 c 0,26,27
 315 610 315 610 340 600.5 c 128,-1,28
 365 591 365 591 378 566.5 c 128,-1,29
 391 542 391 542 391 499 c 0,30,31
 391 451 391 451 371.5 421.5 c 128,-1,32
 352 392 352 392 318.5 378.5 c 128,-1,33
 285 365 285 365 241 365 c 2,34,-1
 160 365 l 1,35,-1
 160 287 l 1,36,-1
 253 287 l 2,37,38
 306 287 306 287 341.5 272 c 128,-1,39
 377 257 377 257 395 228 c 128,-1,40
 413 199 413 199 413 157 c 0,41,42
 413 101 413 101 396.5 70 c 128,-1,43
 380 39 380 39 348.5 27.5 c 128,-1,44
 317 16 317 16 271 16 c 0,45,46
 228 16 228 16 199.5 29 c 128,-1,47
 171 42 171 42 153 62.5 c 128,-1,48
 135 83 135 83 122.5 106 c 128,-1,49
 110 129 110 129 99 150 c 1,50,-1
 34 102 l 1,51,52
 53 53 53 53 82 17 c 128,-1,53
 111 -19 111 -19 156.5 -38.5 c 128,-1,54
 202 -58 202 -58 272 -58 c 0,55,56
 345 -58 345 -58 399 -34.5 c 128,-1,57
 453 -11 453 -11 483 36.5 c 128,-1,58
 513 84 513 84 513 153 c 0,59,60
 513 195 513 195 498 227.5 c 128,-1,61
 483 260 483 260 450.5 283.5 c 128,-1,62
 418 307 418 307 367 319.5 c 128,-1,63
 316 332 316 332 243 332 c 1,0,-1
EndSplineSet
Substitution2: "'pnum' Proportional Numbers lookup 57 subtable" three.midprop
Substitution2: "'lnum' Lining Figures lookup 56 subtable" three.lintab
Substitution2: "'onum' Oldstyle Figures lookup 55 subtable" three.oldtab
Substitution2: "'sinf' Scientific Inferiors lookup 54 subtable" three.sub
Substitution2: "'subs' Subscript lookup 53 subtable" three.sub
Substitution2: "'sups' Superscript lookup 52 subtable" three.sup
Substitution2: "'numr' Numerators lookup 51 subtable" three.num
Substitution2: "'dnom' Denominators lookup 50 subtable" three.den
Substitution2: "Single Substitution lookup 37 subtable" three.den
Substitution2: "Single Substitution lookup 35 subtable" three.num
Substitution2: "Single Substitution lookup 33 subtable" three.num
Substitution2: "Single Substitution lookup 31 subtable" three.num
Substitution2: "Single Substitution lookup 29 subtable" three.num
Substitution2: "Single Substitution lookup 27 subtable" three.num
Substitution2: "Single Substitution lookup 25 subtable" three.num
Substitution2: "Single Substitution lookup 23 subtable" three.num
Substitution2: "Single Substitution lookup 21 subtable" three.num
Substitution2: "Single Substitution lookup 19 subtable" three.num
Substitution2: "Single Substitution lookup 17 subtable" three.num
EndChar

StartChar: four
Encoding: 52 52 152
Width: 560
GlyphClass: 1
Flags: W
LayerCount: 2
Fore
SplineSet
43 142 m 1,0,-1
 43 240 l 1,1,-1
 296 667 l 1,2,-1
 366 667 l 1,3,-1
 358 631 l 1,4,-1
 92 183 l 1,5,-1
 72 219 l 1,6,-1
 545 219 l 1,7,-1
 545 142 l 1,8,-1
 43 142 l 1,0,-1
440 -50 m 1,9,-1
 346 -50 l 1,10,-1
 346 655 l 1,11,-1
 343 667 l 1,12,-1
 440 667 l 1,13,-1
 440 -50 l 1,9,-1
EndSplineSet
Substitution2: "'pnum' Proportional Numbers lookup 57 subtable" four.midprop
Substitution2: "'lnum' Lining Figures lookup 56 subtable" four.lintab
Substitution2: "'onum' Oldstyle Figures lookup 55 subtable" four.oldtab
Substitution2: "'sinf' Scientific Inferiors lookup 54 subtable" four.sub
Substitution2: "'subs' Subscript lookup 53 subtable" four.sub
Substitution2: "'sups' Superscript lookup 52 subtable" four.sup
Substitution2: "'numr' Numerators lookup 51 subtable" four.num
Substitution2: "'dnom' Denominators lookup 50 subtable" four.den
Substitution2: "Single Substitution lookup 37 subtable" four.den
Substitution2: "Single Substitution lookup 35 subtable" four.num
Substitution2: "Single Substitution lookup 33 subtable" four.num
Substitution2: "Single Substitution lookup 31 subtable" four.num
Substitution2: "Single Substitution lookup 29 subtable" four.num
Substitution2: "Single Substitution lookup 27 subtable" four.num
Substitution2: "Single Substitution lookup 25 subtable" four.num
Substitution2: "Single Substitution lookup 23 subtable" four.num
Substitution2: "Single Substitution lookup 21 subtable" four.num
Substitution2: "Single Substitution lookup 19 subtable" four.num
Substitution2: "Single Substitution lookup 17 subtable" four.num
EndChar

StartChar: five
Encoding: 53 53 153
Width: 560
GlyphClass: 1
Flags: W
LayerCount: 2
Fore
SplineSet
260 -58 m 0,0,1
 336 -58 336 -58 392 -30 c 128,-1,2
 448 -2 448 -2 479.5 54.5 c 128,-1,3
 511 111 511 111 511 196 c 0,4,5
 511 269 511 269 486.5 320 c 128,-1,6
 462 371 462 371 417 398 c 128,-1,7
 372 425 372 425 309 425 c 0,8,9
 264 425 264 425 236 411.5 c 128,-1,10
 208 398 208 398 188 368 c 128,-1,11
 168 338 168 338 149 288 c 1,12,13
 152 292 152 292 156 295.5 c 128,-1,14
 160 299 160 299 164 300 c 128,-1,15
 168 301 168 301 169 296 c 1,16,-1
 169 647 l 1,17,-1
 129 584 l 1,18,-1
 444 584 l 1,19,-1
 469 667 l 1,20,-1
 91 667 l 1,21,-1
 91 260 l 1,22,-1
 164 260 l 1,23,24
 183 294 183 294 199.5 314 c 128,-1,25
 216 334 216 334 237 342.5 c 128,-1,26
 258 351 258 351 290 351 c 0,27,28
 327 351 327 351 354.5 338 c 128,-1,29
 382 325 382 325 396.5 291.5 c 128,-1,30
 411 258 411 258 411 196 c 0,31,32
 411 127 411 127 392.5 88 c 128,-1,33
 374 49 374 49 340.5 32.5 c 128,-1,34
 307 16 307 16 262 16 c 0,35,36
 210 16 210 16 180 34.5 c 128,-1,37
 150 53 150 53 132.5 81.5 c 128,-1,38
 115 110 115 110 101 141 c 1,39,-1
 29 94 l 1,40,41
 48 49 48 49 75.5 14.5 c 128,-1,42
 103 -20 103 -20 147.5 -39 c 128,-1,43
 192 -58 192 -58 260 -58 c 0,0,1
EndSplineSet
Substitution2: "'pnum' Proportional Numbers lookup 57 subtable" five.midprop
Substitution2: "'lnum' Lining Figures lookup 56 subtable" five.lintab
Substitution2: "'onum' Oldstyle Figures lookup 55 subtable" five.oldtab
Substitution2: "'sinf' Scientific Inferiors lookup 54 subtable" five.sub
Substitution2: "'subs' Subscript lookup 53 subtable" five.sub
Substitution2: "'sups' Superscript lookup 52 subtable" five.sup
Substitution2: "'numr' Numerators lookup 51 subtable" five.num
Substitution2: "'dnom' Denominators lookup 50 subtable" five.den
Substitution2: "Single Substitution lookup 37 subtable" five.den
Substitution2: "Single Substitution lookup 35 subtable" five.num
Substitution2: "Single Substitution lookup 33 subtable" five.num
Substitution2: "Single Substitution lookup 31 subtable" five.num
Substitution2: "Single Substitution lookup 29 subtable" five.num
Substitution2: "Single Substitution lookup 27 subtable" five.num
Substitution2: "Single Substitution lookup 25 subtable" five.num
Substitution2: "Single Substitution lookup 23 subtable" five.num
Substitution2: "Single Substitution lookup 21 subtable" five.num
Substitution2: "Single Substitution lookup 19 subtable" five.num
Substitution2: "Single Substitution lookup 17 subtable" five.num
EndChar

StartChar: six
Encoding: 54 54 154
Width: 560
GlyphClass: 1
Flags: W
LayerCount: 2
Fore
SplineSet
469 669 m 1,0,-1
 458 740 l 1,1,2
 359 730 359 730 282.5 700 c 128,-1,3
 206 670 206 670 154.5 616.5 c 128,-1,4
 103 563 103 563 76.5 484 c 128,-1,5
 50 405 50 405 50 295 c 0,6,7
 50 186 50 186 79.5 118.5 c 128,-1,8
 109 51 109 51 163.5 20.5 c 128,-1,9
 218 -10 218 -10 293 -10 c 0,10,11
 365 -10 365 -10 416 22.5 c 128,-1,12
 467 55 467 55 493.5 112 c 128,-1,13
 520 169 520 169 520 241 c 0,14,15
 520 312 520 312 497.5 362.5 c 128,-1,16
 475 413 475 413 431.5 440.5 c 128,-1,17
 388 468 388 468 324 468 c 0,18,19
 286 468 286 468 255.5 456 c 128,-1,20
 225 444 225 444 202 421 c 128,-1,21
 179 398 179 398 160 366 c 128,-1,22
 141 334 141 334 126 294 c 1,23,-1
 131 247 l 1,24,25
 151 285 151 285 169 312.5 c 128,-1,26
 187 340 187 340 206.5 358 c 128,-1,27
 226 376 226 376 250 385 c 128,-1,28
 274 394 274 394 305 394 c 0,29,30
 354 394 354 394 378.5 375 c 128,-1,31
 403 356 403 356 410.5 321.5 c 128,-1,32
 418 287 418 287 418 241 c 0,33,34
 418 188 418 188 406.5 148.5 c 128,-1,35
 395 109 395 109 367.5 86.5 c 128,-1,36
 340 64 340 64 292 64 c 0,37,38
 255 64 255 64 228 75.5 c 128,-1,39
 201 87 201 87 183 113.5 c 128,-1,40
 165 140 165 140 157 184.5 c 128,-1,41
 149 229 149 229 149 295 c 0,42,43
 149 400 149 400 168.5 468 c 128,-1,44
 188 536 188 536 227.5 576.5 c 128,-1,45
 267 617 267 617 327.5 638 c 128,-1,46
 388 659 388 659 469 669 c 1,0,-1
EndSplineSet
Substitution2: "'pnum' Proportional Numbers lookup 57 subtable" six.midprop
Substitution2: "'lnum' Lining Figures lookup 56 subtable" six.lintab
Substitution2: "'onum' Oldstyle Figures lookup 55 subtable" six.oldtab
Substitution2: "'sinf' Scientific Inferiors lookup 54 subtable" six.sub
Substitution2: "'subs' Subscript lookup 53 subtable" six.sub
Substitution2: "'sups' Superscript lookup 52 subtable" six.sup
Substitution2: "'numr' Numerators lookup 51 subtable" six.num
Substitution2: "'dnom' Denominators lookup 50 subtable" six.den
Substitution2: "Single Substitution lookup 37 subtable" six.den
Substitution2: "Single Substitution lookup 35 subtable" six.num
Substitution2: "Single Substitution lookup 33 subtable" six.num
Substitution2: "Single Substitution lookup 31 subtable" six.num
Substitution2: "Single Substitution lookup 29 subtable" six.num
Substitution2: "Single Substitution lookup 27 subtable" six.num
Substitution2: "Single Substitution lookup 25 subtable" six.num
Substitution2: "Single Substitution lookup 23 subtable" six.num
Substitution2: "Single Substitution lookup 21 subtable" six.num
Substitution2: "Single Substitution lookup 19 subtable" six.num
Substitution2: "Single Substitution lookup 17 subtable" six.num
EndChar

StartChar: seven
Encoding: 55 55 155
Width: 560
GlyphClass: 1
Flags: W
LayerCount: 2
Fore
SplineSet
267 576 m 2,0,-1
 482 576 l 1,1,-1
 468 601 l 1,2,3
 446 582 446 582 413 541 c 128,-1,4
 380 500 380 500 343.5 440.5 c 128,-1,5
 307 381 307 381 274 305.5 c 128,-1,6
 241 230 241 230 217.5 141.5 c 128,-1,7
 194 53 194 53 187 -46 c 1,8,-1
 294 -46 l 1,9,10
 301 79 301 79 319.5 170 c 128,-1,11
 338 261 338 261 367.5 330 c 128,-1,12
 397 399 397 399 437 458.5 c 128,-1,13
 477 518 477 518 526 582 c 1,14,-1
 526 667 l 1,15,-1
 63 667 l 1,16,-1
 63 449 l 1,17,-1
 139 449 l 1,18,-1
 147 533 l 2,19,20
 149 551 149 551 161.5 560.5 c 128,-1,21
 174 570 174 570 200 573 c 128,-1,22
 226 576 226 576 267 576 c 2,0,-1
EndSplineSet
Substitution2: "'pnum' Proportional Numbers lookup 57 subtable" seven.midprop
Substitution2: "'lnum' Lining Figures lookup 56 subtable" seven.lintab
Substitution2: "'onum' Oldstyle Figures lookup 55 subtable" seven.oldtab
Substitution2: "'sinf' Scientific Inferiors lookup 54 subtable" seven.sub
Substitution2: "'subs' Subscript lookup 53 subtable" seven.sub
Substitution2: "'sups' Superscript lookup 52 subtable" seven.sup
Substitution2: "'numr' Numerators lookup 51 subtable" seven.num
Substitution2: "'dnom' Denominators lookup 50 subtable" seven.den
Substitution2: "Single Substitution lookup 37 subtable" seven.den
Substitution2: "Single Substitution lookup 35 subtable" seven.num
Substitution2: "Single Substitution lookup 33 subtable" seven.num
Substitution2: "Single Substitution lookup 31 subtable" seven.num
Substitution2: "Single Substitution lookup 29 subtable" seven.num
Substitution2: "Single Substitution lookup 27 subtable" seven.num
Substitution2: "Single Substitution lookup 25 subtable" seven.num
Substitution2: "Single Substitution lookup 23 subtable" seven.num
Substitution2: "Single Substitution lookup 21 subtable" seven.num
Substitution2: "Single Substitution lookup 19 subtable" seven.num
Substitution2: "Single Substitution lookup 17 subtable" seven.num
EndChar

StartChar: eight
Encoding: 56 56 156
Width: 560
GlyphClass: 1
Flags: W
LayerCount: 2
Fore
SplineSet
280 61 m 256,0,1
 314 61 314 61 340 69 c 128,-1,2
 366 77 366 77 384 94 c 128,-1,3
 402 111 402 111 411 137 c 128,-1,4
 420 163 420 163 420 199 c 0,5,6
 420 250 420 250 405 281.5 c 128,-1,7
 390 313 390 313 359 327.5 c 128,-1,8
 328 342 328 342 280 342 c 0,9,10
 233 342 233 342 202 327.5 c 128,-1,11
 171 313 171 313 156 281.5 c 128,-1,12
 141 250 141 250 141 199 c 0,13,14
 141 163 141 163 150 137 c 128,-1,15
 159 111 159 111 177 94 c 128,-1,16
 195 77 195 77 220.5 69 c 128,-1,17
 246 61 246 61 280 61 c 256,0,1
280 415 m 256,18,19
 317 415 317 415 342 428.5 c 128,-1,20
 367 442 367 442 379.5 469.5 c 128,-1,21
 392 497 392 497 392 538 c 256,22,23
 392 579 392 579 379.5 605 c 128,-1,24
 367 631 367 631 342 643 c 128,-1,25
 317 655 317 655 280 655 c 0,26,27
 242 655 242 655 217.5 643 c 128,-1,28
 193 631 193 631 181 605 c 128,-1,29
 169 579 169 579 169 538 c 0,30,31
 169 496 169 496 181 469 c 128,-1,32
 193 442 193 442 218 428.5 c 128,-1,33
 243 415 243 415 280 415 c 256,18,19
280 727 m 256,34,35
 346 727 346 727 392 705.5 c 128,-1,36
 438 684 438 684 462 644 c 128,-1,37
 486 604 486 604 486 548 c 0,38,39
 486 497 486 497 465.5 460.5 c 128,-1,40
 445 424 445 424 408 402.5 c 128,-1,41
 371 381 371 381 322 375 c 1,42,-1
 364 395 l 1,43,-1
 364 368 l 1,44,-1
 322 388 l 1,45,46
 380 381 380 381 425 355.5 c 128,-1,47
 470 330 470 330 496 289 c 128,-1,48
 522 248 522 248 522 193 c 0,49,50
 522 131 522 131 493.5 85.5 c 128,-1,51
 465 40 465 40 411 15 c 128,-1,52
 357 -10 357 -10 280 -10 c 256,53,54
 203 -10 203 -10 149 15 c 128,-1,55
 95 40 95 40 66.5 85.5 c 128,-1,56
 38 131 38 131 38 193 c 0,57,58
 38 248 38 248 64 289 c 128,-1,59
 90 330 90 330 135.5 355.5 c 128,-1,60
 181 381 181 381 239 388 c 1,61,-1
 196 368 l 1,62,-1
 196 395 l 1,63,-1
 239 375 l 1,64,65
 190 381 190 381 153 402.5 c 128,-1,66
 116 424 116 424 95 460.5 c 128,-1,67
 74 497 74 497 74 548 c 0,68,69
 74 604 74 604 98 644 c 128,-1,70
 122 684 122 684 168 705.5 c 128,-1,71
 214 727 214 727 280 727 c 256,34,35
EndSplineSet
Substitution2: "'pnum' Proportional Numbers lookup 57 subtable" eight.midprop
Substitution2: "'lnum' Lining Figures lookup 56 subtable" eight.lintab
Substitution2: "'onum' Oldstyle Figures lookup 55 subtable" eight.oldtab
Substitution2: "'sinf' Scientific Inferiors lookup 54 subtable" eight.sub
Substitution2: "'subs' Subscript lookup 53 subtable" eight.sub
Substitution2: "'sups' Superscript lookup 52 subtable" eight.sup
Substitution2: "'numr' Numerators lookup 51 subtable" eight.num
Substitution2: "'dnom' Denominators lookup 50 subtable" eight.den
Substitution2: "Single Substitution lookup 37 subtable" eight.den
Substitution2: "Single Substitution lookup 35 subtable" eight.num
Substitution2: "Single Substitution lookup 33 subtable" eight.num
Substitution2: "Single Substitution lookup 31 subtable" eight.num
Substitution2: "Single Substitution lookup 29 subtable" eight.num
Substitution2: "Single Substitution lookup 27 subtable" eight.num
Substitution2: "Single Substitution lookup 25 subtable" eight.num
Substitution2: "Single Substitution lookup 23 subtable" eight.num
Substitution2: "Single Substitution lookup 21 subtable" eight.num
Substitution2: "Single Substitution lookup 19 subtable" eight.num
Substitution2: "Single Substitution lookup 17 subtable" eight.num
EndChar

StartChar: nine
Encoding: 57 57 157
Width: 560
GlyphClass: 1
Flags: W
LayerCount: 2
Fore
SplineSet
98 4 m 1,0,-1
 109 -67 l 1,1,2
 210 -56 210 -56 286.5 -26.5 c 128,-1,3
 363 3 363 3 415 56 c 128,-1,4
 467 109 467 109 493.5 188.5 c 128,-1,5
 520 268 520 268 520 378 c 0,6,7
 520 489 520 489 491 556 c 128,-1,8
 462 623 462 623 408 653 c 128,-1,9
 354 683 354 683 279 683 c 0,10,11
 207 683 207 683 156 652.5 c 128,-1,12
 105 622 105 622 77.5 567.5 c 128,-1,13
 50 513 50 513 50 442 c 0,14,15
 50 374 50 374 73.5 323 c 128,-1,16
 97 272 97 272 142 244 c 128,-1,17
 187 216 187 216 251 216 c 0,18,19
 301 216 301 216 336 237 c 128,-1,20
 371 258 371 258 397 297 c 128,-1,21
 423 336 423 336 445 389 c 1,22,-1
 440 452 l 1,23,24
 412 395 412 395 387.5 359 c 128,-1,25
 363 323 363 323 335 306.5 c 128,-1,26
 307 290 307 290 267 290 c 0,27,28
 219 290 219 290 194 310 c 128,-1,29
 169 330 169 330 160.5 365 c 128,-1,30
 152 400 152 400 152 444 c 0,31,32
 152 483 152 483 159 513.5 c 128,-1,33
 166 544 166 544 181 565.5 c 128,-1,34
 196 587 196 587 220.5 598 c 128,-1,35
 245 609 245 609 280 609 c 0,36,37
 317 609 317 609 343 598.5 c 128,-1,38
 369 588 369 588 386.5 562.5 c 128,-1,39
 404 537 404 537 412.5 492 c 128,-1,40
 421 447 421 447 421 378 c 0,41,42
 421 272 421 272 401.5 203.5 c 128,-1,43
 382 135 382 135 342 95 c 128,-1,44
 302 55 302 55 241.5 34.5 c 128,-1,45
 181 14 181 14 98 4 c 1,0,-1
EndSplineSet
Substitution2: "'pnum' Proportional Numbers lookup 57 subtable" nine.midprop
Substitution2: "'lnum' Lining Figures lookup 56 subtable" nine.lintab
Substitution2: "'onum' Oldstyle Figures lookup 55 subtable" nine.oldtab
Substitution2: "'sinf' Scientific Inferiors lookup 54 subtable" nine.sub
Substitution2: "'subs' Subscript lookup 53 subtable" nine.sub
Substitution2: "'sups' Superscript lookup 52 subtable" nine.sup
Substitution2: "'numr' Numerators lookup 51 subtable" nine.num
Substitution2: "'dnom' Denominators lookup 50 subtable" nine.den
Substitution2: "Single Substitution lookup 37 subtable" nine.den
Substitution2: "Single Substitution lookup 35 subtable" nine.num
Substitution2: "Single Substitution lookup 33 subtable" nine.num
Substitution2: "Single Substitution lookup 31 subtable" nine.num
Substitution2: "Single Substitution lookup 29 subtable" nine.num
Substitution2: "Single Substitution lookup 27 subtable" nine.num
Substitution2: "Single Substitution lookup 25 subtable" nine.num
Substitution2: "Single Substitution lookup 23 subtable" nine.num
Substitution2: "Single Substitution lookup 21 subtable" nine.num
Substitution2: "Single Substitution lookup 19 subtable" nine.num
Substitution2: "Single Substitution lookup 17 subtable" nine.num
EndChar

StartChar: underscore
Encoding: 95 95 161
Width: 529
GlyphClass: 1
Flags: W
LayerCount: 2
Fore
SplineSet
-5 -91 m 1,0,-1
 534 -91 l 1,1,-1
 534 -158 l 1,2,-1
 -5 -158 l 1,3,-1
 -5 -91 l 1,0,-1
EndSplineSet
EndChar

StartChar: hyphen
Encoding: 45 45 162
Width: 479
GlyphClass: 1
Flags: W
LayerCount: 2
Fore
SplineSet
82 337 m 1,0,-1
 397 337 l 1,1,-1
 397 255 l 1,2,-1
 82 255 l 1,3,-1
 82 337 l 1,0,-1
EndSplineSet
EndChar

StartChar: endash
Encoding: 150 8211 165
Width: 646
GlyphClass: 1
Flags: W
LayerCount: 2
Fore
SplineSet
82 348 m 1,0,-1
 564 348 l 1,1,-1
 564 282 l 1,2,-1
 82 282 l 1,3,-1
 82 348 l 1,0,-1
EndSplineSet
EndChar

StartChar: emdash
Encoding: 151 8212 166
Width: 1002
GlyphClass: 1
Flags: W
LayerCount: 2
Fore
SplineSet
82 348 m 1,0,-1
 920 348 l 1,1,-1
 920 282 l 1,2,-1
 82 282 l 1,3,-1
 82 348 l 1,0,-1
EndSplineSet
EndChar

StartChar: horizontalbar
Encoding: 280 8213 167
Width: 911
GlyphClass: 1
Flags: W
LayerCount: 2
Fore
SplineSet
0 349 m 1,0,-1
 911 349 l 1,1,-1
 911 281 l 1,2,-1
 0 281 l 1,3,-1
 0 349 l 1,0,-1
EndSplineSet
EndChar

StartChar: parenleft
Encoding: 40 40 168
Width: 408
GlyphClass: 1
Flags: W
LayerCount: 2
Fore
SplineSet
169 310 m 256,0,1
 169 393 169 393 186.5 461 c 128,-1,2
 204 529 204 529 235.5 583 c 128,-1,3
 267 637 267 637 306 678 c 128,-1,4
 345 719 345 719 387 747 c 1,5,-1
 387 750 l 1,6,-1
 302 750 l 1,7,8
 258 724 258 724 217 682.5 c 128,-1,9
 176 641 176 641 143.5 585.5 c 128,-1,10
 111 530 111 530 91.5 460.5 c 128,-1,11
 72 391 72 391 72 310 c 256,12,13
 72 229 72 229 91.5 159.5 c 128,-1,14
 111 90 111 90 143.5 34.5 c 128,-1,15
 176 -21 176 -21 217 -62.5 c 128,-1,16
 258 -104 258 -104 302 -130 c 1,17,-1
 387 -130 l 1,18,-1
 387 -127 l 1,19,20
 345 -98 345 -98 306 -57.5 c 128,-1,21
 267 -17 267 -17 235.5 37 c 128,-1,22
 204 91 204 91 186.5 159 c 128,-1,23
 169 227 169 227 169 310 c 256,0,1
EndSplineSet
EndChar

StartChar: parenright
Encoding: 41 41 169
Width: 408
GlyphClass: 1
Flags: W
LayerCount: 2
Fore
SplineSet
239 310 m 256,0,1
 239 227 239 227 221.5 159 c 128,-1,2
 204 91 204 91 173 37 c 128,-1,3
 142 -17 142 -17 103 -57.5 c 128,-1,4
 64 -98 64 -98 22 -127 c 1,5,-1
 22 -130 l 1,6,-1
 106 -130 l 1,7,8
 150 -104 150 -104 191 -62.5 c 128,-1,9
 232 -21 232 -21 265 34.5 c 128,-1,10
 298 90 298 90 317 159.5 c 128,-1,11
 336 229 336 229 336 310 c 256,12,13
 336 391 336 391 317 460.5 c 128,-1,14
 298 530 298 530 265 585.5 c 128,-1,15
 232 641 232 641 191 682.5 c 128,-1,16
 150 724 150 724 106 750 c 1,17,-1
 22 750 l 1,18,-1
 22 747 l 1,19,20
 64 719 64 719 103 678 c 128,-1,21
 142 637 142 637 173 583 c 128,-1,22
 204 529 204 529 221.5 461 c 128,-1,23
 239 393 239 393 239 310 c 256,0,1
EndSplineSet
EndChar

StartChar: bracketleft
Encoding: 91 91 170
Width: 396
GlyphClass: 1
Flags: W
LayerCount: 2
Fore
SplineSet
77 -130 m 1,0,-1
 77 750 l 1,1,-1
 348 750 l 1,2,-1
 348 680 l 1,3,-1
 173 680 l 1,4,-1
 173 -60 l 1,5,-1
 348 -60 l 1,6,-1
 348 -130 l 1,7,-1
 77 -130 l 1,0,-1
EndSplineSet
EndChar

StartChar: bracketright
Encoding: 93 93 171
Width: 396
GlyphClass: 1
Flags: W
LayerCount: 2
Fore
SplineSet
319 -130 m 1,0,-1
 48 -130 l 1,1,-1
 48 -60 l 1,2,-1
 222 -60 l 1,3,-1
 222 680 l 1,4,-1
 48 680 l 1,5,-1
 48 750 l 1,6,-1
 319 750 l 1,7,-1
 319 -130 l 1,0,-1
EndSplineSet
EndChar

StartChar: braceleft
Encoding: 123 123 172
Width: 454
GlyphClass: 1
Flags: W
LayerCount: 2
Fore
SplineSet
359 192 m 0,0,1
 359 173 359 173 345.5 153 c 128,-1,2
 332 133 332 133 312 112.5 c 128,-1,3
 292 92 292 92 271.5 71 c 128,-1,4
 251 50 251 50 237.5 27 c 128,-1,5
 224 4 224 4 224 -21 c 0,6,7
 224 -41 224 -41 240 -55.5 c 128,-1,8
 256 -70 256 -70 295.5 -77.5 c 128,-1,9
 335 -85 335 -85 408 -83 c 1,10,-1
 394 -146 l 1,11,12
 330 -151 330 -151 280 -147 c 128,-1,13
 230 -143 230 -143 196 -128.5 c 128,-1,14
 162 -114 162 -114 144.5 -87.5 c 128,-1,15
 127 -61 127 -61 127 -21 c 0,16,17
 127 21 127 21 147.5 53 c 128,-1,18
 168 85 168 85 197 111 c 128,-1,19
 226 137 226 137 252.5 159.5 c 128,-1,20
 279 182 279 182 291 204 c 1,21,-1
 298 187 l 1,22,-1
 63 267 l 1,23,-1
 63 336 l 1,24,-1
 298 416 l 1,25,-1
 291 399 l 1,26,27
 279 422 279 422 252.5 444 c 128,-1,28
 226 466 226 466 197 492 c 128,-1,29
 168 518 168 518 147.5 550 c 128,-1,30
 127 582 127 582 127 624 c 0,31,32
 127 665 127 665 144.5 691 c 128,-1,33
 162 717 162 717 196 731.5 c 128,-1,34
 230 746 230 746 280 750 c 128,-1,35
 330 754 330 754 394 749 c 1,36,-1
 408 686 l 1,37,38
 335 688 335 688 295.5 680.5 c 128,-1,39
 256 673 256 673 240 658.5 c 128,-1,40
 224 644 224 644 224 624 c 0,41,42
 224 599 224 599 237.5 576 c 128,-1,43
 251 553 251 553 271.5 532 c 128,-1,44
 292 511 292 511 312 490.5 c 128,-1,45
 332 470 332 470 345.5 450 c 128,-1,46
 359 430 359 430 359 411 c 0,47,48
 359 391 359 391 349.5 377.5 c 128,-1,49
 340 364 340 364 318 353.5 c 128,-1,50
 296 343 296 343 259 332.5 c 128,-1,51
 222 322 222 322 167 308 c 1,52,-1
 167 295 l 1,53,54
 222 281 222 281 259 270.5 c 128,-1,55
 296 260 296 260 318 249.5 c 128,-1,56
 340 239 340 239 349.5 225.5 c 128,-1,57
 359 212 359 212 359 192 c 0,0,1
EndSplineSet
EndChar

StartChar: braceright
Encoding: 125 125 173
Width: 454
GlyphClass: 1
Flags: W
LayerCount: 2
Fore
SplineSet
95 192 m 0,0,1
 95 212 95 212 104.5 225.5 c 128,-1,2
 114 239 114 239 136 249.5 c 128,-1,3
 158 260 158 260 195 270.5 c 128,-1,4
 232 281 232 281 287 295 c 1,5,-1
 287 308 l 1,6,7
 232 322 232 322 195 332.5 c 128,-1,8
 158 343 158 343 136 353.5 c 128,-1,9
 114 364 114 364 104.5 377.5 c 128,-1,10
 95 391 95 391 95 411 c 0,11,12
 95 430 95 430 108 450 c 128,-1,13
 121 470 121 470 141.5 490.5 c 128,-1,14
 162 511 162 511 182.5 532 c 128,-1,15
 203 553 203 553 216 576 c 128,-1,16
 229 599 229 599 229 624 c 0,17,18
 229 644 229 644 213.5 658.5 c 128,-1,19
 198 673 198 673 159 680.5 c 128,-1,20
 120 688 120 688 46 686 c 1,21,-1
 60 749 l 1,22,23
 124 754 124 754 174 750 c 128,-1,24
 224 746 224 746 258 731.5 c 128,-1,25
 292 717 292 717 309.5 691 c 128,-1,26
 327 665 327 665 327 624 c 0,27,28
 327 582 327 582 306.5 550 c 128,-1,29
 286 518 286 518 257 492 c 128,-1,30
 228 466 228 466 201.5 444 c 128,-1,31
 175 422 175 422 163 399 c 1,32,-1
 156 416 l 1,33,-1
 391 336 l 1,34,-1
 391 267 l 1,35,-1
 156 187 l 1,36,-1
 163 204 l 1,37,38
 175 182 175 182 201.5 159.5 c 128,-1,39
 228 137 228 137 257 111 c 128,-1,40
 286 85 286 85 306.5 53 c 128,-1,41
 327 21 327 21 327 -21 c 0,42,43
 327 -61 327 -61 309.5 -87.5 c 128,-1,44
 292 -114 292 -114 258 -128.5 c 128,-1,45
 224 -143 224 -143 174 -147 c 128,-1,46
 124 -151 124 -151 60 -146 c 1,47,-1
 46 -83 l 1,48,49
 119 -85 119 -85 158.5 -77.5 c 128,-1,50
 198 -70 198 -70 213.5 -55.5 c 128,-1,51
 229 -41 229 -41 229 -21 c 0,52,53
 229 4 229 4 216 27 c 128,-1,54
 203 50 203 50 183 71 c 128,-1,55
 163 92 163 92 142 112.5 c 128,-1,56
 121 133 121 133 108 153 c 128,-1,57
 95 173 95 173 95 192 c 0,0,1
EndSplineSet
EndChar

StartChar: numbersign
Encoding: 35 35 174
Width: 752
GlyphClass: 1
Flags: W
LayerCount: 2
Fore
SplineSet
152 0 m 1,0,-1
 301 780 l 1,1,-1
 374 780 l 1,2,-1
 225 0 l 1,3,-1
 152 0 l 1,0,-1
57 222 m 1,4,-1
 57 298 l 1,5,-1
 644 298 l 1,6,-1
 644 222 l 1,7,-1
 57 222 l 1,4,-1
107 502 m 1,8,-1
 107 578 l 1,9,-1
 695 578 l 1,10,-1
 695 502 l 1,11,-1
 107 502 l 1,8,-1
375 0 m 1,12,-1
 522 780 l 1,13,-1
 596 780 l 1,14,-1
 448 0 l 1,15,-1
 375 0 l 1,12,-1
EndSplineSet
EndChar

StartChar: percent
Encoding: 37 37 175
Width: 752
GlyphClass: 1
Flags: W
LayerCount: 2
Fore
SplineSet
195 363 m 256,0,1
 151 363 151 363 118 384.5 c 128,-1,2
 85 406 85 406 67.5 449 c 128,-1,3
 50 492 50 492 50 556 c 0,4,5
 50 621 50 621 67.5 664 c 128,-1,6
 85 707 85 707 118 728.5 c 128,-1,7
 151 750 151 750 195 750 c 256,8,9
 239 750 239 750 272 728.5 c 128,-1,10
 305 707 305 707 323.5 664 c 128,-1,11
 342 621 342 621 342 556 c 0,12,13
 342 492 342 492 323.5 449 c 128,-1,14
 305 406 305 406 272 384.5 c 128,-1,15
 239 363 239 363 195 363 c 256,0,1
195 427 m 0,16,17
 220 427 220 427 232 439.5 c 128,-1,18
 244 452 244 452 247.5 480 c 128,-1,19
 251 508 251 508 251 556 c 256,20,21
 251 604 251 604 247.5 632 c 128,-1,22
 244 660 244 660 232 673 c 128,-1,23
 220 686 220 686 195 686 c 0,24,25
 171 686 171 686 159 673 c 128,-1,26
 147 660 147 660 143 632 c 128,-1,27
 139 604 139 604 139 556 c 256,28,29
 139 508 139 508 143 480 c 128,-1,30
 147 452 147 452 159 439.5 c 128,-1,31
 171 427 171 427 195 427 c 0,16,17
555 -16 m 0,32,33
 512 -16 512 -16 479 5.5 c 128,-1,34
 446 27 446 27 428 70 c 128,-1,35
 410 113 410 113 410 177 c 0,36,37
 410 242 410 242 428 285 c 128,-1,38
 446 328 446 328 479 349.5 c 128,-1,39
 512 371 512 371 555 371 c 0,40,41
 599 371 599 371 632 349.5 c 128,-1,42
 665 328 665 328 683.5 285 c 128,-1,43
 702 242 702 242 702 177 c 0,44,45
 702 113 702 113 683.5 70 c 128,-1,46
 665 27 665 27 632 5.5 c 128,-1,47
 599 -16 599 -16 555 -16 c 0,32,33
58 0 m 1,48,-1
 595 710 l 1,49,-1
 674 710 l 1,50,-1
 138 0 l 1,51,-1
 58 0 l 1,48,-1
555 48 m 0,52,53
 580 48 580 48 592 60.5 c 128,-1,54
 604 73 604 73 608 101.5 c 128,-1,55
 612 130 612 130 612 177 c 0,56,57
 612 225 612 225 608 253 c 128,-1,58
 604 281 604 281 592 294 c 128,-1,59
 580 307 580 307 555 307 c 0,60,61
 531 307 531 307 519 294 c 128,-1,62
 507 281 507 281 503 253 c 128,-1,63
 499 225 499 225 499 177 c 0,64,65
 499 130 499 130 503 101.5 c 128,-1,66
 507 73 507 73 519 60.5 c 128,-1,67
 531 48 531 48 555 48 c 0,52,53
EndSplineSet
EndChar

StartChar: perthousand
Encoding: 137 8240 176
Width: 1110
GlyphClass: 1
Flags: W
LayerCount: 2
Fore
SplineSet
193 427 m 0,0,1
 218 427 218 427 230 439.5 c 128,-1,2
 242 452 242 452 246 480 c 128,-1,3
 250 508 250 508 250 556 c 256,4,5
 250 604 250 604 246 632 c 128,-1,6
 242 660 242 660 230 673 c 128,-1,7
 218 686 218 686 193 686 c 0,8,9
 169 686 169 686 157 673 c 128,-1,10
 145 660 145 660 141 632 c 128,-1,11
 137 604 137 604 137 556 c 256,12,13
 137 508 137 508 141 480 c 128,-1,14
 145 452 145 452 157 439.5 c 128,-1,15
 169 427 169 427 193 427 c 0,0,1
193 363 m 0,16,17
 150 363 150 363 117 384.5 c 128,-1,18
 84 406 84 406 66 449 c 128,-1,19
 48 492 48 492 48 556 c 0,20,21
 48 621 48 621 66 664 c 128,-1,22
 84 707 84 707 117 728.5 c 128,-1,23
 150 750 150 750 193 750 c 0,24,25
 237 750 237 750 270 728.5 c 128,-1,26
 303 707 303 707 321.5 664 c 128,-1,27
 340 621 340 621 340 556 c 0,28,29
 340 492 340 492 321.5 449 c 128,-1,30
 303 406 303 406 270 384.5 c 128,-1,31
 237 363 237 363 193 363 c 0,16,17
137 0 m 1,32,-1
 57 0 l 1,33,-1
 594 710 l 1,34,-1
 674 710 l 1,35,-1
 137 0 l 1,32,-1
555 48 m 0,36,37
 580 48 580 48 592 60.5 c 128,-1,38
 604 73 604 73 608 101.5 c 128,-1,39
 612 130 612 130 612 177 c 0,40,41
 612 225 612 225 608 253 c 128,-1,42
 604 281 604 281 592 294 c 128,-1,43
 580 307 580 307 555 307 c 0,44,45
 531 307 531 307 519 294 c 128,-1,46
 507 281 507 281 503 253 c 128,-1,47
 499 225 499 225 499 177 c 0,48,49
 499 130 499 130 503 101.5 c 128,-1,50
 507 73 507 73 519 60.5 c 128,-1,51
 531 48 531 48 555 48 c 0,36,37
555 -16 m 0,52,53
 512 -16 512 -16 479 5.5 c 128,-1,54
 446 27 446 27 428 70 c 128,-1,55
 410 113 410 113 410 177 c 0,56,57
 410 242 410 242 428 285 c 128,-1,58
 446 328 446 328 479 349.5 c 128,-1,59
 512 371 512 371 555 371 c 0,60,61
 599 371 599 371 632 349.5 c 128,-1,62
 665 328 665 328 683.5 285 c 128,-1,63
 702 242 702 242 702 177 c 0,64,65
 702 113 702 113 683.5 70 c 128,-1,66
 665 27 665 27 632 5.5 c 128,-1,67
 599 -16 599 -16 555 -16 c 0,52,53
915 48 m 0,68,69
 940 48 940 48 952 60.5 c 128,-1,70
 964 73 964 73 967.5 101.5 c 128,-1,71
 971 130 971 130 971 177 c 0,72,73
 971 225 971 225 967.5 253 c 128,-1,74
 964 281 964 281 952 294 c 128,-1,75
 940 307 940 307 915 307 c 0,76,77
 891 307 891 307 879 294 c 128,-1,78
 867 281 867 281 863 253 c 128,-1,79
 859 225 859 225 859 177 c 0,80,81
 859 130 859 130 863 101.5 c 128,-1,82
 867 73 867 73 879 60.5 c 128,-1,83
 891 48 891 48 915 48 c 0,68,69
915 -16 m 256,84,85
 871 -16 871 -16 838.5 5.5 c 128,-1,86
 806 27 806 27 788 70 c 128,-1,87
 770 113 770 113 770 177 c 0,88,89
 770 242 770 242 788 285 c 128,-1,90
 806 328 806 328 838.5 349.5 c 128,-1,91
 871 371 871 371 915 371 c 256,92,93
 959 371 959 371 992 349.5 c 128,-1,94
 1025 328 1025 328 1043.5 285 c 128,-1,95
 1062 242 1062 242 1062 177 c 0,96,97
 1062 113 1062 113 1043.5 70 c 128,-1,98
 1025 27 1025 27 992 5.5 c 128,-1,99
 959 -16 959 -16 915 -16 c 256,84,85
EndSplineSet
EndChar

StartChar: quotesingle
Encoding: 39 39 177
Width: 252
GlyphClass: 1
Flags: W
LayerCount: 2
Fore
SplineSet
184 769 m 1,0,-1
 68 769 l 1,1,2
 68 733 68 733 71.5 702 c 128,-1,3
 75 671 75 671 79.5 637.5 c 128,-1,4
 84 604 84 604 87 563 c 128,-1,5
 90 522 90 522 90 467 c 1,6,-1
 162 467 l 1,7,8
 162 522 162 522 165.5 563 c 128,-1,9
 169 604 169 604 173 637.5 c 128,-1,10
 177 671 177 671 180.5 702.5 c 128,-1,11
 184 734 184 734 184 769 c 1,0,-1
EndSplineSet
EndChar

StartChar: quoteleft
Encoding: 145 8216 179
Width: 286
GlyphClass: 1
Flags: W
LayerCount: 2
Fore
SplineSet
190 790 m 1,0,-1
 252 733 l 1,1,2
 222 723 222 723 197.5 713 c 128,-1,3
 173 703 173 703 155 688 c 128,-1,4
 137 673 137 673 127 650.5 c 128,-1,5
 117 628 117 628 117 592 c 1,6,-1
 97 592 l 1,7,8
 107 601 107 601 120.5 604 c 128,-1,9
 134 607 134 607 150 607 c 0,10,11
 180 607 180 607 199.5 591.5 c 128,-1,12
 219 576 219 576 219 543 c 0,13,14
 219 513 219 513 198.5 494 c 128,-1,15
 178 475 178 475 140 475 c 0,16,17
 97 475 97 475 76 499.5 c 128,-1,18
 55 524 55 524 55 575 c 0,19,20
 55 619 55 619 64.5 652.5 c 128,-1,21
 74 686 74 686 91 711.5 c 128,-1,22
 108 737 108 737 133 755.5 c 128,-1,23
 158 774 158 774 190 790 c 1,0,-1
EndSplineSet
EndChar

StartChar: quoteright
Encoding: 146 8217 180
Width: 286
GlyphClass: 1
Flags: W
LayerCount: 2
Fore
SplineSet
96 473 m 1,0,-1
 34 529 l 1,1,2
 64 539 64 539 88.5 549.5 c 128,-1,3
 113 560 113 560 131 574.5 c 128,-1,4
 149 589 149 589 158.5 612 c 128,-1,5
 168 635 168 635 168 671 c 1,6,-1
 189 671 l 1,7,8
 179 661 179 661 165.5 658 c 128,-1,9
 152 655 152 655 136 655 c 0,10,11
 106 655 106 655 86.5 671 c 128,-1,12
 67 687 67 687 67 720 c 0,13,14
 67 750 67 750 87.5 769 c 128,-1,15
 108 788 108 788 146 788 c 0,16,17
 189 788 189 788 209.5 763.5 c 128,-1,18
 230 739 230 739 230 688 c 0,19,20
 230 644 230 644 221 610.5 c 128,-1,21
 212 577 212 577 195 551.5 c 128,-1,22
 178 526 178 526 153 507 c 128,-1,23
 128 488 128 488 96 473 c 1,0,-1
EndSplineSet
EndChar

StartChar: quotedblleft
Encoding: 147 8220 181
Width: 528
GlyphClass: 1
Flags: W
LayerCount: 2
Fore
SplineSet
432 790 m 1,0,-1
 494 733 l 1,1,2
 464 723 464 723 439.5 713 c 128,-1,3
 415 703 415 703 397 688 c 128,-1,4
 379 673 379 673 369 650.5 c 128,-1,5
 359 628 359 628 359 592 c 1,6,-1
 339 592 l 1,7,8
 349 601 349 601 362.5 604 c 128,-1,9
 376 607 376 607 392 607 c 0,10,11
 422 607 422 607 441.5 591.5 c 128,-1,12
 461 576 461 576 461 543 c 0,13,14
 461 513 461 513 440.5 494 c 128,-1,15
 420 475 420 475 382 475 c 0,16,17
 339 475 339 475 318 499.5 c 128,-1,18
 297 524 297 524 297 575 c 0,19,20
 297 619 297 619 306.5 652.5 c 128,-1,21
 316 686 316 686 333 711.5 c 128,-1,22
 350 737 350 737 375 755.5 c 128,-1,23
 400 774 400 774 432 790 c 1,0,-1
190 790 m 1,24,-1
 252 733 l 1,25,26
 222 723 222 723 197.5 713 c 128,-1,27
 173 703 173 703 155 688 c 128,-1,28
 137 673 137 673 127 650.5 c 128,-1,29
 117 628 117 628 117 592 c 1,30,-1
 97 592 l 1,31,32
 107 601 107 601 120.5 604 c 128,-1,33
 134 607 134 607 150 607 c 0,34,35
 180 607 180 607 199.5 591.5 c 128,-1,36
 219 576 219 576 219 543 c 0,37,38
 219 513 219 513 198.5 494 c 128,-1,39
 178 475 178 475 140 475 c 0,40,41
 97 475 97 475 76 499.5 c 128,-1,42
 55 524 55 524 55 575 c 0,43,44
 55 619 55 619 64.5 652.5 c 128,-1,45
 74 686 74 686 91 711.5 c 128,-1,46
 108 737 108 737 133 755.5 c 128,-1,47
 158 774 158 774 190 790 c 1,24,-1
EndSplineSet
EndChar

StartChar: guilsinglleft
Encoding: 139 8249 185
Width: 392
GlyphClass: 1
Flags: W
LayerCount: 2
Fore
SplineSet
149 242 m 1,0,-1
 150 324 l 1,1,-1
 330 65 l 1,2,-1
 257 65 l 1,3,-1
 72 259 l 1,4,-1
 72 311 l 1,5,-1
 257 505 l 1,6,-1
 330 505 l 1,7,-1
 149 242 l 1,0,-1
EndSplineSet
EndChar

StartChar: guilsinglright
Encoding: 155 8250 186
Width: 392
GlyphClass: 1
Flags: W
LayerCount: 2
Fore
SplineSet
243 242 m 1,0,-1
 62 505 l 1,1,-1
 135 505 l 1,2,-1
 320 311 l 1,3,-1
 320 259 l 1,4,-1
 135 65 l 1,5,-1
 62 65 l 1,6,-1
 242 324 l 1,7,-1
 243 242 l 1,0,-1
EndSplineSet
EndChar

StartChar: guillemotright
Encoding: 187 187 188
Width: 635
GlyphClass: 1
Flags: W
LayerCount: 2
Fore
SplineSet
486 242 m 1,0,-1
 304 505 l 1,1,-1
 378 505 l 1,2,-1
 563 311 l 1,3,-1
 563 259 l 1,4,-1
 378 65 l 1,5,-1
 304 65 l 1,6,-1
 485 324 l 1,7,-1
 486 242 l 1,0,-1
243 242 m 1,8,-1
 62 505 l 1,9,-1
 135 505 l 1,10,-1
 320 311 l 1,11,-1
 320 259 l 1,12,-1
 135 65 l 1,13,-1
 62 65 l 1,14,-1
 242 324 l 1,15,-1
 243 242 l 1,8,-1
EndSplineSet
EndChar

StartChar: asterisk
Encoding: 42 42 189
Width: 519
GlyphClass: 1
Flags: W
LayerCount: 2
Fore
SplineSet
79 387 m 1,0,-1
 32 470 l 1,1,2
 54 482 54 482 76.5 490.5 c 128,-1,3
 99 499 99 499 122.5 506.5 c 128,-1,4
 146 514 146 514 169.5 523 c 128,-1,5
 193 532 193 532 216 545 c 1,6,-1
 237 502 l 1,7,8
 214 490 214 490 194.5 475 c 128,-1,9
 175 460 175 460 157 444.5 c 128,-1,10
 139 429 139 429 120 414 c 128,-1,11
 101 399 101 399 79 387 c 1,0,-1
212 780 m 1,12,-1
 308 780 l 1,13,14
 308 754 308 754 304 730 c 128,-1,15
 300 706 300 706 296 682 c 128,-1,16
 292 658 292 658 288 633.5 c 128,-1,17
 284 609 284 609 284 582 c 1,18,-1
 237 582 l 1,19,20
 237 609 237 609 233 633.5 c 128,-1,21
 229 658 229 658 224.5 682 c 128,-1,22
 220 706 220 706 216 730 c 128,-1,23
 212 754 212 754 212 780 c 1,12,-1
32 616 m 1,24,-1
 79 700 l 1,25,26
 101 687 101 687 120 672 c 128,-1,27
 139 657 139 657 157 641.5 c 128,-1,28
 175 626 175 626 194.5 611 c 128,-1,29
 214 596 214 596 237 584 c 1,30,-1
 216 541 l 1,31,32
 193 554 193 554 169.5 563 c 128,-1,33
 146 572 146 572 122.5 579.5 c 128,-1,34
 99 587 99 587 76.5 595.5 c 128,-1,35
 54 604 54 604 32 616 c 1,24,-1
212 305 m 1,36,37
 212 331 212 331 216 355 c 128,-1,38
 220 379 220 379 224.5 403 c 128,-1,39
 229 427 229 427 233 451.5 c 128,-1,40
 237 476 237 476 237 503 c 1,41,-1
 284 503 l 1,42,43
 284 476 284 476 288 451.5 c 128,-1,44
 292 427 292 427 296 403 c 128,-1,45
 300 379 300 379 304 355 c 128,-1,46
 308 331 308 331 308 305 c 1,47,-1
 212 305 l 1,36,37
304 541 m 1,48,-1
 283 584 l 1,49,50
 306 596 306 596 325.5 611 c 128,-1,51
 345 626 345 626 363 641.5 c 128,-1,52
 381 657 381 657 400 672 c 128,-1,53
 419 687 419 687 441 700 c 1,54,-1
 489 616 l 1,55,56
 467 604 467 604 444 595.5 c 128,-1,57
 421 587 421 587 397.5 579.5 c 128,-1,58
 374 572 374 572 350.5 563 c 128,-1,59
 327 554 327 554 304 541 c 1,48,-1
441 387 m 1,60,61
 419 399 419 399 400 414 c 128,-1,62
 381 429 381 429 363 444.5 c 128,-1,63
 345 460 345 460 325.5 475 c 128,-1,64
 306 490 306 490 283 502 c 1,65,-1
 304 545 l 1,66,67
 327 532 327 532 350.5 523 c 128,-1,68
 374 514 374 514 397.5 506.5 c 128,-1,69
 421 499 421 499 443.5 490.5 c 128,-1,70
 466 482 466 482 489 470 c 1,71,-1
 441 387 l 1,60,61
EndSplineSet
EndChar

StartChar: dagger
Encoding: 134 8224 190
Width: 549
GlyphClass: 1
Flags: W
LayerCount: 2
Fore
SplineSet
256 473 m 1,0,-1
 78 413 l 1,1,-1
 48 413 l 1,2,-1
 48 555 l 1,3,-1
 78 555 l 1,4,-1
 256 516 l 1,5,-1
 293 516 l 1,6,-1
 471 555 l 1,7,-1
 501 555 l 1,8,-1
 501 413 l 1,9,-1
 471 413 l 1,10,-1
 293 473 l 1,11,-1
 256 473 l 1,0,-1
339 710 m 1,12,-1
 339 663 l 2,13,14
 339 648 339 648 336 635.5 c 128,-1,15
 333 623 333 623 328 610 c 128,-1,16
 323 597 323 597 318 581.5 c 128,-1,17
 313 566 313 566 310 546 c 128,-1,18
 307 526 307 526 307 499 c 0,19,20
 307 463 307 463 310 438 c 128,-1,21
 313 413 313 413 318.5 396 c 128,-1,22
 324 379 324 379 330.5 367 c 128,-1,23
 337 355 337 355 344 345 c 1,24,-1
 344 315 l 2,25,26
 344 300 344 300 339 277.5 c 128,-1,27
 334 255 334 255 327.5 218.5 c 128,-1,28
 321 182 321 182 316 124 c 128,-1,29
 311 66 311 66 310 -20 c 1,30,-1
 239 -20 l 1,31,32
 238 66 238 66 233 124 c 128,-1,33
 228 182 228 182 221.5 218.5 c 128,-1,34
 215 255 215 255 210 277.5 c 128,-1,35
 205 300 205 300 205 315 c 2,36,-1
 205 345 l 1,37,38
 212 355 212 355 218.5 367 c 128,-1,39
 225 379 225 379 230.5 396 c 128,-1,40
 236 413 236 413 239 438 c 128,-1,41
 242 463 242 463 242 499 c 0,42,43
 242 526 242 526 239 546 c 128,-1,44
 236 566 236 566 231 581.5 c 128,-1,45
 226 597 226 597 221 610 c 128,-1,46
 216 623 216 623 213 635.5 c 128,-1,47
 210 648 210 648 210 663 c 2,48,-1
 210 710 l 1,49,-1
 339 710 l 1,12,-1
EndSplineSet
EndChar

StartChar: daggerdbl
Encoding: 135 8225 191
Width: 549
GlyphClass: 1
Flags: W
LayerCount: 2
Fore
SplineSet
293 522 m 1,0,-1
 472 564 l 1,1,-1
 501 564 l 1,2,-1
 501 427 l 1,3,-1
 472 427 l 1,4,-1
 293 478 l 1,5,-1
 256 478 l 1,6,-1
 77 427 l 1,7,-1
 48 427 l 1,8,-1
 48 564 l 1,9,-1
 77 564 l 1,10,-1
 256 522 l 1,11,-1
 293 522 l 1,0,-1
339 710 m 1,12,-1
 339 663 l 2,13,14
 339 648 339 648 336 635.5 c 128,-1,15
 333 623 333 623 328 610 c 128,-1,16
 323 597 323 597 318 581.5 c 128,-1,17
 313 566 313 566 310 546 c 128,-1,18
 307 526 307 526 307 499 c 0,19,20
 307 465 307 465 311 442.5 c 128,-1,21
 315 420 315 420 322 405.5 c 128,-1,22
 329 391 329 391 336.5 381.5 c 128,-1,23
 344 372 344 372 351 364 c 1,24,-1
 351 325 l 1,25,26
 344 318 344 318 336.5 308 c 128,-1,27
 329 298 329 298 322 283.5 c 128,-1,28
 315 269 315 269 311 246.5 c 128,-1,29
 307 224 307 224 307 190 c 0,30,31
 307 163 307 163 310 143 c 128,-1,32
 313 123 313 123 318 107.5 c 128,-1,33
 323 92 323 92 328 79 c 128,-1,34
 333 66 333 66 336 53.5 c 128,-1,35
 339 41 339 41 339 26 c 2,36,-1
 339 -21 l 1,37,-1
 210 -21 l 1,38,-1
 210 26 l 2,39,40
 210 41 210 41 213 53.5 c 128,-1,41
 216 66 216 66 221 79 c 128,-1,42
 226 92 226 92 231 107.5 c 128,-1,43
 236 123 236 123 239 143 c 128,-1,44
 242 163 242 163 242 190 c 0,45,46
 242 224 242 224 238 246.5 c 128,-1,47
 234 269 234 269 227 283.5 c 128,-1,48
 220 298 220 298 212.5 308 c 128,-1,49
 205 318 205 318 198 325 c 1,50,-1
 198 364 l 1,51,52
 205 372 205 372 212.5 381.5 c 128,-1,53
 220 391 220 391 227 405.5 c 128,-1,54
 234 420 234 420 238 442.5 c 128,-1,55
 242 465 242 465 242 499 c 0,56,57
 242 526 242 526 239 546 c 128,-1,58
 236 566 236 566 231 581.5 c 128,-1,59
 226 597 226 597 221 610 c 128,-1,60
 216 623 216 623 213 635.5 c 128,-1,61
 210 648 210 648 210 663 c 2,62,-1
 210 710 l 1,63,-1
 339 710 l 1,12,-1
293 211 m 1,64,-1
 472 263 l 1,65,-1
 501 263 l 1,66,-1
 501 125 l 1,67,-1
 472 125 l 1,68,-1
 293 167 l 1,69,-1
 256 167 l 1,70,-1
 77 125 l 1,71,-1
 48 125 l 1,72,-1
 48 263 l 1,73,-1
 77 263 l 1,74,-1
 256 211 l 1,75,-1
 293 211 l 1,64,-1
EndSplineSet
EndChar

StartChar: period
Encoding: 46 46 192
Width: 306
GlyphClass: 1
Flags: W
LayerCount: 2
Fore
SplineSet
152 -13 m 0,0,1
 113 -13 113 -13 86.5 11 c 128,-1,2
 60 35 60 35 60 74 c 256,3,4
 60 113 60 113 86.5 136.5 c 128,-1,5
 113 160 113 160 152 160 c 0,6,7
 193 160 193 160 219 136.5 c 128,-1,8
 245 113 245 113 245 74 c 256,9,10
 245 35 245 35 219 11 c 128,-1,11
 193 -13 193 -13 152 -13 c 0,0,1
EndSplineSet
Substitution2: "Single Substitution lookup 59 subtable" period.tab
EndChar

StartChar: comma
Encoding: 44 44 193
Width: 330
GlyphClass: 1
Flags: W
LayerCount: 2
Fore
SplineSet
116 -183 m 1,0,-1
 38 -116 l 1,1,2
 97 -101 97 -101 132.5 -84 c 128,-1,3
 168 -67 168 -67 184.5 -41 c 128,-1,4
 201 -15 201 -15 201 28 c 0,5,6
 201 32 201 32 202 36.5 c 128,-1,7
 203 41 203 41 204.5 43.5 c 128,-1,8
 206 46 206 46 207 47 c 128,-1,9
 208 48 208 48 209 48 c 1,10,11
 207 32 207 32 198.5 22 c 128,-1,12
 190 12 190 12 178.5 8 c 128,-1,13
 167 4 167 4 152 4 c 0,14,15
 118 4 118 4 95.5 24 c 128,-1,16
 73 44 73 44 73 81 c 0,17,18
 73 120 73 120 99 143.5 c 128,-1,19
 125 167 125 167 167 167 c 0,20,21
 198 167 198 167 221 155 c 128,-1,22
 244 143 244 143 257 117.5 c 128,-1,23
 270 92 270 92 270 51 c 0,24,25
 270 -5 270 -5 254.5 -47 c 128,-1,26
 239 -89 239 -89 205 -122 c 128,-1,27
 171 -155 171 -155 116 -183 c 1,0,-1
EndSplineSet
Substitution2: "Single Substitution lookup 59 subtable" comma.tab
EndChar

StartChar: exclam
Encoding: 33 33 197
Width: 326
GlyphClass: 1
Flags: W
LayerCount: 2
Fore
SplineSet
224 755 m 1,0,-1
 102 755 l 1,1,2
 102 700 102 700 103.5 653.5 c 128,-1,3
 105 607 105 607 107.5 563.5 c 128,-1,4
 110 520 110 520 113 474.5 c 128,-1,5
 116 429 116 429 118 375.5 c 128,-1,6
 120 322 120 322 120 257 c 1,7,-1
 206 257 l 1,8,9
 206 322 206 322 207.5 375.5 c 128,-1,10
 209 429 209 429 212 475 c 128,-1,11
 215 521 215 521 218 564.5 c 128,-1,12
 221 608 221 608 222.5 654 c 128,-1,13
 224 700 224 700 224 755 c 1,0,-1
162 -13 m 0,14,15
 122 -13 122 -13 96 11 c 128,-1,16
 70 35 70 35 70 74 c 256,17,18
 70 113 70 113 96 136.5 c 128,-1,19
 122 160 122 160 162 160 c 0,20,21
 203 160 203 160 229 136.5 c 128,-1,22
 255 113 255 113 255 74 c 256,23,24
 255 35 255 35 229 11 c 128,-1,25
 203 -13 203 -13 162 -13 c 0,14,15
EndSplineSet
EndChar

StartChar: exclamdown
Encoding: 161 161 198
Width: 326
GlyphClass: 1
Flags: W
LayerCount: 2
Fore
SplineSet
224 -175 m 1,0,1
 224 -120 224 -120 222.5 -74 c 128,-1,2
 221 -28 221 -28 218 15.5 c 128,-1,3
 215 59 215 59 212 105 c 128,-1,4
 209 151 209 151 207.5 204.5 c 128,-1,5
 206 258 206 258 206 323 c 1,6,-1
 120 323 l 1,7,8
 120 258 120 258 118 204.5 c 128,-1,9
 116 151 116 151 113 105.5 c 128,-1,10
 110 60 110 60 107.5 16.5 c 128,-1,11
 105 -27 105 -27 103.5 -73.5 c 128,-1,12
 102 -120 102 -120 102 -175 c 1,13,-1
 224 -175 l 1,0,1
162 593 m 0,14,15
 203 593 203 593 229 569 c 128,-1,16
 255 545 255 545 255 506 c 0,17,18
 255 468 255 468 229 444 c 128,-1,19
 203 420 203 420 162 420 c 0,20,21
 122 420 122 420 96 444 c 128,-1,22
 70 468 70 468 70 506 c 0,23,24
 70 545 70 545 96 569 c 128,-1,25
 122 593 122 593 162 593 c 0,14,15
EndSplineSet
EndChar

StartChar: question
Encoding: 63 63 199
Width: 555
GlyphClass: 1
Flags: W
LayerCount: 2
Fore
SplineSet
193 421 m 1,0,-1
 193 248 l 1,1,-1
 289 248 l 1,2,-1
 289 369 l 1,3,4
 328 375 328 375 364 390 c 128,-1,5
 400 405 400 405 429 430 c 128,-1,6
 458 455 458 455 475 491.5 c 128,-1,7
 492 528 492 528 492 578 c 0,8,9
 492 640 492 640 464.5 680.5 c 128,-1,10
 437 721 437 721 387 741.5 c 128,-1,11
 337 762 337 762 266 762 c 0,12,13
 219 762 219 762 176.5 751.5 c 128,-1,14
 134 741 134 741 103.5 727.5 c 128,-1,15
 73 714 73 714 58 705 c 1,16,-1
 58 555 l 1,17,-1
 156 555 l 1,18,-1
 156 704 l 1,19,20
 140 703 140 703 129 695 c 128,-1,21
 118 687 118 687 111.5 676 c 128,-1,22
 105 665 105 665 102.5 654.5 c 128,-1,23
 100 644 100 644 101 638 c 1,24,25
 113 650 113 650 134 661.5 c 128,-1,26
 155 673 155 673 187.5 680.5 c 128,-1,27
 220 688 220 688 264 688 c 0,28,29
 307 688 307 688 335.5 677.5 c 128,-1,30
 364 667 364 667 378 643.5 c 128,-1,31
 392 620 392 620 392 578 c 0,32,33
 392 531 392 531 378 502.5 c 128,-1,34
 364 474 364 474 338 458 c 128,-1,35
 312 442 312 442 275 434 c 128,-1,36
 238 426 238 426 193 421 c 1,0,-1
244 -14 m 0,37,38
 205 -14 205 -14 178.5 10 c 128,-1,39
 152 34 152 34 152 73 c 256,40,41
 152 112 152 112 178.5 135.5 c 128,-1,42
 205 159 205 159 244 159 c 0,43,44
 284 159 284 159 310.5 135.5 c 128,-1,45
 337 112 337 112 337 73 c 256,46,47
 337 34 337 34 310.5 10 c 128,-1,48
 284 -14 284 -14 244 -14 c 0,37,38
EndSplineSet
EndChar

StartChar: questiondown
Encoding: 191 191 200
Width: 555
GlyphClass: 1
Flags: W
LayerCount: 2
Fore
SplineSet
356 158 m 1,0,-1
 356 331 l 1,1,-1
 260 331 l 1,2,-1
 260 210 l 1,3,4
 222 204 222 204 186 189 c 128,-1,5
 150 174 150 174 121 149 c 128,-1,6
 92 124 92 124 75 87.5 c 128,-1,7
 58 51 58 51 58 1 c 0,8,9
 58 -61 58 -61 85 -101.5 c 128,-1,10
 112 -142 112 -142 163 -162.5 c 128,-1,11
 214 -183 214 -183 284 -183 c 0,12,13
 331 -183 331 -183 373 -172.5 c 128,-1,14
 415 -162 415 -162 446.5 -148 c 128,-1,15
 478 -134 478 -134 492 -126 c 1,16,-1
 492 24 l 1,17,-1
 393 24 l 1,18,-1
 393 -125 l 1,19,20
 410 -124 410 -124 421 -116 c 128,-1,21
 432 -108 432 -108 438 -97 c 128,-1,22
 444 -86 444 -86 447 -75.5 c 128,-1,23
 450 -65 450 -65 449 -59 c 1,24,25
 437 -70 437 -70 415.5 -82 c 128,-1,26
 394 -94 394 -94 362 -101.5 c 128,-1,27
 330 -109 330 -109 286 -109 c 0,28,29
 243 -109 243 -109 214.5 -98.5 c 128,-1,30
 186 -88 186 -88 171.5 -64 c 128,-1,31
 157 -40 157 -40 157 1 c 0,32,33
 157 48 157 48 171 76.5 c 128,-1,34
 185 105 185 105 211.5 121 c 128,-1,35
 238 137 238 137 275 145 c 128,-1,36
 312 153 312 153 356 158 c 1,0,-1
306 593 m 0,37,38
 345 593 345 593 371 569 c 128,-1,39
 397 545 397 545 397 506 c 0,40,41
 397 468 397 468 371 444 c 128,-1,42
 345 420 345 420 306 420 c 0,43,44
 266 420 266 420 239.5 444 c 128,-1,45
 213 468 213 468 213 506 c 0,46,47
 213 545 213 545 239.5 569 c 128,-1,48
 266 593 266 593 306 593 c 0,37,38
EndSplineSet
EndChar

StartChar: slash
Encoding: 47 47 201
Width: 583
GlyphClass: 1
Flags: W
LayerCount: 2
Fore
SplineSet
583 780 m 1,0,-1
 492 780 l 1,1,-1
 0 -158 l 1,2,-1
 90 -158 l 1,3,-1
 583 780 l 1,0,-1
EndSplineSet
Substitution2: "Single Substitution lookup 15 subtable" fraction
EndChar

StartChar: backslash
Encoding: 92 92 202
Width: 583
GlyphClass: 1
Flags: W
LayerCount: 2
Fore
SplineSet
0 780 m 1,0,-1
 493 -158 l 1,1,-1
 583 -158 l 1,2,-1
 91 780 l 1,3,-1
 0 780 l 1,0,-1
EndSplineSet
EndChar

StartChar: fraction
Encoding: 281 8260 203
Width: 134
GlyphClass: 1
Flags: W
LayerCount: 2
Fore
SplineSet
306 710 m 1,0,-1
 376 710 l 1,1,-1
 -170 0 l 1,2,-1
 -242 0 l 1,3,-1
 306 710 l 1,0,-1
EndSplineSet
EndChar

StartChar: bar
Encoding: 124 124 204
Width: 267
GlyphClass: 1
Flags: W
LayerCount: 2
Fore
SplineSet
93 780 m 1,0,-1
 174 780 l 1,1,-1
 174 -158 l 1,2,-1
 93 -158 l 1,3,-1
 93 780 l 1,0,-1
EndSplineSet
EndChar

StartChar: brokenbar
Encoding: 166 166 205
Width: 267
GlyphClass: 1
Flags: W
LayerCount: 2
Fore
SplineSet
93 780 m 1,0,-1
 174 780 l 1,1,-1
 174 404 l 1,2,-1
 93 404 l 1,3,-1
 93 780 l 1,0,-1
93 218 m 1,4,-1
 174 218 l 1,5,-1
 174 -158 l 1,6,-1
 93 -158 l 1,7,-1
 93 218 l 1,4,-1
EndSplineSet
EndChar

StartChar: at
Encoding: 64 64 206
Width: 960
GlyphClass: 1
Flags: W
LayerCount: 2
Fore
SplineSet
475 -93 m 0,0,1
 525 -93 525 -93 571 -86 c 128,-1,2
 617 -79 617 -79 656 -68 c 128,-1,3
 695 -57 695 -57 722 -45 c 1,4,-1
 744 -105 l 1,5,6
 717 -118 717 -118 673 -130 c 128,-1,7
 629 -142 629 -142 577.5 -150 c 128,-1,8
 526 -158 526 -158 475 -158 c 0,9,10
 381 -158 381 -158 306.5 -135 c 128,-1,11
 232 -112 232 -112 179.5 -64.5 c 128,-1,12
 127 -17 127 -17 99.5 55.5 c 128,-1,13
 72 128 72 128 72 225 c 0,14,15
 72 332 72 332 105.5 416.5 c 128,-1,16
 139 501 139 501 199 559 c 128,-1,17
 259 617 259 617 342.5 647.5 c 128,-1,18
 426 678 426 678 525 678 c 0,19,20
 614 678 614 678 681.5 658 c 128,-1,21
 749 638 749 638 795 597.5 c 128,-1,22
 841 557 841 557 864.5 496 c 128,-1,23
 888 435 888 435 888 352 c 0,24,25
 888 275 888 275 873.5 219 c 128,-1,26
 859 163 859 163 832.5 126.5 c 128,-1,27
 806 90 806 90 769.5 72.5 c 128,-1,28
 733 55 733 55 688 55 c 0,29,30
 658 55 658 55 636 63.5 c 128,-1,31
 614 72 614 72 598 86.5 c 128,-1,32
 582 101 582 101 571 118.5 c 128,-1,33
 560 136 560 136 551 155 c 1,34,-1
 546 151 l 1,35,-1
 583 381 l 1,36,-1
 587 372 l 1,37,-1
 643 468 l 1,38,-1
 688 468 l 1,39,-1
 639 179 l 2,40,41
 635 155 635 155 636.5 139 c 128,-1,42
 638 123 638 123 649.5 115.5 c 128,-1,43
 661 108 661 108 687 108 c 0,44,45
 733 108 733 108 760.5 131 c 128,-1,46
 788 154 788 154 800.5 207.5 c 128,-1,47
 813 261 813 261 813 352 c 256,48,49
 813 443 813 443 782.5 500.5 c 128,-1,50
 752 558 752 558 688.5 585.5 c 128,-1,51
 625 613 625 613 525 613 c 0,52,53
 438 613 438 613 368.5 587 c 128,-1,54
 299 561 299 561 249.5 511 c 128,-1,55
 200 461 200 461 173.5 389 c 128,-1,56
 147 317 147 317 147 225 c 0,57,58
 147 144 147 144 169.5 84 c 128,-1,59
 192 24 192 24 234 -15.5 c 128,-1,60
 276 -55 276 -55 337 -74 c 128,-1,61
 398 -93 398 -93 475 -93 c 0,0,1
431 49 m 0,62,63
 394 49 394 49 363 65.5 c 128,-1,64
 332 82 332 82 314 118.5 c 128,-1,65
 296 155 296 155 296 215 c 0,66,67
 296 267 296 267 308.5 313.5 c 128,-1,68
 321 360 321 360 346 396 c 128,-1,69
 371 432 371 432 407.5 453 c 128,-1,70
 444 474 444 474 492 474 c 0,71,72
 530 474 530 474 554 456.5 c 128,-1,73
 578 439 578 439 593 407.5 c 128,-1,74
 608 376 608 376 618 332 c 1,75,-1
 602 282 l 1,76,77
 592 325 592 325 579 353 c 128,-1,78
 566 381 566 381 547.5 395.5 c 128,-1,79
 529 410 529 410 501 410 c 0,80,81
 465 410 465 410 442.5 395 c 128,-1,82
 420 380 420 380 408 352.5 c 128,-1,83
 396 325 396 325 391.5 287 c 128,-1,84
 387 249 387 249 387 202 c 0,85,86
 387 167 387 167 391.5 147.5 c 128,-1,87
 396 128 396 128 411 120.5 c 128,-1,88
 426 113 426 113 456 113 c 0,89,90
 479 113 479 113 497 124.5 c 128,-1,91
 515 136 515 136 529.5 156 c 128,-1,92
 544 176 544 176 557 199 c 1,93,-1
 582 180 l 1,94,95
 558 132 558 132 538.5 103.5 c 128,-1,96
 519 75 519 75 494.5 62 c 128,-1,97
 470 49 470 49 431 49 c 0,62,63
EndSplineSet
EndChar

StartChar: ampersand
Encoding: 38 38 207
Width: 765
GlyphClass: 1
Flags: W
LayerCount: 2
Fore
SplineSet
644 291 m 0,0,1
 639 261 639 261 624 221.5 c 128,-1,2
 609 182 609 182 582.5 141.5 c 128,-1,3
 556 101 556 101 517 66.5 c 128,-1,4
 478 32 478 32 425 11 c 128,-1,5
 372 -10 372 -10 303 -10 c 0,6,7
 225 -10 225 -10 170 11.5 c 128,-1,8
 115 33 115 33 86 80 c 128,-1,9
 57 127 57 127 57 204 c 0,10,11
 57 256 57 256 71 293 c 128,-1,12
 85 330 85 330 110 356 c 128,-1,13
 135 382 135 382 169 400 c 128,-1,14
 203 418 203 418 243 430 c 1,15,-1
 270 373 l 1,16,17
 238 361 238 361 213.5 344.5 c 128,-1,18
 189 328 189 328 175.5 298.5 c 128,-1,19
 162 269 162 269 162 213 c 0,20,21
 162 158 162 158 180.5 125.5 c 128,-1,22
 199 93 199 93 233.5 79.5 c 128,-1,23
 268 66 268 66 316 66 c 0,24,25
 365 66 365 66 405.5 81.5 c 128,-1,26
 446 97 446 97 477.5 123 c 128,-1,27
 509 149 509 149 531 182 c 128,-1,28
 553 215 553 215 564 251 c 128,-1,29
 575 287 575 287 575 321 c 0,30,31
 575 325 575 325 566 326.5 c 128,-1,32
 557 328 557 328 545.5 329 c 128,-1,33
 534 330 534 330 524 330 c 2,34,-1
 515 330 l 1,35,-1
 515 406 l 1,36,-1
 726 406 l 1,37,-1
 726 330 l 1,38,-1
 715 330 l 2,39,40
 697 330 697 330 681.5 327 c 128,-1,41
 666 324 666 324 656.5 316 c 128,-1,42
 647 308 647 308 644 291 c 0,0,1
714 0 m 1,43,-1
 569 0 l 1,44,45
 509 62 509 62 452.5 120 c 128,-1,46
 396 178 396 178 347 233 c 128,-1,47
 298 288 298 288 261 341 c 128,-1,48
 224 394 224 394 203.5 446.5 c 128,-1,49
 183 499 183 499 183 550 c 0,50,51
 183 607 183 607 207.5 644.5 c 128,-1,52
 232 682 232 682 274.5 700 c 128,-1,53
 317 718 317 718 372 718 c 0,54,55
 450 718 450 718 494.5 686 c 128,-1,56
 539 654 539 654 539 585 c 0,57,58
 539 539 539 539 521 507.5 c 128,-1,59
 503 476 503 476 471.5 453 c 128,-1,60
 440 430 440 430 397.5 413 c 128,-1,61
 355 396 355 396 305 380 c 1,62,-1
 283 438 l 1,63,64
 329 454 329 454 360.5 466 c 128,-1,65
 392 478 392 478 411 492 c 128,-1,66
 430 506 430 506 438.5 525.5 c 128,-1,67
 447 545 447 545 447 576 c 0,68,69
 447 616 447 616 429 635 c 128,-1,70
 411 654 411 654 372 654 c 0,71,72
 342 654 342 654 320.5 645.5 c 128,-1,73
 299 637 299 637 287.5 614.5 c 128,-1,74
 276 592 276 592 276 549 c 0,75,76
 276 516 276 516 289 480.5 c 128,-1,77
 302 445 302 445 326.5 406.5 c 128,-1,78
 351 368 351 368 388.5 323.5 c 128,-1,79
 426 279 426 279 476 226.5 c 128,-1,80
 526 174 526 174 588 111 c 0,81,82
 603 96 603 96 613.5 88.5 c 128,-1,83
 624 81 624 81 635 78.5 c 128,-1,84
 646 76 646 76 660 76 c 2,85,-1
 714 76 l 1,86,-1
 714 0 l 1,43,-1
EndSplineSet
EndChar

StartChar: section
Encoding: 167 167 208
Width: 621
GlyphClass: 1
Flags: W
LayerCount: 2
Fore
SplineSet
278 432 m 1,0,-1
 298 383 l 1,1,2
 245 379 245 379 210 368.5 c 128,-1,3
 175 358 175 358 157.5 339 c 128,-1,4
 140 320 140 320 140 291 c 0,5,6
 140 264 140 264 151 244.5 c 128,-1,7
 162 225 162 225 183 210 c 128,-1,8
 204 195 204 195 234.5 182.5 c 128,-1,9
 265 170 265 170 303 158 c 0,10,11
 343 146 343 146 380 128.5 c 128,-1,12
 417 111 417 111 447 86.5 c 128,-1,13
 477 62 477 62 494.5 27.5 c 128,-1,14
 512 -7 512 -7 512 -53 c 0,15,16
 512 -109 512 -109 484.5 -150.5 c 128,-1,17
 457 -192 457 -192 408.5 -214 c 128,-1,18
 360 -236 360 -236 296 -236 c 0,19,20
 244 -236 244 -236 202.5 -227 c 128,-1,21
 161 -218 161 -218 130.5 -205 c 128,-1,22
 100 -192 100 -192 78 -179 c 1,23,-1
 78 -34 l 1,24,-1
 178 -34 l 1,25,-1
 178 -174 l 1,26,27
 168 -165 168 -165 157 -154.5 c 128,-1,28
 146 -144 146 -144 138 -135.5 c 128,-1,29
 130 -127 130 -127 127 -123 c 128,-1,30
 124 -119 124 -119 128 -122 c 0,31,32
 146 -133 146 -133 170 -142 c 128,-1,33
 194 -151 194 -151 225 -156 c 128,-1,34
 256 -161 256 -161 294 -161 c 0,35,36
 340 -161 340 -161 367 -151 c 128,-1,37
 394 -141 394 -141 405.5 -120.5 c 128,-1,38
 417 -100 417 -100 417 -69 c 256,39,40
 417 -38 417 -38 405 -15.5 c 128,-1,41
 393 7 393 7 371 23.5 c 128,-1,42
 349 40 349 40 319 53 c 128,-1,43
 289 66 289 66 253 77 c 0,44,45
 211 91 211 91 173.5 108 c 128,-1,46
 136 125 136 125 106.5 148.5 c 128,-1,47
 77 172 77 172 60 205 c 128,-1,48
 43 238 43 238 43 282 c 0,49,50
 43 324 43 324 61 353.5 c 128,-1,51
 79 383 79 383 111 401.5 c 128,-1,52
 143 420 143 420 185.5 427.5 c 128,-1,53
 228 435 228 435 278 432 c 1,0,-1
381 59 m 1,54,-1
 350 117 l 1,55,56
 391 128 391 128 420 137.5 c 128,-1,57
 449 147 449 147 465 162.5 c 128,-1,58
 481 178 481 178 481 208 c 0,59,60
 481 237 481 237 467.5 257 c 128,-1,61
 454 277 454 277 431 291.5 c 128,-1,62
 408 306 408 306 377 318.5 c 128,-1,63
 346 331 346 331 309 345 c 0,64,65
 273 358 273 358 237 376 c 128,-1,66
 201 394 201 394 171.5 419 c 128,-1,67
 142 444 142 444 124 478 c 128,-1,68
 106 512 106 512 106 558 c 0,69,70
 106 611 106 611 132 647 c 128,-1,71
 158 683 158 683 207.5 701.5 c 128,-1,72
 257 720 257 720 326 720 c 0,73,74
 375 720 375 720 411.5 714 c 128,-1,75
 448 708 448 708 473 698.5 c 128,-1,76
 498 689 498 689 511 680 c 1,77,-1
 511 535 l 1,78,-1
 414 535 l 1,79,-1
 414 666 l 1,80,81
 425 665 425 665 435 658.5 c 128,-1,82
 445 652 445 652 452.5 642.5 c 128,-1,83
 460 633 460 633 463.5 625 c 128,-1,84
 467 617 467 617 465 613 c 1,85,86
 453 626 453 626 435 633 c 128,-1,87
 417 640 417 640 391 643 c 128,-1,88
 365 646 365 646 326 646 c 0,89,90
 279 646 279 646 251 639 c 128,-1,91
 223 632 223 632 210.5 615 c 128,-1,92
 198 598 198 598 198 566 c 0,93,94
 198 533 198 533 210 512 c 128,-1,95
 222 491 222 491 243.5 477 c 128,-1,96
 265 463 265 463 293.5 451.5 c 128,-1,97
 322 440 322 440 356 427 c 0,98,99
 395 411 395 411 433.5 394.5 c 128,-1,100
 472 378 472 378 503.5 355.5 c 128,-1,101
 535 333 535 333 554 301 c 128,-1,102
 573 269 573 269 573 223 c 0,103,104
 573 171 573 171 550.5 138.5 c 128,-1,105
 528 106 528 106 485.5 87.5 c 128,-1,106
 443 69 443 69 381 59 c 1,54,-1
EndSplineSet
EndChar

StartChar: paragraph
Encoding: 182 182 209
Width: 654
GlyphClass: 1
Flags: W
LayerCount: 2
Fore
SplineSet
339 0 m 1,0,-1
 339 710 l 1,1,-1
 257 710 l 2,2,3
 196 710 196 710 150.5 686.5 c 128,-1,4
 105 663 105 663 81 620 c 128,-1,5
 57 577 57 577 57 519 c 0,6,7
 57 459 57 459 82 413.5 c 128,-1,8
 107 368 107 368 153.5 342 c 128,-1,9
 200 316 200 316 262 316 c 2,10,-1
 267 316 l 1,11,-1
 267 0 l 1,12,-1
 339 0 l 1,0,-1
479 710 m 1,13,-1
 300 710 l 1,14,-1
 300 635 l 1,15,-1
 479 635 l 1,16,-1
 479 710 l 1,13,-1
522 0 m 1,17,-1
 522 599 l 2,18,19
 522 614 522 614 530.5 621.5 c 128,-1,20
 539 629 539 629 556 632 c 128,-1,21
 573 635 573 635 596 635 c 2,22,-1
 606 635 l 1,23,-1
 606 710 l 1,24,-1
 451 710 l 1,25,-1
 451 0 l 1,26,-1
 522 0 l 1,17,-1
EndSplineSet
EndChar

StartChar: bullet
Encoding: 149 8226 211
Width: 497
GlyphClass: 1
Flags: W
LayerCount: 2
Fore
SplineSet
96 337 m 0,0,1
 96 381 96 381 115.5 414 c 128,-1,2
 135 447 135 447 169.5 465.5 c 128,-1,3
 204 484 204 484 249 484 c 0,4,5
 293 484 293 484 327.5 465.5 c 128,-1,6
 362 447 362 447 381.5 414 c 128,-1,7
 401 381 401 381 401 337 c 0,8,9
 401 294 401 294 381.5 260.5 c 128,-1,10
 362 227 362 227 327.5 208.5 c 128,-1,11
 293 190 293 190 249 190 c 0,12,13
 204 190 204 190 169.5 208.5 c 128,-1,14
 135 227 135 227 115.5 260.5 c 128,-1,15
 96 294 96 294 96 337 c 0,0,1
EndSplineSet
EndChar

StartChar: plus
Encoding: 43 43 212
Width: 560
GlyphClass: 1
Flags: W
LayerCount: 2
Fore
SplineSet
240 577 m 1,0,-1
 320 577 l 1,1,-1
 320 105 l 1,2,-1
 240 105 l 1,3,-1
 240 577 l 1,0,-1
507 378 m 1,4,-1
 507 304 l 1,5,-1
 53 304 l 1,6,-1
 53 378 l 1,7,-1
 507 378 l 1,4,-1
EndSplineSet
Substitution2: "'subs' Subscript lookup 53 subtable" plus.sub
Substitution2: "'sups' Superscript lookup 52 subtable" plus.sup
EndChar

StartChar: minus
Encoding: 282 8722 213
Width: 560
GlyphClass: 1
Flags: W
LayerCount: 2
Fore
SplineSet
507 378 m 1,0,-1
 507 304 l 1,1,-1
 53 304 l 1,2,-1
 53 378 l 1,3,-1
 507 378 l 1,0,-1
EndSplineSet
Substitution2: "'subs' Subscript lookup 53 subtable" minus.sub
Substitution2: "'sups' Superscript lookup 52 subtable" minus.sup
EndChar

StartChar: divide
Encoding: 247 247 215
Width: 560
GlyphClass: 1
Flags: W
LayerCount: 2
Fore
SplineSet
369 575 m 0,0,1
 369 539 369 539 343.5 515.5 c 128,-1,2
 318 492 318 492 279 492 c 0,3,4
 241 492 241 492 216 515.5 c 128,-1,5
 191 539 191 539 191 575 c 0,6,7
 191 613 191 613 216 636 c 128,-1,8
 241 659 241 659 279 659 c 0,9,10
 318 659 318 659 343.5 636 c 128,-1,11
 369 613 369 613 369 575 c 0,0,1
369 106 m 0,12,13
 369 70 369 70 343.5 47 c 128,-1,14
 318 24 318 24 279 24 c 0,15,16
 241 24 241 24 216 47 c 128,-1,17
 191 70 191 70 191 107 c 0,18,19
 191 145 191 145 216 167.5 c 128,-1,20
 241 190 241 190 279 190 c 0,21,22
 318 190 318 190 343.5 167 c 128,-1,23
 369 144 369 144 369 106 c 0,12,13
507 378 m 1,24,-1
 507 304 l 1,25,-1
 53 304 l 1,26,-1
 53 378 l 1,27,-1
 507 378 l 1,24,-1
EndSplineSet
EndChar

StartChar: multiply
Encoding: 215 215 216
Width: 560
GlyphClass: 1
Flags: W
LayerCount: 2
Fore
SplineSet
77 187 m 1,0,-1
 429 547 l 1,1,-1
 481 494 l 1,2,-1
 129 134 l 1,3,-1
 77 187 l 1,0,-1
76 495 m 1,4,-1
 128 547 l 1,5,-1
 480 187 l 1,6,-1
 428 135 l 1,7,-1
 76 495 l 1,4,-1
EndSplineSet
EndChar

StartChar: less
Encoding: 60 60 218
Width: 560
GlyphClass: 1
Flags: W
LayerCount: 2
Fore
SplineSet
485 570 m 1,0,-1
 485 488 l 1,1,-1
 95 313 l 1,2,-1
 75 332 l 1,3,-1
 75 381 l 1,4,-1
 485 570 l 1,0,-1
485 189 m 1,5,-1
 485 100 l 1,6,-1
 75 289 l 1,7,-1
 75 340 l 1,8,-1
 96 364 l 1,9,-1
 485 189 l 1,5,-1
EndSplineSet
EndChar

StartChar: greater
Encoding: 62 62 219
Width: 560
GlyphClass: 1
Flags: W
LayerCount: 2
Fore
SplineSet
75 100 m 1,0,-1
 75 182 l 1,1,-1
 465 357 l 1,2,-1
 485 338 l 1,3,-1
 485 289 l 1,4,-1
 75 100 l 1,0,-1
75 481 m 1,5,-1
 75 570 l 1,6,-1
 485 381 l 1,7,-1
 485 330 l 1,8,-1
 464 306 l 1,9,-1
 75 481 l 1,5,-1
EndSplineSet
EndChar

StartChar: approxequal
Encoding: 283 8776 220
Width: 560
GlyphClass: 1
Flags: W
LayerCount: 2
Fore
SplineSet
369 331 m 0,0,1
 341 331 341 331 318.5 343 c 128,-1,2
 296 355 296 355 277.5 372.5 c 128,-1,3
 259 390 259 390 242 408 c 128,-1,4
 225 426 225 426 208 438 c 128,-1,5
 191 450 191 450 171 450 c 0,6,7
 150 450 150 450 136.5 433.5 c 128,-1,8
 123 417 123 417 115 390 c 128,-1,9
 107 363 107 363 103 331 c 1,10,-1
 40 350 l 1,11,12
 47 401 47 401 64.5 439.5 c 128,-1,13
 82 478 82 478 110.5 500 c 128,-1,14
 139 522 139 522 179 522 c 0,15,16
 210 522 210 522 232.5 510 c 128,-1,17
 255 498 255 498 272.5 480.5 c 128,-1,18
 290 463 290 463 306 445.5 c 128,-1,19
 322 428 322 428 339.5 416 c 128,-1,20
 357 404 357 404 379 404 c 0,21,22
 405 404 405 404 420.5 422 c 128,-1,23
 436 440 436 440 446 468.5 c 128,-1,24
 456 497 456 497 464 527 c 1,25,-1
 525 507 l 1,26,27
 516 459 516 459 496 419 c 128,-1,28
 476 379 476 379 444.5 355 c 128,-1,29
 413 331 413 331 369 331 c 0,0,1
369 82 m 0,30,31
 341 82 341 82 318.5 94 c 128,-1,32
 296 106 296 106 277.5 123.5 c 128,-1,33
 259 141 259 141 242 159 c 128,-1,34
 225 177 225 177 208 189 c 128,-1,35
 191 201 191 201 171 201 c 0,36,37
 150 201 150 201 136.5 184.5 c 128,-1,38
 123 168 123 168 115 141 c 128,-1,39
 107 114 107 114 103 82 c 1,40,-1
 40 101 l 1,41,42
 47 152 47 152 64.5 190.5 c 128,-1,43
 82 229 82 229 110.5 251 c 128,-1,44
 139 273 139 273 179 273 c 0,45,46
 210 273 210 273 232.5 261 c 128,-1,47
 255 249 255 249 272.5 232 c 128,-1,48
 290 215 290 215 306 197 c 128,-1,49
 322 179 322 179 339.5 167 c 128,-1,50
 357 155 357 155 379 155 c 0,51,52
 405 155 405 155 420.5 173 c 128,-1,53
 436 191 436 191 446 219.5 c 128,-1,54
 456 248 456 248 464 278 c 1,55,-1
 525 258 l 1,56,57
 516 210 516 210 496 170 c 128,-1,58
 476 130 476 130 444.5 106 c 128,-1,59
 413 82 413 82 369 82 c 0,30,31
EndSplineSet
EndChar

StartChar: notequal
Encoding: 284 8800 221
Width: 560
GlyphClass: 1
Flags: W
LayerCount: 2
Fore
SplineSet
432 631 m 1,0,-1
 506 631 l 1,1,-1
 128 51 l 1,2,-1
 54 51 l 1,3,-1
 432 631 l 1,0,-1
507 490 m 1,4,-1
 507 415 l 1,5,-1
 53 415 l 1,6,-1
 53 490 l 1,7,-1
 507 490 l 1,4,-1
507 266 m 1,8,-1
 507 191 l 1,9,-1
 53 191 l 1,10,-1
 53 266 l 1,11,-1
 507 266 l 1,8,-1
EndSplineSet
EndChar

StartChar: logicalnot
Encoding: 172 172 222
Width: 560
GlyphClass: 1
Flags: W
LayerCount: 2
Fore
SplineSet
421 393 m 1,0,-1
 475 343 l 1,1,-1
 65 343 l 1,2,-1
 65 413 l 1,3,-1
 495 413 l 1,4,-1
 495 152 l 1,5,-1
 421 152 l 1,6,-1
 421 393 l 1,0,-1
EndSplineSet
EndChar

StartChar: infinity
Encoding: 285 8734 224
Width: 773
GlyphClass: 1
Flags: W
LayerCount: 2
Fore
SplineSet
218 147 m 0,0,1
 266 147 266 147 298.5 174.5 c 128,-1,2
 331 202 331 202 353.5 246.5 c 128,-1,3
 376 291 376 291 394 343 c 1,4,-1
 348 344 l 1,5,6
 330 310 330 310 313.5 281.5 c 128,-1,7
 297 253 297 253 275.5 236 c 128,-1,8
 254 219 254 219 220 219 c 0,9,10
 187 219 187 219 165 233.5 c 128,-1,11
 143 248 143 248 132.5 277 c 128,-1,12
 122 306 122 306 122 349 c 0,13,14
 122 417 122 417 145.5 452.5 c 128,-1,15
 169 488 169 488 215 488 c 0,16,17
 252 488 252 488 275 468 c 128,-1,18
 298 448 298 448 315 412.5 c 128,-1,19
 332 377 332 377 349 332 c 0,20,21
 363 296 363 296 380.5 263 c 128,-1,22
 398 230 398 230 420.5 203.5 c 128,-1,23
 443 177 443 177 473 162 c 128,-1,24
 503 147 503 147 542 147 c 0,25,26
 595 147 595 147 635 175 c 128,-1,27
 675 203 675 203 697.5 250.5 c 128,-1,28
 720 298 720 298 720 357 c 256,29,30
 720 416 720 416 700.5 462 c 128,-1,31
 681 508 681 508 644.5 534.5 c 128,-1,32
 608 561 608 561 556 561 c 0,33,34
 508 561 508 561 475.5 534 c 128,-1,35
 443 507 443 507 420.5 462.5 c 128,-1,36
 398 418 398 418 379 365 c 1,37,-1
 425 364 l 1,38,39
 444 398 444 398 460 426.5 c 128,-1,40
 476 455 476 455 497 472.5 c 128,-1,41
 518 490 518 490 553 490 c 0,42,43
 590 490 590 490 611.5 475 c 128,-1,44
 633 460 633 460 642 431.5 c 128,-1,45
 651 403 651 403 651 359 c 0,46,47
 651 319 651 319 642.5 287.5 c 128,-1,48
 634 256 634 256 614 238 c 128,-1,49
 594 220 594 220 560 220 c 0,50,51
 524 220 524 220 503.5 241 c 128,-1,52
 483 262 483 262 466 298 c 128,-1,53
 449 334 449 334 425 380 c 0,54,55
 407 412 407 412 390.5 443.5 c 128,-1,56
 374 475 374 475 353.5 502 c 128,-1,57
 333 529 333 529 303.5 545 c 128,-1,58
 274 561 274 561 232 561 c 0,59,60
 180 561 180 561 139.5 533.5 c 128,-1,61
 99 506 99 506 76.5 459 c 128,-1,62
 54 412 54 412 54 352 c 0,63,64
 54 293 54 293 73 246.5 c 128,-1,65
 92 200 92 200 129 173.5 c 128,-1,66
 166 147 166 147 218 147 c 0,0,1
EndSplineSet
EndChar

StartChar: dollar
Encoding: 36 36 225
Width: 560
GlyphClass: 1
Flags: W
LayerCount: 2
Fore
SplineSet
235 820 m 1,0,-1
 332 820 l 1,1,-1
 332 688 l 1,2,-1
 317 677 l 1,3,-1
 317 36 l 1,4,-1
 332 19 l 1,5,-1
 332 -150 l 1,6,-1
 235 -150 l 1,7,-1
 235 20 l 1,8,-1
 250 34 l 1,9,-1
 250 675 l 1,10,-1
 235 684 l 1,11,-1
 235 820 l 1,0,-1
281 66 m 0,12,13
 341 66 341 66 379 80 c 128,-1,14
 417 94 417 94 435 124 c 128,-1,15
 453 154 453 154 453 201 c 0,16,17
 453 240 453 240 437.5 262 c 128,-1,18
 422 284 422 284 395.5 296 c 128,-1,19
 369 308 369 308 335 315 c 128,-1,20
 301 322 301 322 264 330 c 0,21,22
 217 341 217 341 178 352 c 128,-1,23
 139 363 139 363 110 382.5 c 128,-1,24
 81 402 81 402 65.5 437 c 128,-1,25
 50 472 50 472 50 529 c 0,26,27
 50 584 50 584 78 623.5 c 128,-1,28
 106 663 106 663 158.5 684 c 128,-1,29
 211 705 211 705 285 705 c 0,30,31
 341 705 341 705 386.5 699 c 128,-1,32
 432 693 432 693 462.5 685 c 128,-1,33
 493 677 493 677 504 671 c 1,34,-1
 504 495 l 1,35,-1
 415 495 l 1,36,-1
 415 646 l 1,37,38
 425 646 425 646 434.5 641.5 c 128,-1,39
 444 637 444 637 451.5 629.5 c 128,-1,40
 459 622 459 622 463.5 616 c 128,-1,41
 468 610 468 610 469 608 c 1,42,43
 452 616 452 616 422 622.5 c 128,-1,44
 392 629 392 629 356 633 c 128,-1,45
 320 637 320 637 285 637 c 0,46,47
 232 637 232 637 197.5 625.5 c 128,-1,48
 163 614 163 614 147 590.5 c 128,-1,49
 131 567 131 567 131 529 c 0,50,51
 131 492 131 492 143.5 471 c 128,-1,52
 156 450 156 450 180 438 c 128,-1,53
 204 426 204 426 239 418.5 c 128,-1,54
 274 411 274 411 318 400 c 0,55,56
 359 390 359 390 398.5 379.5 c 128,-1,57
 438 369 438 369 469.5 350 c 128,-1,58
 501 331 501 331 520 295 c 128,-1,59
 539 259 539 259 539 199 c 0,60,61
 539 135 539 135 508.5 89.5 c 128,-1,62
 478 44 478 44 420.5 20.5 c 128,-1,63
 363 -3 363 -3 281 -3 c 0,64,65
 220 -3 220 -3 170.5 4.5 c 128,-1,66
 121 12 121 12 88 21.5 c 128,-1,67
 55 31 55 31 42 37 c 1,68,-1
 42 216 l 1,69,-1
 131 216 l 1,70,-1
 131 62 l 1,71,72
 121 62 121 62 111.5 67 c 128,-1,73
 102 72 102 72 94.5 79.5 c 128,-1,74
 87 87 87 87 82.5 93 c 128,-1,75
 78 99 78 99 77 101 c 1,76,77
 97 93 97 93 129.5 85 c 128,-1,78
 162 77 162 77 202 71.5 c 128,-1,79
 242 66 242 66 281 66 c 0,12,13
EndSplineSet
Substitution2: "'pnum' Proportional Numbers lookup 57 subtable" dollar.proportional
EndChar

StartChar: cent
Encoding: 162 162 226
Width: 560
GlyphClass: 1
Flags: W
LayerCount: 2
Fore
SplineSet
318 57 m 0,0,1
 348 57 348 57 372.5 62 c 128,-1,2
 397 67 397 67 416.5 77.5 c 128,-1,3
 436 88 436 88 451.5 104.5 c 128,-1,4
 467 121 467 121 479 144 c 1,5,-1
 535 113 l 1,6,7
 517 74 517 74 484.5 45.5 c 128,-1,8
 452 17 452 17 409.5 2 c 128,-1,9
 367 -13 367 -13 317 -13 c 0,10,11
 226 -13 226 -13 163 20.5 c 128,-1,12
 100 54 100 54 67.5 119.5 c 128,-1,13
 35 185 35 185 35 282 c 256,14,15
 35 379 35 379 68 444 c 128,-1,16
 101 509 101 509 164 542 c 128,-1,17
 227 575 227 575 317 575 c 0,18,19
 372 575 372 575 413.5 569 c 128,-1,20
 455 563 455 563 481.5 555 c 128,-1,21
 508 547 508 547 519 541 c 1,22,-1
 519 364 l 1,23,-1
 430 364 l 1,24,-1
 430 510 l 1,25,26
 440 510 440 510 449.5 507.5 c 128,-1,27
 459 505 459 505 466.5 500.5 c 128,-1,28
 474 496 474 496 478.5 492.5 c 128,-1,29
 483 489 483 489 484 487 c 1,30,31
 467 495 467 495 441 498.5 c 128,-1,32
 415 502 415 502 383.5 503 c 128,-1,33
 352 504 352 504 318 504 c 0,34,35
 266 504 266 504 230.5 492.5 c 128,-1,36
 195 481 195 481 173.5 455 c 128,-1,37
 152 429 152 429 142 386.5 c 128,-1,38
 132 344 132 344 132 282 c 0,39,40
 132 218 132 218 141.5 174.5 c 128,-1,41
 151 131 151 131 172.5 105 c 128,-1,42
 194 79 194 79 230 68 c 128,-1,43
 266 57 266 57 318 57 c 0,0,1
255 703 m 1,44,-1
 349 703 l 1,45,-1
 349 555 l 1,46,-1
 335 536 l 1,47,-1
 335 33 l 1,48,-1
 349 20 l 1,49,-1
 349 -166 l 1,50,-1
 255 -166 l 1,51,-1
 255 11 l 1,52,-1
 269 28 l 1,53,-1
 269 534 l 1,54,-1
 255 546 l 1,55,-1
 255 703 l 1,44,-1
EndSplineSet
Substitution2: "'pnum' Proportional Numbers lookup 57 subtable" cent.proportional
EndChar

StartChar: sterling
Encoding: 163 163 227
Width: 560
GlyphClass: 1
Flags: W
LayerCount: 2
Fore
SplineSet
37 -13 m 1,0,-1
 37 75 l 1,1,2
 84 97 84 97 117.5 123.5 c 128,-1,3
 151 150 151 150 169 180 c 128,-1,4
 187 210 187 210 187 242 c 0,5,6
 187 282 187 282 177 314.5 c 128,-1,7
 167 347 167 347 152.5 375 c 128,-1,8
 138 403 138 403 123.5 430.5 c 128,-1,9
 109 458 109 458 99 486 c 128,-1,10
 89 514 89 514 89 547 c 0,11,12
 89 612 89 612 117.5 653.5 c 128,-1,13
 146 695 146 695 199 715 c 128,-1,14
 252 735 252 735 327 735 c 0,15,16
 371 735 371 735 406 728.5 c 128,-1,17
 441 722 441 722 467 712.5 c 128,-1,18
 493 703 493 703 510 693 c 1,19,-1
 510 525 l 1,20,-1
 408 525 l 1,21,-1
 408 680 l 1,22,23
 420 679 420 679 432 672 c 128,-1,24
 444 665 444 665 455 654 c 128,-1,25
 466 643 466 643 473.5 632.5 c 128,-1,26
 481 622 481 622 483 615 c 1,27,28
 458 635 458 635 420 647.5 c 128,-1,29
 382 660 382 660 329 660 c 0,30,31
 281 660 281 660 250.5 651.5 c 128,-1,32
 220 643 220 643 205.5 620.5 c 128,-1,33
 191 598 191 598 191 555 c 0,34,35
 191 514 191 514 203.5 481 c 128,-1,36
 216 448 216 448 232 416 c 128,-1,37
 248 384 248 384 260.5 346.5 c 128,-1,38
 273 309 273 309 273 259 c 0,39,40
 273 220 273 220 256.5 181.5 c 128,-1,41
 240 143 240 143 209.5 108 c 128,-1,42
 179 73 179 73 135 42 c 128,-1,43
 91 11 91 11 37 -13 c 1,0,-1
393 -10 m 0,44,45
 360 -10 360 -10 337 0 c 128,-1,46
 314 10 314 10 294 30 c 128,-1,47
 274 50 274 50 251 79 c 128,-1,48
 228 108 228 108 196 145 c 0,49,50
 192 148 192 148 193.5 155 c 128,-1,51
 195 162 195 162 200.5 170.5 c 128,-1,52
 206 179 206 179 214 188 c 128,-1,53
 222 197 222 197 233 204 c 1,54,55
 264 165 264 165 289 139.5 c 128,-1,56
 314 114 314 114 339 102 c 128,-1,57
 364 90 364 90 395 90 c 0,58,59
 423 90 423 90 440.5 97.5 c 128,-1,60
 458 105 458 105 469.5 127.5 c 128,-1,61
 481 150 481 150 491 194 c 1,62,-1
 551 178 l 1,63,64
 543 123 543 123 526 80.5 c 128,-1,65
 509 38 509 38 477.5 14 c 128,-1,66
 446 -10 446 -10 393 -10 c 0,44,45
37 386 m 1,67,-1
 445 386 l 1,68,-1
 445 312 l 1,69,-1
 37 312 l 1,70,-1
 37 386 l 1,67,-1
EndSplineSet
Substitution2: "'ss05' Style Set 5 lookup 65 subtable" sterling.alt
Substitution2: "'pnum' Proportional Numbers lookup 57 subtable" sterling.proportional
EndChar

StartChar: currency
Encoding: 164 164 228
Width: 560
GlyphClass: 1
Flags: W
LayerCount: 2
Fore
SplineSet
393 373 m 0,0,1
 393 417 393 417 379.5 444 c 128,-1,2
 366 471 366 471 341 484 c 128,-1,3
 316 497 316 497 280 497 c 0,4,5
 245 497 245 497 219.5 484 c 128,-1,6
 194 471 194 471 180.5 444 c 128,-1,7
 167 417 167 417 167 373 c 0,8,9
 167 330 167 330 180.5 303 c 128,-1,10
 194 276 194 276 219.5 263 c 128,-1,11
 245 250 245 250 280 250 c 0,12,13
 316 250 316 250 341 263 c 128,-1,14
 366 276 366 276 379.5 303 c 128,-1,15
 393 330 393 330 393 373 c 0,0,1
83 373 m 256,16,17
 83 415 83 415 99 451.5 c 128,-1,18
 115 488 115 488 143 515.5 c 128,-1,19
 171 543 171 543 206.5 558 c 128,-1,20
 242 573 242 573 280 573 c 256,21,22
 318 573 318 573 353.5 558 c 128,-1,23
 389 543 389 543 417 515.5 c 128,-1,24
 445 488 445 488 461 451.5 c 128,-1,25
 477 415 477 415 477 373 c 256,26,27
 477 331 477 331 461 295 c 128,-1,28
 445 259 445 259 417 232 c 128,-1,29
 389 205 389 205 353.5 189.5 c 128,-1,30
 318 174 318 174 280 174 c 256,31,32
 242 174 242 174 206.5 189.5 c 128,-1,33
 171 205 171 205 143 232 c 128,-1,34
 115 259 115 259 99 295 c 128,-1,35
 83 331 83 331 83 373 c 256,16,17
11 586 m 1,36,-1
 70 645 l 1,37,-1
 187 528 l 1,38,-1
 121 476 l 1,39,-1
 11 586 l 1,36,-1
549 586 m 1,40,-1
 439 476 l 1,41,-1
 373 528 l 1,42,-1
 490 645 l 1,43,-1
 549 586 l 1,40,-1
11 160 m 1,44,-1
 121 270 l 1,45,-1
 187 218 l 1,46,-1
 70 101 l 1,47,-1
 11 160 l 1,44,-1
549 160 m 1,48,-1
 490 101 l 1,49,-1
 373 218 l 1,50,-1
 439 270 l 1,51,-1
 549 160 l 1,48,-1
EndSplineSet
EndChar

StartChar: yen
Encoding: 165 165 229
Width: 560
GlyphClass: 1
Flags: W
LayerCount: 2
Fore
SplineSet
49 392 m 1,0,-1
 518 392 l 1,1,-1
 518 320 l 1,2,-1
 49 320 l 1,3,-1
 49 392 l 1,0,-1
49 220 m 1,4,-1
 518 220 l 1,5,-1
 518 148 l 1,6,-1
 49 148 l 1,7,-1
 49 220 l 1,4,-1
241 379 m 1,8,-1
 326 379 l 1,9,-1
 326 111 l 2,10,11
 326 89 326 89 351 82 c 128,-1,12
 376 75 376 75 414 75 c 2,13,-1
 437 75 l 1,14,-1
 437 0 l 1,15,-1
 130 0 l 1,16,-1
 130 75 l 1,17,-1
 153 75 l 2,18,19
 192 75 192 75 216.5 82 c 128,-1,20
 241 89 241 89 241 111 c 2,21,-1
 241 379 l 1,8,-1
324 333 m 1,22,-1
 246 334 l 1,23,-1
 80 601 l 2,24,25
 67 623 67 623 53 629 c 128,-1,26
 39 635 39 635 18 635 c 2,27,-1
 10 635 l 1,28,-1
 10 710 l 1,29,-1
 223 710 l 1,30,-1
 223 635 l 1,31,-1
 211 635 l 2,32,33
 196 635 196 635 185.5 633.5 c 128,-1,34
 175 632 175 632 169.5 630 c 128,-1,35
 164 628 164 628 164 624 c 2,36,-1
 311 375 l 1,37,-1
 277 375 l 1,38,-1
 410 612 l 2,39,40
 410 619 410 619 404.5 624 c 128,-1,41
 399 629 399 629 388 632 c 128,-1,42
 377 635 377 635 362 635 c 2,43,-1
 356 635 l 1,44,-1
 356 710 l 1,45,-1
 550 710 l 1,46,-1
 550 635 l 1,47,-1
 542 635 l 2,48,49
 523 635 523 635 509 624 c 128,-1,50
 495 613 495 613 479 588 c 2,51,-1
 324 333 l 1,22,-1
EndSplineSet
Substitution2: "'pnum' Proportional Numbers lookup 57 subtable" yen.proportional
EndChar

StartChar: Euro
Encoding: 128 8364 230
Width: 560
GlyphClass: 1
Flags: W
LayerCount: 2
Fore
SplineSet
15 299 m 1,0,-1
 379 299 l 1,1,-1
 379 223 l 1,2,-1
 15 223 l 1,3,-1
 15 299 l 1,0,-1
15 469 m 1,4,-1
 409 469 l 1,5,-1
 409 393 l 1,6,-1
 15 393 l 1,7,-1
 15 469 l 1,4,-1
329 -25 m 0,8,9
 251 -25 251 -25 198.5 14 c 128,-1,10
 146 53 146 53 119.5 136.5 c 128,-1,11
 93 220 93 220 93 355 c 0,12,13
 93 483 93 483 119 567.5 c 128,-1,14
 145 652 145 652 201.5 693.5 c 128,-1,15
 258 735 258 735 347 735 c 0,16,17
 390 735 390 735 424 729 c 128,-1,18
 458 723 458 723 482.5 715.5 c 128,-1,19
 507 708 507 708 518 702 c 1,20,-1
 518 562 l 1,21,-1
 419 562 l 1,22,-1
 419 671 l 1,23,24
 429 671 429 671 438.5 666 c 128,-1,25
 448 661 448 661 455.5 653.5 c 128,-1,26
 463 646 463 646 467.5 640.5 c 128,-1,27
 472 635 472 635 473 634 c 1,28,29
 448 644 448 644 416.5 650.5 c 128,-1,30
 385 657 385 657 347 657 c 0,31,32
 302 657 302 657 272 640.5 c 128,-1,33
 242 624 242 624 224.5 588.5 c 128,-1,34
 207 553 207 553 200 495.5 c 128,-1,35
 193 438 193 438 193 355 c 0,36,37
 193 269 193 269 200 211 c 128,-1,38
 207 153 207 153 224 118.5 c 128,-1,39
 241 84 241 84 269 69 c 128,-1,40
 297 54 297 54 338 54 c 0,41,42
 385 54 385 54 412 70 c 128,-1,43
 439 86 439 86 454.5 116 c 128,-1,44
 470 146 470 146 483 186 c 1,45,-1
 550 161 l 1,46,47
 533 105 533 105 506 63 c 128,-1,48
 479 21 479 21 436 -2 c 128,-1,49
 393 -25 393 -25 329 -25 c 0,8,9
EndSplineSet
Substitution2: "'pnum' Proportional Numbers lookup 57 subtable" Euro.proportional
EndChar

